<svg width="41" height="32" viewBox="0 0 41 32" fill="none" xmlns="http://www.w3.org/2000/svg">
<g clip-path="url(#clip0_254_5780)">
<path d="M34.9139 12.5858C35.6516 11.848 35.6516 10.6519 34.9139 9.91422C34.1762 9.1765 32.9801 9.1765 32.2424 9.91422L34.9139 12.5858ZM21.2266 23.6016L19.8908 24.9373C20.2451 25.2916 20.7256 25.4906 21.2266 25.4906C21.7276 25.4906 22.2081 25.2916 22.5623 24.9373L21.2266 23.6016ZM10.2108 9.91422C9.47304 9.1765 8.27696 9.1765 7.53923 9.91422C6.80151 10.6519 6.80151 11.848 7.53923 12.5858L10.2108 9.91422ZM32.2424 9.91422L19.8908 22.2658L22.5623 24.9373L34.9139 12.5858L32.2424 9.91422ZM22.5623 22.2658L10.2108 9.91422L7.53923 12.5858L19.8908 24.9373L22.5623 22.2658Z" fill="#FF9254"/>
</g>
<defs>
<clipPath id="clip0_254_5780">
<rect width="31" height="39.7187" fill="white" transform="translate(0.640625 31.5938) rotate(-90)"/>
</clipPath>
</defs>
</svg>
