<svg width="31" height="40" viewBox="0 0 31 40" fill="none" xmlns="http://www.w3.org/2000/svg">
<path d="M11.992 5.67984C11.2543 4.94212 10.0582 4.94212 9.32047 5.67985C8.58275 6.41757 8.58275 7.61366 9.32047 8.35138L11.992 5.67984ZM23.0078 19.3672L24.3436 20.703C24.6978 20.3487 24.8969 19.8682 24.8969 19.3672C24.8969 18.8662 24.6978 18.3857 24.3436 18.0314L23.0078 19.3672ZM9.32047 30.383C8.58275 31.1207 8.58275 32.3168 9.32047 33.0545C10.0582 33.7922 11.2543 33.7922 11.992 33.0545L9.32047 30.383ZM9.32047 8.35138L21.672 20.703L24.3436 18.0314L11.992 5.67984L9.32047 8.35138ZM21.672 18.0314L9.32047 30.383L11.992 33.0545L24.3436 20.703L21.672 18.0314Z" fill="#FF9254"/>
</svg>
