<svg width="234" height="25" viewBox="0 0 234 25" fill="none" xmlns="http://www.w3.org/2000/svg">
<path d="M2.10352 19V6.15039H11.9736V19H9.88184V7.94336H4.21289V19H2.10352ZM23.7773 14.1133C23.7773 14.9219 23.6719 15.6396 23.4609 16.2666C23.25 16.8936 22.9424 17.4238 22.5381 17.8574C22.1338 18.2852 21.6475 18.6133 21.0791 18.8418C20.5107 19.0645 19.8691 19.1758 19.1543 19.1758C18.4863 19.1758 17.874 19.0645 17.3174 18.8418C16.7607 18.6133 16.2773 18.2852 15.8672 17.8574C15.4629 17.4238 15.1494 16.8936 14.9268 16.2666C14.7041 15.6396 14.5928 14.9219 14.5928 14.1133C14.5928 13.041 14.7773 12.1328 15.1465 11.3887C15.5215 10.6387 16.0547 10.0674 16.7461 9.6748C17.4375 9.28223 18.2607 9.08594 19.2158 9.08594C20.1123 9.08594 20.9033 9.28223 21.5889 9.6748C22.2744 10.0674 22.8105 10.6387 23.1973 11.3887C23.584 12.1387 23.7773 13.0469 23.7773 14.1133ZM16.7197 14.1133C16.7197 14.8223 16.8047 15.4287 16.9746 15.9326C17.1504 16.4365 17.4199 16.8232 17.7832 17.0928C18.1465 17.3564 18.6152 17.4883 19.1895 17.4883C19.7637 17.4883 20.2324 17.3564 20.5957 17.0928C20.959 16.8232 21.2256 16.4365 21.3955 15.9326C21.5654 15.4287 21.6504 14.8223 21.6504 14.1133C21.6504 13.4043 21.5654 12.8037 21.3955 12.3115C21.2256 11.8135 20.959 11.4355 20.5957 11.1777C20.2324 10.9141 19.7607 10.7822 19.1807 10.7822C18.3252 10.7822 17.7012 11.0693 17.3086 11.6436C16.916 12.2178 16.7197 13.041 16.7197 14.1133ZM30.0703 19.1758C29.1504 19.1758 28.3535 18.9971 27.6797 18.6396C27.0059 18.2822 26.4873 17.7344 26.124 16.9961C25.7607 16.2578 25.5791 15.3203 25.5791 14.1836C25.5791 13 25.7783 12.0332 26.1768 11.2832C26.5752 10.5332 27.126 9.97949 27.8291 9.62207C28.5381 9.26465 29.3496 9.08594 30.2637 9.08594C30.8438 9.08594 31.3682 9.14453 31.8369 9.26172C32.3115 9.37305 32.7129 9.51074 33.041 9.6748L32.4258 11.3271C32.0684 11.1807 31.7021 11.0576 31.3271 10.958C30.9521 10.8584 30.5918 10.8086 30.2461 10.8086C29.6777 10.8086 29.2031 10.9346 28.8223 11.1865C28.4473 11.4385 28.166 11.8135 27.9785 12.3115C27.7969 12.8096 27.7061 13.4277 27.7061 14.166C27.7061 14.8809 27.7998 15.4844 27.9873 15.9766C28.1748 16.4629 28.4531 16.832 28.8223 17.084C29.1914 17.3301 29.6455 17.4531 30.1846 17.4531C30.7178 17.4531 31.1953 17.3887 31.6172 17.2598C32.0391 17.1309 32.4375 16.9639 32.8125 16.7588V18.5518C32.4434 18.7627 32.0479 18.918 31.626 19.0176C31.2041 19.123 30.6855 19.1758 30.0703 19.1758ZM46.374 9.27051V19H44.458V13.4453C44.458 13.082 44.4668 12.7188 44.4844 12.3555C44.502 11.9922 44.5254 11.6465 44.5547 11.3184H44.502L41.54 19H39.9141L36.9785 11.3096H36.917C36.9463 11.6436 36.9668 11.9893 36.9785 12.3467C36.9961 12.7041 37.0049 13.0908 37.0049 13.5068V19H35.0889V9.27051H37.9717L40.749 16.5391L43.5703 9.27051H46.374ZM57.9141 14.1133C57.9141 14.9219 57.8086 15.6396 57.5977 16.2666C57.3867 16.8936 57.0791 17.4238 56.6748 17.8574C56.2705 18.2852 55.7842 18.6133 55.2158 18.8418C54.6475 19.0645 54.0059 19.1758 53.291 19.1758C52.623 19.1758 52.0107 19.0645 51.4541 18.8418C50.8975 18.6133 50.4141 18.2852 50.0039 17.8574C49.5996 17.4238 49.2861 16.8936 49.0635 16.2666C48.8408 15.6396 48.7295 14.9219 48.7295 14.1133C48.7295 13.041 48.9141 12.1328 49.2832 11.3887C49.6582 10.6387 50.1914 10.0674 50.8828 9.6748C51.5742 9.28223 52.3975 9.08594 53.3525 9.08594C54.249 9.08594 55.04 9.28223 55.7256 9.6748C56.4111 10.0674 56.9473 10.6387 57.334 11.3887C57.7207 12.1387 57.9141 13.0469 57.9141 14.1133ZM50.8564 14.1133C50.8564 14.8223 50.9414 15.4287 51.1113 15.9326C51.2871 16.4365 51.5566 16.8232 51.9199 17.0928C52.2832 17.3564 52.752 17.4883 53.3262 17.4883C53.9004 17.4883 54.3691 17.3564 54.7324 17.0928C55.0957 16.8232 55.3623 16.4365 55.5322 15.9326C55.7021 15.4287 55.7871 14.8223 55.7871 14.1133C55.7871 13.4043 55.7021 12.8037 55.5322 12.3115C55.3623 11.8135 55.0957 11.4355 54.7324 11.1777C54.3691 10.9141 53.8975 10.7822 53.3174 10.7822C52.4619 10.7822 51.8379 11.0693 51.4453 11.6436C51.0527 12.2178 50.8564 13.041 50.8564 14.1133ZM67.6348 10.8965H64.4355V19H62.3789V10.8965H59.1973V9.27051H67.6348V10.8965ZM74.5078 9.08594C75.6621 9.08594 76.5879 9.50781 77.2852 10.3516C77.9883 11.1953 78.3398 12.4492 78.3398 14.1133C78.3398 15.2148 78.1758 16.1436 77.8477 16.8994C77.5254 17.6494 77.0713 18.2178 76.4854 18.6045C75.9053 18.9854 75.2285 19.1758 74.4551 19.1758C73.9629 19.1758 73.5352 19.1113 73.1719 18.9824C72.8086 18.8535 72.498 18.6865 72.2402 18.4814C71.9824 18.2705 71.7656 18.042 71.5898 17.7959H71.4668C71.4961 18.0303 71.5225 18.291 71.5459 18.5781C71.5752 18.8594 71.5898 19.1172 71.5898 19.3516V23.3154H69.5156V9.27051H71.2031L71.4932 10.6152H71.5898C71.7715 10.3398 71.9912 10.085 72.249 9.85059C72.5127 9.61621 72.8291 9.43164 73.1982 9.29688C73.5732 9.15625 74.0098 9.08594 74.5078 9.08594ZM73.9541 10.7734C73.3857 10.7734 72.9287 10.8877 72.583 11.1162C72.2432 11.3389 71.9941 11.6758 71.8359 12.127C71.6836 12.5781 71.6016 13.1436 71.5898 13.8232V14.1133C71.5898 14.834 71.6631 15.4463 71.8096 15.9502C71.9619 16.4482 72.2109 16.8291 72.5566 17.0928C72.9082 17.3506 73.3828 17.4795 73.9805 17.4795C74.4844 17.4795 74.9004 17.3418 75.2285 17.0664C75.5625 16.791 75.8115 16.3984 75.9756 15.8887C76.1396 15.3789 76.2217 14.7783 76.2217 14.0869C76.2217 13.0381 76.0342 12.2236 75.6592 11.6436C75.29 11.0635 74.7217 10.7734 73.9541 10.7734ZM84.6064 9.08594C85.4736 9.08594 86.2178 9.26465 86.8389 9.62207C87.46 9.97949 87.9375 10.4863 88.2715 11.1426C88.6055 11.7988 88.7725 12.584 88.7725 13.498V14.6055H82.2773C82.3008 15.5488 82.5527 16.2754 83.0332 16.7852C83.5195 17.2949 84.1992 17.5498 85.0723 17.5498C85.6934 17.5498 86.25 17.4912 86.7422 17.374C87.2402 17.251 87.7529 17.0723 88.2803 16.8379V18.5166C87.7939 18.7451 87.2988 18.9121 86.7949 19.0176C86.291 19.123 85.6875 19.1758 84.9844 19.1758C84.0293 19.1758 83.1885 18.9912 82.4619 18.6221C81.7412 18.2471 81.1758 17.6904 80.7656 16.9521C80.3613 16.2139 80.1592 15.2969 80.1592 14.2012C80.1592 13.1113 80.3438 12.1855 80.7129 11.4238C81.082 10.6621 81.6006 10.082 82.2686 9.68359C82.9365 9.28516 83.7158 9.08594 84.6064 9.08594ZM84.6064 10.6416C83.9561 10.6416 83.4287 10.8525 83.0244 11.2744C82.626 11.6963 82.3916 12.3145 82.3213 13.1289H86.751C86.7451 12.6426 86.6631 12.2119 86.5049 11.8369C86.3525 11.4619 86.1182 11.1689 85.8018 10.958C85.4912 10.7471 85.0928 10.6416 84.6064 10.6416ZM98.4492 10.8965H95.25V19H93.1934V10.8965H90.0117V9.27051H98.4492V10.8965ZM102.404 13.1553H104.821C105.735 13.1553 106.491 13.2607 107.089 13.4717C107.692 13.6768 108.144 13.9873 108.442 14.4033C108.741 14.8193 108.891 15.3408 108.891 15.9678C108.891 16.583 108.75 17.1191 108.469 17.5762C108.188 18.0273 107.748 18.3789 107.15 18.6309C106.559 18.877 105.785 19 104.83 19H100.33V9.27051H102.404V13.1553ZM106.816 16.0205C106.816 15.5342 106.635 15.1914 106.271 14.9922C105.908 14.7871 105.39 14.6846 104.716 14.6846H102.404V17.4795H104.733C105.349 17.4795 105.85 17.3682 106.236 17.1455C106.623 16.917 106.816 16.542 106.816 16.0205ZM124.351 9.27051V19H122.268V10.9053H117.926V19H115.852V9.27051H124.351ZM135.926 14.1133C135.926 14.9219 135.82 15.6396 135.609 16.2666C135.398 16.8936 135.091 17.4238 134.687 17.8574C134.282 18.2852 133.796 18.6133 133.228 18.8418C132.659 19.0645 132.018 19.1758 131.303 19.1758C130.635 19.1758 130.022 19.0645 129.466 18.8418C128.909 18.6133 128.426 18.2852 128.016 17.8574C127.611 17.4238 127.298 16.8936 127.075 16.2666C126.853 15.6396 126.741 14.9219 126.741 14.1133C126.741 13.041 126.926 12.1328 127.295 11.3887C127.67 10.6387 128.203 10.0674 128.895 9.6748C129.586 9.28223 130.409 9.08594 131.364 9.08594C132.261 9.08594 133.052 9.28223 133.737 9.6748C134.423 10.0674 134.959 10.6387 135.346 11.3887C135.732 12.1387 135.926 13.0469 135.926 14.1133ZM128.868 14.1133C128.868 14.8223 128.953 15.4287 129.123 15.9326C129.299 16.4365 129.568 16.8232 129.932 17.0928C130.295 17.3564 130.764 17.4883 131.338 17.4883C131.912 17.4883 132.381 17.3564 132.744 17.0928C133.107 16.8232 133.374 16.4365 133.544 15.9326C133.714 15.4287 133.799 14.8223 133.799 14.1133C133.799 13.4043 133.714 12.8037 133.544 12.3115C133.374 11.8135 133.107 11.4355 132.744 11.1777C132.381 10.9141 131.909 10.7822 131.329 10.7822C130.474 10.7822 129.85 11.0693 129.457 11.6436C129.064 12.2178 128.868 13.041 128.868 14.1133ZM146.244 9.27051V17.4004H147.65V22.4277H145.743V19H139.028V22.4277H137.121V17.4004H137.912C138.404 16.6855 138.814 15.8887 139.143 15.0098C139.477 14.1309 139.734 13.2051 139.916 12.2324C140.104 11.2539 140.221 10.2666 140.268 9.27051H146.244ZM144.196 10.8525H142.043C141.973 11.6436 141.853 12.4316 141.683 13.2168C141.513 13.9961 141.293 14.7432 141.023 15.458C140.76 16.167 140.443 16.8145 140.074 17.4004H144.196V10.8525ZM148.907 13.1641C148.907 11.752 149.062 10.5508 149.373 9.56055C149.684 8.57031 150.173 7.77637 150.841 7.17871C151.509 6.58105 152.376 6.17383 153.442 5.95703C154.134 5.79883 154.837 5.66406 155.552 5.55273C156.267 5.44141 156.981 5.33301 157.696 5.22754L157.978 7.04688C157.644 7.08789 157.286 7.1377 156.905 7.19629C156.524 7.24902 156.141 7.30469 155.754 7.36328C155.373 7.42188 155.007 7.4834 154.655 7.54785C154.31 7.60645 153.999 7.66504 153.724 7.72363C153.173 7.84082 152.707 8.03418 152.326 8.30371C151.951 8.56738 151.658 8.9541 151.447 9.46387C151.236 9.97363 151.11 10.6533 151.069 11.5029H151.184C151.342 11.2627 151.562 11.0225 151.843 10.7822C152.124 10.542 152.464 10.3428 152.862 10.1846C153.267 10.0205 153.727 9.93848 154.242 9.93848C155.051 9.93848 155.736 10.1084 156.299 10.4482C156.867 10.7881 157.298 11.2803 157.591 11.9248C157.89 12.5693 158.039 13.3457 158.039 14.2539C158.039 15.3379 157.846 16.2461 157.459 16.9785C157.078 17.7051 156.545 18.2529 155.859 18.6221C155.174 18.9912 154.374 19.1758 153.46 19.1758C152.757 19.1758 152.124 19.0439 151.562 18.7803C151.005 18.5166 150.527 18.1299 150.129 17.6201C149.736 17.1045 149.435 16.4746 149.224 15.7305C149.013 14.9805 148.907 14.125 148.907 13.1641ZM153.601 17.4795C154.069 17.4795 154.474 17.3799 154.813 17.1807C155.159 16.9814 155.426 16.6592 155.613 16.2139C155.807 15.7686 155.903 15.1797 155.903 14.4473C155.903 13.5449 155.739 12.8359 155.411 12.3203C155.089 11.7988 154.556 11.5381 153.812 11.5381C153.354 11.5381 152.936 11.6406 152.555 11.8457C152.174 12.0508 151.852 12.291 151.588 12.5664C151.324 12.8359 151.137 13.0732 151.025 13.2783C151.025 13.8115 151.063 14.3271 151.14 14.8252C151.222 15.3232 151.356 15.7744 151.544 16.1787C151.737 16.5771 152.001 16.8936 152.335 17.1279C152.669 17.3623 153.091 17.4795 153.601 17.4795ZM169.025 14.1133C169.025 14.9219 168.92 15.6396 168.709 16.2666C168.498 16.8936 168.19 17.4238 167.786 17.8574C167.382 18.2852 166.896 18.6133 166.327 18.8418C165.759 19.0645 165.117 19.1758 164.402 19.1758C163.734 19.1758 163.122 19.0645 162.565 18.8418C162.009 18.6133 161.525 18.2852 161.115 17.8574C160.711 17.4238 160.397 16.8936 160.175 16.2666C159.952 15.6396 159.841 14.9219 159.841 14.1133C159.841 13.041 160.025 12.1328 160.395 11.3887C160.77 10.6387 161.303 10.0674 161.994 9.6748C162.686 9.28223 163.509 9.08594 164.464 9.08594C165.36 9.08594 166.151 9.28223 166.837 9.6748C167.522 10.0674 168.059 10.6387 168.445 11.3887C168.832 12.1387 169.025 13.0469 169.025 14.1133ZM161.968 14.1133C161.968 14.8223 162.053 15.4287 162.223 15.9326C162.398 16.4365 162.668 16.8232 163.031 17.0928C163.395 17.3564 163.863 17.4883 164.438 17.4883C165.012 17.4883 165.48 17.3564 165.844 17.0928C166.207 16.8232 166.474 16.4365 166.644 15.9326C166.813 15.4287 166.898 14.8223 166.898 14.1133C166.898 13.4043 166.813 12.8037 166.644 12.3115C166.474 11.8135 166.207 11.4355 165.844 11.1777C165.48 10.9141 165.009 10.7822 164.429 10.7822C163.573 10.7822 162.949 11.0693 162.557 11.6436C162.164 12.2178 161.968 13.041 161.968 14.1133ZM176.391 9.08594C177.545 9.08594 178.471 9.50781 179.168 10.3516C179.871 11.1953 180.223 12.4492 180.223 14.1133C180.223 15.2148 180.059 16.1436 179.73 16.8994C179.408 17.6494 178.954 18.2178 178.368 18.6045C177.788 18.9854 177.111 19.1758 176.338 19.1758C175.846 19.1758 175.418 19.1113 175.055 18.9824C174.691 18.8535 174.381 18.6865 174.123 18.4814C173.865 18.2705 173.648 18.042 173.473 17.7959H173.35C173.379 18.0303 173.405 18.291 173.429 18.5781C173.458 18.8594 173.473 19.1172 173.473 19.3516V23.3154H171.398V9.27051H173.086L173.376 10.6152H173.473C173.654 10.3398 173.874 10.085 174.132 9.85059C174.396 9.61621 174.712 9.43164 175.081 9.29688C175.456 9.15625 175.893 9.08594 176.391 9.08594ZM175.837 10.7734C175.269 10.7734 174.812 10.8877 174.466 11.1162C174.126 11.3389 173.877 11.6758 173.719 12.127C173.566 12.5781 173.484 13.1436 173.473 13.8232V14.1133C173.473 14.834 173.546 15.4463 173.692 15.9502C173.845 16.4482 174.094 16.8291 174.439 17.0928C174.791 17.3506 175.266 17.4795 175.863 17.4795C176.367 17.4795 176.783 17.3418 177.111 17.0664C177.445 16.791 177.694 16.3984 177.858 15.8887C178.022 15.3789 178.104 14.7783 178.104 14.0869C178.104 13.0381 177.917 12.2236 177.542 11.6436C177.173 11.0635 176.604 10.7734 175.837 10.7734ZM188.643 9.27051H190.919L186.894 13.9463L191.262 19H188.88L184.688 14.0605V19H182.613V9.27051H184.688V13.9902L188.643 9.27051ZM194.83 9.27051V14.2363C194.83 14.3945 194.824 14.5967 194.812 14.8428C194.807 15.083 194.795 15.335 194.777 15.5986C194.76 15.8564 194.742 16.0938 194.725 16.3105C194.707 16.5273 194.692 16.6885 194.681 16.7939L199.576 9.27051H202.09V19H200.112V14.0869C200.112 13.8291 200.118 13.5303 200.13 13.1904C200.147 12.8506 200.165 12.5225 200.183 12.2061C200.206 11.8896 200.221 11.6494 200.227 11.4854L195.349 19H192.844V9.27051H194.83Z" fill="#CBCBCB"/>
<path d="M223.042 9.29038C222.788 9.03654 222.376 9.03654 222.122 9.29038C221.869 9.54422 221.869 9.95578 222.122 10.2096L223.042 9.29038ZM226.832 14L227.292 14.4596C227.414 14.3377 227.482 14.1724 227.482 14C227.482 13.8276 227.414 13.6623 227.292 13.5404L226.832 14ZM222.122 17.7904C221.869 18.0442 221.869 18.4558 222.122 18.7096C222.376 18.9635 222.788 18.9635 223.042 18.7096L222.122 17.7904ZM222.122 10.2096L226.372 14.4596L227.292 13.5404L223.042 9.29038L222.122 10.2096ZM226.372 13.5404L222.122 17.7904L223.042 18.7096L227.292 14.4596L226.372 13.5404Z" fill="#CBCBCB"/>
</svg>
