<svg width="206" height="25" viewBox="0 0 206 25" fill="none" xmlns="http://www.w3.org/2000/svg">
<path d="M7.5625 7.75879C6.94727 7.75879 6.39648 7.87012 5.91016 8.09277C5.42969 8.31543 5.02246 8.6377 4.68848 9.05957C4.35449 9.47559 4.09961 9.98242 3.92383 10.5801C3.74805 11.1719 3.66016 11.8398 3.66016 12.584C3.66016 13.5801 3.80078 14.4385 4.08203 15.1592C4.36328 15.874 4.79102 16.4248 5.36523 16.8115C5.93945 17.1924 6.66602 17.3828 7.54492 17.3828C8.08984 17.3828 8.62012 17.3301 9.13574 17.2246C9.65137 17.1191 10.1846 16.9756 10.7354 16.7939V18.5869C10.2139 18.792 9.68652 18.9414 9.15332 19.0352C8.62012 19.1289 8.00488 19.1758 7.30762 19.1758C5.99512 19.1758 4.90527 18.9033 4.03809 18.3584C3.17676 17.8135 2.53223 17.0459 2.10449 16.0557C1.68262 15.0654 1.47168 13.9053 1.47168 12.5752C1.47168 11.6025 1.60645 10.7119 1.87598 9.90332C2.14551 9.09473 2.53809 8.39746 3.05371 7.81152C3.56934 7.21973 4.20508 6.76562 4.96094 6.44922C5.72266 6.12695 6.59277 5.96582 7.57129 5.96582C8.21582 5.96582 8.84863 6.03906 9.46973 6.18555C10.0967 6.32617 10.6768 6.52832 11.21 6.79199L10.4717 8.53223C10.0264 8.32129 9.56055 8.13965 9.07422 7.9873C8.58789 7.83496 8.08398 7.75879 7.5625 7.75879ZM21.7832 9.27051V19H19.7002V10.9053H15.3584V19H13.2842V9.27051H21.7832ZM26.7314 9.27051V14.2363C26.7314 14.3945 26.7256 14.5967 26.7139 14.8428C26.708 15.083 26.6963 15.335 26.6787 15.5986C26.6611 15.8564 26.6436 16.0938 26.626 16.3105C26.6084 16.5273 26.5938 16.6885 26.582 16.7939L31.4775 9.27051H33.9912V19H32.0137V14.0869C32.0137 13.8291 32.0195 13.5303 32.0312 13.1904C32.0488 12.8506 32.0664 12.5225 32.084 12.2061C32.1074 11.8896 32.1221 11.6494 32.1279 11.4854L27.25 19H24.7451V9.27051H26.7314ZM40.8818 19.1758C39.9619 19.1758 39.165 18.9971 38.4912 18.6396C37.8174 18.2822 37.2988 17.7344 36.9355 16.9961C36.5723 16.2578 36.3906 15.3203 36.3906 14.1836C36.3906 13 36.5898 12.0332 36.9883 11.2832C37.3867 10.5332 37.9375 9.97949 38.6406 9.62207C39.3496 9.26465 40.1611 9.08594 41.0752 9.08594C41.6553 9.08594 42.1797 9.14453 42.6484 9.26172C43.123 9.37305 43.5244 9.51074 43.8525 9.6748L43.2373 11.3271C42.8799 11.1807 42.5137 11.0576 42.1387 10.958C41.7637 10.8584 41.4033 10.8086 41.0576 10.8086C40.4893 10.8086 40.0146 10.9346 39.6338 11.1865C39.2588 11.4385 38.9775 11.8135 38.79 12.3115C38.6084 12.8096 38.5176 13.4277 38.5176 14.166C38.5176 14.8809 38.6113 15.4844 38.7988 15.9766C38.9863 16.4629 39.2646 16.832 39.6338 17.084C40.0029 17.3301 40.457 17.4531 40.9961 17.4531C41.5293 17.4531 42.0068 17.3887 42.4287 17.2598C42.8506 17.1309 43.249 16.9639 43.624 16.7588V18.5518C43.2549 18.7627 42.8594 18.918 42.4375 19.0176C42.0156 19.123 41.4971 19.1758 40.8818 19.1758ZM54.5225 14.1133C54.5225 14.9219 54.417 15.6396 54.2061 16.2666C53.9951 16.8936 53.6875 17.4238 53.2832 17.8574C52.8789 18.2852 52.3926 18.6133 51.8242 18.8418C51.2559 19.0645 50.6143 19.1758 49.8994 19.1758C49.2314 19.1758 48.6191 19.0645 48.0625 18.8418C47.5059 18.6133 47.0225 18.2852 46.6123 17.8574C46.208 17.4238 45.8945 16.8936 45.6719 16.2666C45.4492 15.6396 45.3379 14.9219 45.3379 14.1133C45.3379 13.041 45.5225 12.1328 45.8916 11.3887C46.2666 10.6387 46.7998 10.0674 47.4912 9.6748C48.1826 9.28223 49.0059 9.08594 49.9609 9.08594C50.8574 9.08594 51.6484 9.28223 52.334 9.6748C53.0195 10.0674 53.5557 10.6387 53.9424 11.3887C54.3291 12.1387 54.5225 13.0469 54.5225 14.1133ZM47.4648 14.1133C47.4648 14.8223 47.5498 15.4287 47.7197 15.9326C47.8955 16.4365 48.165 16.8232 48.5283 17.0928C48.8916 17.3564 49.3604 17.4883 49.9346 17.4883C50.5088 17.4883 50.9775 17.3564 51.3408 17.0928C51.7041 16.8232 51.9707 16.4365 52.1406 15.9326C52.3105 15.4287 52.3955 14.8223 52.3955 14.1133C52.3955 13.4043 52.3105 12.8037 52.1406 12.3115C51.9707 11.8135 51.7041 11.4355 51.3408 11.1777C50.9775 10.9141 50.5059 10.7822 49.9258 10.7822C49.0703 10.7822 48.4463 11.0693 48.0537 11.6436C47.6611 12.2178 47.4648 13.041 47.4648 14.1133ZM62.9248 9.27051H65.2012L61.1758 13.9463L65.5439 19H63.1621L58.9697 14.0605V19H56.8955V9.27051H58.9697V13.9902L62.9248 9.27051ZM79.7471 9.27051V17.4004H81.1533V22.4277H79.2461V19H72.5312V22.4277H70.624V17.4004H71.415C71.9072 16.6855 72.3174 15.8887 72.6455 15.0098C72.9795 14.1309 73.2373 13.2051 73.4189 12.2324C73.6064 11.2539 73.7236 10.2666 73.7705 9.27051H79.7471ZM77.6992 10.8525H75.5459C75.4756 11.6436 75.3555 12.4316 75.1855 13.2168C75.0156 13.9961 74.7959 14.7432 74.5264 15.458C74.2627 16.167 73.9463 16.8145 73.5771 17.4004H77.6992V10.8525ZM84.9502 9.27051V14.2363C84.9502 14.3945 84.9443 14.5967 84.9326 14.8428C84.9268 15.083 84.915 15.335 84.8975 15.5986C84.8799 15.8564 84.8623 16.0938 84.8447 16.3105C84.8271 16.5273 84.8125 16.6885 84.8008 16.7939L89.6963 9.27051H92.21V19H90.2324V14.0869C90.2324 13.8291 90.2383 13.5303 90.25 13.1904C90.2676 12.8506 90.2852 12.5225 90.3027 12.2061C90.3262 11.8896 90.3408 11.6494 90.3467 11.4854L85.4688 19H82.9639V9.27051H84.9502ZM98.9951 9.08594C100.226 9.08594 101.154 9.3584 101.781 9.90332C102.414 10.4482 102.73 11.2979 102.73 12.4521V19H101.263L100.867 17.6201H100.797C100.521 17.9717 100.237 18.2617 99.9443 18.4902C99.6514 18.7188 99.3115 18.8887 98.9248 19C98.5439 19.1172 98.0781 19.1758 97.5273 19.1758C96.9473 19.1758 96.4287 19.0703 95.9717 18.8594C95.5146 18.6426 95.1543 18.3145 94.8906 17.875C94.627 17.4355 94.4951 16.8789 94.4951 16.2051C94.4951 15.2031 94.8672 14.4502 95.6113 13.9463C96.3613 13.4424 97.4922 13.1641 99.0039 13.1113L100.691 13.0498V12.54C100.691 11.8662 100.533 11.3857 100.217 11.0986C99.9062 10.8115 99.4668 10.668 98.8984 10.668C98.4121 10.668 97.9404 10.7383 97.4834 10.8789C97.0264 11.0195 96.5811 11.1924 96.1475 11.3975L95.4795 9.93848C95.9541 9.68652 96.4932 9.48145 97.0967 9.32324C97.7061 9.16504 98.3389 9.08594 98.9951 9.08594ZM100.683 14.3506L99.4258 14.3945C98.3945 14.4297 97.6709 14.6055 97.2549 14.9219C96.8389 15.2383 96.6309 15.6719 96.6309 16.2227C96.6309 16.7031 96.7744 17.0547 97.0615 17.2773C97.3486 17.4941 97.7266 17.6025 98.1953 17.6025C98.9102 17.6025 99.502 17.4004 99.9707 16.9961C100.445 16.5859 100.683 15.9854 100.683 15.1943V14.3506ZM111.933 9.27051V10.8965H107.696V19H105.622V9.27051H111.933ZM115.888 9.27051V13.1816H120.44V9.27051H122.515V19H120.44V14.7988H115.888V19H113.813V9.27051H115.888ZM134.081 14.1133C134.081 14.9219 133.976 15.6396 133.765 16.2666C133.554 16.8936 133.246 17.4238 132.842 17.8574C132.438 18.2852 131.951 18.6133 131.383 18.8418C130.814 19.0645 130.173 19.1758 129.458 19.1758C128.79 19.1758 128.178 19.0645 127.621 18.8418C127.064 18.6133 126.581 18.2852 126.171 17.8574C125.767 17.4238 125.453 16.8936 125.23 16.2666C125.008 15.6396 124.896 14.9219 124.896 14.1133C124.896 13.041 125.081 12.1328 125.45 11.3887C125.825 10.6387 126.358 10.0674 127.05 9.6748C127.741 9.28223 128.564 9.08594 129.52 9.08594C130.416 9.08594 131.207 9.28223 131.893 9.6748C132.578 10.0674 133.114 10.6387 133.501 11.3887C133.888 12.1387 134.081 13.0469 134.081 14.1133ZM127.023 14.1133C127.023 14.8223 127.108 15.4287 127.278 15.9326C127.454 16.4365 127.724 16.8232 128.087 17.0928C128.45 17.3564 128.919 17.4883 129.493 17.4883C130.067 17.4883 130.536 17.3564 130.899 17.0928C131.263 16.8232 131.529 16.4365 131.699 15.9326C131.869 15.4287 131.954 14.8223 131.954 14.1133C131.954 13.4043 131.869 12.8037 131.699 12.3115C131.529 11.8135 131.263 11.4355 130.899 11.1777C130.536 10.9141 130.064 10.7822 129.484 10.7822C128.629 10.7822 128.005 11.0693 127.612 11.6436C127.22 12.2178 127.023 13.041 127.023 14.1133ZM140.374 19.1758C139.454 19.1758 138.657 18.9971 137.983 18.6396C137.31 18.2822 136.791 17.7344 136.428 16.9961C136.064 16.2578 135.883 15.3203 135.883 14.1836C135.883 13 136.082 12.0332 136.48 11.2832C136.879 10.5332 137.43 9.97949 138.133 9.62207C138.842 9.26465 139.653 9.08594 140.567 9.08594C141.147 9.08594 141.672 9.14453 142.141 9.26172C142.615 9.37305 143.017 9.51074 143.345 9.6748L142.729 11.3271C142.372 11.1807 142.006 11.0576 141.631 10.958C141.256 10.8584 140.896 10.8086 140.55 10.8086C139.981 10.8086 139.507 10.9346 139.126 11.1865C138.751 11.4385 138.47 11.8135 138.282 12.3115C138.101 12.8096 138.01 13.4277 138.01 14.166C138.01 14.8809 138.104 15.4844 138.291 15.9766C138.479 16.4629 138.757 16.832 139.126 17.084C139.495 17.3301 139.949 17.4531 140.488 17.4531C141.021 17.4531 141.499 17.3887 141.921 17.2598C142.343 17.1309 142.741 16.9639 143.116 16.7588V18.5518C142.747 18.7627 142.352 18.918 141.93 19.0176C141.508 19.123 140.989 19.1758 140.374 19.1758ZM152.749 10.8965H149.55V19H147.493V10.8965H144.312V9.27051H152.749V10.8965ZM156.616 9.27051V14.2363C156.616 14.3945 156.61 14.5967 156.599 14.8428C156.593 15.083 156.581 15.335 156.563 15.5986C156.546 15.8564 156.528 16.0938 156.511 16.3105C156.493 16.5273 156.479 16.6885 156.467 16.7939L161.362 9.27051H163.876V19H161.898V14.0869C161.898 13.8291 161.904 13.5303 161.916 13.1904C161.934 12.8506 161.951 12.5225 161.969 12.2061C161.992 11.8896 162.007 11.6494 162.013 11.4854L157.135 19H154.63V9.27051H156.616ZM172.876 9.27051H175.152L171.127 13.9463L175.495 19H173.113L168.921 14.0605V19H166.847V9.27051H168.921V13.9902L172.876 9.27051Z" fill="#CBCBCB"/>
<path d="M195.042 9.29038C194.788 9.03654 194.376 9.03654 194.122 9.29038C193.869 9.54422 193.869 9.95578 194.122 10.2096L195.042 9.29038ZM198.832 14L199.292 14.4596C199.414 14.3377 199.482 14.1724 199.482 14C199.482 13.8276 199.414 13.6623 199.292 13.5404L198.832 14ZM194.122 17.7904C193.869 18.0442 193.869 18.4558 194.122 18.7096C194.376 18.9635 194.788 18.9635 195.042 18.7096L194.122 17.7904ZM194.122 10.2096L198.372 14.4596L199.292 13.5404L195.042 9.29038L194.122 10.2096ZM198.372 13.5404L194.122 17.7904L195.042 18.7096L199.292 14.4596L198.372 13.5404Z" fill="#CBCBCB"/>
</svg>
