<svg width="147" height="25" viewBox="0 0 147 25" fill="none" xmlns="http://www.w3.org/2000/svg">
<path d="M5.89746 6.15039C7.55566 6.15039 8.76562 6.49023 9.52734 7.16992C10.2891 7.84961 10.6699 8.80176 10.6699 10.0264C10.6699 10.583 10.582 11.1133 10.4062 11.6172C10.2363 12.1152 9.95508 12.5576 9.5625 12.9443C9.16992 13.3252 8.65137 13.627 8.00684 13.8496C7.36816 14.0723 6.58008 14.1836 5.64258 14.1836H4.27148V19H2.16211V6.15039H5.89746ZM5.75684 7.89941H4.27148V12.4258H5.42285C6.08496 12.4258 6.64746 12.3496 7.11035 12.1973C7.57324 12.0391 7.9248 11.79 8.16504 11.4502C8.40527 11.1104 8.52539 10.6621 8.52539 10.1055C8.52539 9.36133 8.2998 8.80762 7.84863 8.44434C7.40332 8.08105 6.70605 7.89941 5.75684 7.89941ZM16.9014 9.08594C17.7686 9.08594 18.5127 9.26465 19.1338 9.62207C19.7549 9.97949 20.2324 10.4863 20.5664 11.1426C20.9004 11.7988 21.0674 12.584 21.0674 13.498V14.6055H14.5723C14.5957 15.5488 14.8477 16.2754 15.3281 16.7852C15.8145 17.2949 16.4941 17.5498 17.3672 17.5498C17.9883 17.5498 18.5449 17.4912 19.0371 17.374C19.5352 17.251 20.0479 17.0723 20.5752 16.8379V18.5166C20.0889 18.7451 19.5938 18.9121 19.0898 19.0176C18.5859 19.123 17.9824 19.1758 17.2793 19.1758C16.3242 19.1758 15.4834 18.9912 14.7568 18.6221C14.0361 18.2471 13.4707 17.6904 13.0605 16.9521C12.6562 16.2139 12.4541 15.2969 12.4541 14.2012C12.4541 13.1113 12.6387 12.1855 13.0078 11.4238C13.377 10.6621 13.8955 10.082 14.5635 9.68359C15.2314 9.28516 16.0107 9.08594 16.9014 9.08594ZM16.9014 10.6416C16.251 10.6416 15.7236 10.8525 15.3193 11.2744C14.9209 11.6963 14.6865 12.3145 14.6162 13.1289H19.0459C19.04 12.6426 18.958 12.2119 18.7998 11.8369C18.6475 11.4619 18.4131 11.1689 18.0967 10.958C17.7861 10.7471 17.3877 10.6416 16.9014 10.6416ZM29.707 9.27051V10.8965H25.4707V19H23.3965V9.27051H29.707ZM33.5742 9.27051V14.2363C33.5742 14.3945 33.5684 14.5967 33.5566 14.8428C33.5508 15.083 33.5391 15.335 33.5215 15.5986C33.5039 15.8564 33.4863 16.0938 33.4688 16.3105C33.4512 16.5273 33.4365 16.6885 33.4248 16.7939L38.3203 9.27051H40.834V19H38.8564V14.0869C38.8564 13.8291 38.8623 13.5303 38.874 13.1904C38.8916 12.8506 38.9092 12.5225 38.9268 12.2061C38.9502 11.8896 38.9648 11.6494 38.9707 11.4854L34.0928 19H31.5879V9.27051H33.5742ZM47.7246 19.1758C46.8047 19.1758 46.0078 18.9971 45.334 18.6396C44.6602 18.2822 44.1416 17.7344 43.7783 16.9961C43.415 16.2578 43.2334 15.3203 43.2334 14.1836C43.2334 13 43.4326 12.0332 43.8311 11.2832C44.2295 10.5332 44.7803 9.97949 45.4834 9.62207C46.1924 9.26465 47.0039 9.08594 47.918 9.08594C48.498 9.08594 49.0225 9.14453 49.4912 9.26172C49.9658 9.37305 50.3672 9.51074 50.6953 9.6748L50.0801 11.3271C49.7227 11.1807 49.3564 11.0576 48.9814 10.958C48.6064 10.8584 48.2461 10.8086 47.9004 10.8086C47.332 10.8086 46.8574 10.9346 46.4766 11.1865C46.1016 11.4385 45.8203 11.8135 45.6328 12.3115C45.4512 12.8096 45.3604 13.4277 45.3604 14.166C45.3604 14.8809 45.4541 15.4844 45.6416 15.9766C45.8291 16.4629 46.1074 16.832 46.4766 17.084C46.8457 17.3301 47.2998 17.4531 47.8389 17.4531C48.3721 17.4531 48.8496 17.3887 49.2715 17.2598C49.6934 17.1309 50.0918 16.9639 50.4668 16.7588V18.5518C50.0977 18.7627 49.7021 18.918 49.2803 19.0176C48.8584 19.123 48.3398 19.1758 47.7246 19.1758ZM60.0996 10.8965H56.9004V19H54.8438V10.8965H51.6621V9.27051H60.0996V10.8965ZM66.9727 9.08594C68.127 9.08594 69.0527 9.50781 69.75 10.3516C70.4531 11.1953 70.8047 12.4492 70.8047 14.1133C70.8047 15.2148 70.6406 16.1436 70.3125 16.8994C69.9902 17.6494 69.5361 18.2178 68.9502 18.6045C68.3701 18.9854 67.6934 19.1758 66.9199 19.1758C66.4277 19.1758 66 19.1113 65.6367 18.9824C65.2734 18.8535 64.9629 18.6865 64.7051 18.4814C64.4473 18.2705 64.2305 18.042 64.0547 17.7959H63.9316C63.9609 18.0303 63.9873 18.291 64.0107 18.5781C64.04 18.8594 64.0547 19.1172 64.0547 19.3516V23.3154H61.9805V9.27051H63.668L63.958 10.6152H64.0547C64.2363 10.3398 64.4561 10.085 64.7139 9.85059C64.9775 9.61621 65.2939 9.43164 65.6631 9.29688C66.0381 9.15625 66.4746 9.08594 66.9727 9.08594ZM66.4189 10.7734C65.8506 10.7734 65.3936 10.8877 65.0479 11.1162C64.708 11.3389 64.459 11.6758 64.3008 12.127C64.1484 12.5781 64.0664 13.1436 64.0547 13.8232V14.1133C64.0547 14.834 64.1279 15.4463 64.2744 15.9502C64.4268 16.4482 64.6758 16.8291 65.0215 17.0928C65.373 17.3506 65.8477 17.4795 66.4453 17.4795C66.9492 17.4795 67.3652 17.3418 67.6934 17.0664C68.0273 16.791 68.2764 16.3984 68.4404 15.8887C68.6045 15.3789 68.6865 14.7783 68.6865 14.0869C68.6865 13.0381 68.499 12.2236 68.124 11.6436C67.7549 11.0635 67.1865 10.7734 66.4189 10.7734ZM77.0098 9.08594C78.2402 9.08594 79.1689 9.3584 79.7959 9.90332C80.4287 10.4482 80.7451 11.2979 80.7451 12.4521V19H79.2773L78.8818 17.6201H78.8115C78.5361 17.9717 78.252 18.2617 77.959 18.4902C77.666 18.7188 77.3262 18.8887 76.9395 19C76.5586 19.1172 76.0928 19.1758 75.542 19.1758C74.9619 19.1758 74.4434 19.0703 73.9863 18.8594C73.5293 18.6426 73.1689 18.3145 72.9053 17.875C72.6416 17.4355 72.5098 16.8789 72.5098 16.2051C72.5098 15.2031 72.8818 14.4502 73.626 13.9463C74.376 13.4424 75.5068 13.1641 77.0186 13.1113L78.7061 13.0498V12.54C78.7061 11.8662 78.5479 11.3857 78.2314 11.0986C77.9209 10.8115 77.4814 10.668 76.9131 10.668C76.4268 10.668 75.9551 10.7383 75.498 10.8789C75.041 11.0195 74.5957 11.1924 74.1621 11.3975L73.4941 9.93848C73.9688 9.68652 74.5078 9.48145 75.1113 9.32324C75.7207 9.16504 76.3535 9.08594 77.0098 9.08594ZM78.6973 14.3506L77.4404 14.3945C76.4092 14.4297 75.6855 14.6055 75.2695 14.9219C74.8535 15.2383 74.6455 15.6719 74.6455 16.2227C74.6455 16.7031 74.7891 17.0547 75.0762 17.2773C75.3633 17.4941 75.7412 17.6025 76.21 17.6025C76.9248 17.6025 77.5166 17.4004 77.9854 16.9961C78.46 16.5859 78.6973 15.9854 78.6973 15.1943V14.3506ZM93.6826 22.4277H91.7666V19H83.6367V9.27051H85.7109V17.374H90.2197V9.27051H92.2939V17.4092H93.6826V22.4277ZM97.4531 9.27051V14.2363C97.4531 14.3945 97.4473 14.5967 97.4355 14.8428C97.4297 15.083 97.418 15.335 97.4004 15.5986C97.3828 15.8564 97.3652 16.0938 97.3477 16.3105C97.3301 16.5273 97.3154 16.6885 97.3037 16.7939L102.199 9.27051H104.713V19H102.735V14.0869C102.735 13.8291 102.741 13.5303 102.753 13.1904C102.771 12.8506 102.788 12.5225 102.806 12.2061C102.829 11.8896 102.844 11.6494 102.85 11.4854L97.9717 19H95.4668V9.27051H97.4531ZM108.659 19H106.356L109.072 15.0273C108.703 14.9102 108.357 14.7373 108.035 14.5088C107.719 14.2744 107.461 13.9697 107.262 13.5947C107.062 13.2139 106.963 12.751 106.963 12.2061C106.963 11.2568 107.303 10.5303 107.982 10.0264C108.662 9.52246 109.55 9.27051 110.646 9.27051H115.058V19H112.992V15.2383H111.032L108.659 19ZM108.984 12.2236C108.984 12.7158 109.169 13.0908 109.538 13.3486C109.907 13.6006 110.411 13.7266 111.05 13.7266H112.992V10.8262H110.751C110.136 10.8262 109.688 10.9609 109.406 11.2305C109.125 11.4941 108.984 11.8252 108.984 12.2236Z" fill="#FF9254"/>
<path d="M136.042 9.29038C135.788 9.03654 135.376 9.03654 135.122 9.29038C134.869 9.54422 134.869 9.95578 135.122 10.2096L136.042 9.29038ZM139.832 14L140.292 14.4596C140.414 14.3377 140.482 14.1724 140.482 14C140.482 13.8276 140.414 13.6623 140.292 13.5404L139.832 14ZM135.122 17.7904C134.869 18.0442 134.869 18.4558 135.122 18.7096C135.376 18.9635 135.788 18.9635 136.042 18.7096L135.122 17.7904ZM135.122 10.2096L139.372 14.4596L140.292 13.5404L136.042 9.29038L135.122 10.2096ZM139.372 13.5404L135.122 17.7904L136.042 18.7096L140.292 14.4596L139.372 13.5404Z" fill="#FF9254"/>
</svg>
