<svg width="226" height="25" viewBox="0 0 226 25" fill="none" xmlns="http://www.w3.org/2000/svg">
<path d="M2.16406 19V6.15039H12.0342V19H9.94238V7.94336H4.27344V19H2.16406ZM20.2168 9.08594C21.3711 9.08594 22.2969 9.50781 22.9941 10.3516C23.6973 11.1953 24.0488 12.4492 24.0488 14.1133C24.0488 15.2148 23.8848 16.1436 23.5566 16.8994C23.2344 17.6494 22.7803 18.2178 22.1943 18.6045C21.6143 18.9854 20.9375 19.1758 20.1641 19.1758C19.6719 19.1758 19.2441 19.1113 18.8809 18.9824C18.5176 18.8535 18.207 18.6865 17.9492 18.4814C17.6914 18.2705 17.4746 18.042 17.2988 17.7959H17.1758C17.2051 18.0303 17.2314 18.291 17.2549 18.5781C17.2842 18.8594 17.2988 19.1172 17.2988 19.3516V23.3154H15.2246V9.27051H16.9121L17.2021 10.6152H17.2988C17.4805 10.3398 17.7002 10.085 17.958 9.85059C18.2217 9.61621 18.5381 9.43164 18.9072 9.29688C19.2822 9.15625 19.7188 9.08594 20.2168 9.08594ZM19.6631 10.7734C19.0947 10.7734 18.6377 10.8877 18.292 11.1162C17.9521 11.3389 17.7031 11.6758 17.5449 12.127C17.3926 12.5781 17.3105 13.1436 17.2988 13.8232V14.1133C17.2988 14.834 17.3721 15.4463 17.5186 15.9502C17.6709 16.4482 17.9199 16.8291 18.2656 17.0928C18.6172 17.3506 19.0918 17.4795 19.6895 17.4795C20.1934 17.4795 20.6094 17.3418 20.9375 17.0664C21.2715 16.791 21.5205 16.3984 21.6846 15.8887C21.8486 15.3789 21.9307 14.7783 21.9307 14.0869C21.9307 13.0381 21.7432 12.2236 21.3682 11.6436C20.999 11.0635 20.4307 10.7734 19.6631 10.7734ZM35.0527 14.1133C35.0527 14.9219 34.9473 15.6396 34.7363 16.2666C34.5254 16.8936 34.2178 17.4238 33.8135 17.8574C33.4092 18.2852 32.9229 18.6133 32.3545 18.8418C31.7861 19.0645 31.1445 19.1758 30.4297 19.1758C29.7617 19.1758 29.1494 19.0645 28.5928 18.8418C28.0361 18.6133 27.5527 18.2852 27.1426 17.8574C26.7383 17.4238 26.4248 16.8936 26.2021 16.2666C25.9795 15.6396 25.8682 14.9219 25.8682 14.1133C25.8682 13.041 26.0527 12.1328 26.4219 11.3887C26.7969 10.6387 27.3301 10.0674 28.0215 9.6748C28.7129 9.28223 29.5361 9.08594 30.4912 9.08594C31.3877 9.08594 32.1787 9.28223 32.8643 9.6748C33.5498 10.0674 34.0859 10.6387 34.4727 11.3887C34.8594 12.1387 35.0527 13.0469 35.0527 14.1133ZM27.9951 14.1133C27.9951 14.8223 28.0801 15.4287 28.25 15.9326C28.4258 16.4365 28.6953 16.8232 29.0586 17.0928C29.4219 17.3564 29.8906 17.4883 30.4648 17.4883C31.0391 17.4883 31.5078 17.3564 31.8711 17.0928C32.2344 16.8232 32.501 16.4365 32.6709 15.9326C32.8408 15.4287 32.9258 14.8223 32.9258 14.1133C32.9258 13.4043 32.8408 12.8037 32.6709 12.3115C32.501 11.8135 32.2344 11.4355 31.8711 11.1777C31.5078 10.9141 31.0361 10.7822 30.4561 10.7822C29.6006 10.7822 28.9766 11.0693 28.584 11.6436C28.1914 12.2178 27.9951 13.041 27.9951 14.1133ZM39.4121 9.27051V14.2363C39.4121 14.3945 39.4062 14.5967 39.3945 14.8428C39.3887 15.083 39.377 15.335 39.3594 15.5986C39.3418 15.8564 39.3242 16.0938 39.3066 16.3105C39.2891 16.5273 39.2744 16.6885 39.2627 16.7939L44.1582 9.27051H46.6719V19H44.6943V14.0869C44.6943 13.8291 44.7002 13.5303 44.7119 13.1904C44.7295 12.8506 44.7471 12.5225 44.7646 12.2061C44.7881 11.8896 44.8027 11.6494 44.8086 11.4854L39.9307 19H37.4258V9.27051H39.4121ZM45.9424 5.1748C45.8838 5.77832 45.7197 6.2998 45.4502 6.73926C45.1865 7.17285 44.7852 7.50684 44.2461 7.74121C43.707 7.97559 42.998 8.09277 42.1191 8.09277C41.2109 8.09277 40.4932 7.98145 39.9658 7.75879C39.4385 7.53027 39.0576 7.19922 38.8232 6.76562C38.5889 6.32617 38.4482 5.7959 38.4014 5.1748H40.2822C40.3408 5.8252 40.5107 6.26465 40.792 6.49316C41.0732 6.71582 41.5273 6.82715 42.1543 6.82715C42.6934 6.82715 43.124 6.70703 43.4463 6.4668C43.7744 6.22656 43.9707 5.7959 44.0352 5.1748H45.9424ZM56.9902 10.8965H53.791V19H51.7344V10.8965H48.5527V9.27051H56.9902V10.8965ZM60.8574 9.27051V14.2363C60.8574 14.3945 60.8516 14.5967 60.8398 14.8428C60.834 15.083 60.8223 15.335 60.8047 15.5986C60.7871 15.8564 60.7695 16.0938 60.752 16.3105C60.7344 16.5273 60.7197 16.6885 60.708 16.7939L65.6035 9.27051H68.1172V19H66.1396V14.0869C66.1396 13.8291 66.1455 13.5303 66.1572 13.1904C66.1748 12.8506 66.1924 12.5225 66.21 12.2061C66.2334 11.8896 66.248 11.6494 66.2539 11.4854L61.376 19H58.8711V9.27051H60.8574ZM80.7559 9.08594C81.9102 9.08594 82.8359 9.50781 83.5332 10.3516C84.2363 11.1953 84.5879 12.4492 84.5879 14.1133C84.5879 15.2148 84.4238 16.1436 84.0957 16.8994C83.7734 17.6494 83.3193 18.2178 82.7334 18.6045C82.1533 18.9854 81.4766 19.1758 80.7031 19.1758C80.2109 19.1758 79.7832 19.1113 79.4199 18.9824C79.0566 18.8535 78.7461 18.6865 78.4883 18.4814C78.2305 18.2705 78.0137 18.042 77.8379 17.7959H77.7148C77.7441 18.0303 77.7705 18.291 77.7939 18.5781C77.8232 18.8594 77.8379 19.1172 77.8379 19.3516V23.3154H75.7637V9.27051H77.4512L77.7412 10.6152H77.8379C78.0195 10.3398 78.2393 10.085 78.4971 9.85059C78.7607 9.61621 79.0771 9.43164 79.4463 9.29688C79.8213 9.15625 80.2578 9.08594 80.7559 9.08594ZM80.2021 10.7734C79.6338 10.7734 79.1768 10.8877 78.8311 11.1162C78.4912 11.3389 78.2422 11.6758 78.084 12.127C77.9316 12.5781 77.8496 13.1436 77.8379 13.8232V14.1133C77.8379 14.834 77.9111 15.4463 78.0576 15.9502C78.21 16.4482 78.459 16.8291 78.8047 17.0928C79.1562 17.3506 79.6309 17.4795 80.2285 17.4795C80.7324 17.4795 81.1484 17.3418 81.4766 17.0664C81.8105 16.791 82.0596 16.3984 82.2236 15.8887C82.3877 15.3789 82.4697 14.7783 82.4697 14.0869C82.4697 13.0381 82.2822 12.2236 81.9072 11.6436C81.5381 11.0635 80.9697 10.7734 80.2021 10.7734ZM90.8545 9.08594C91.7217 9.08594 92.4658 9.26465 93.0869 9.62207C93.708 9.97949 94.1855 10.4863 94.5195 11.1426C94.8535 11.7988 95.0205 12.584 95.0205 13.498V14.6055H88.5254C88.5488 15.5488 88.8008 16.2754 89.2812 16.7852C89.7676 17.2949 90.4473 17.5498 91.3203 17.5498C91.9414 17.5498 92.498 17.4912 92.9902 17.374C93.4883 17.251 94.001 17.0723 94.5283 16.8379V18.5166C94.042 18.7451 93.5469 18.9121 93.043 19.0176C92.5391 19.123 91.9355 19.1758 91.2324 19.1758C90.2773 19.1758 89.4365 18.9912 88.71 18.6221C87.9893 18.2471 87.4238 17.6904 87.0137 16.9521C86.6094 16.2139 86.4072 15.2969 86.4072 14.2012C86.4072 13.1113 86.5918 12.1855 86.9609 11.4238C87.3301 10.6621 87.8486 10.082 88.5166 9.68359C89.1846 9.28516 89.9639 9.08594 90.8545 9.08594ZM90.8545 10.6416C90.2041 10.6416 89.6768 10.8525 89.2725 11.2744C88.874 11.6963 88.6396 12.3145 88.5693 13.1289H92.999C92.9932 12.6426 92.9111 12.2119 92.7529 11.8369C92.6006 11.4619 92.3662 11.1689 92.0498 10.958C91.7393 10.7471 91.3408 10.6416 90.8545 10.6416ZM103.66 9.27051V10.8965H99.4238V19H97.3496V9.27051H103.66ZM107.527 9.27051V14.2363C107.527 14.3945 107.521 14.5967 107.51 14.8428C107.504 15.083 107.492 15.335 107.475 15.5986C107.457 15.8564 107.439 16.0938 107.422 16.3105C107.404 16.5273 107.39 16.6885 107.378 16.7939L112.273 9.27051H114.787V19H112.81V14.0869C112.81 13.8291 112.815 13.5303 112.827 13.1904C112.845 12.8506 112.862 12.5225 112.88 12.2061C112.903 11.8896 112.918 11.6494 112.924 11.4854L108.046 19H105.541V9.27051H107.527ZM121.678 19.1758C120.758 19.1758 119.961 18.9971 119.287 18.6396C118.613 18.2822 118.095 17.7344 117.731 16.9961C117.368 16.2578 117.187 15.3203 117.187 14.1836C117.187 13 117.386 12.0332 117.784 11.2832C118.183 10.5332 118.733 9.97949 119.437 9.62207C120.146 9.26465 120.957 9.08594 121.871 9.08594C122.451 9.08594 122.976 9.14453 123.444 9.26172C123.919 9.37305 124.32 9.51074 124.648 9.6748L124.033 11.3271C123.676 11.1807 123.31 11.0576 122.935 10.958C122.56 10.8584 122.199 10.8086 121.854 10.8086C121.285 10.8086 120.811 10.9346 120.43 11.1865C120.055 11.4385 119.773 11.8135 119.586 12.3115C119.404 12.8096 119.313 13.4277 119.313 14.166C119.313 14.8809 119.407 15.4844 119.595 15.9766C119.782 16.4629 120.061 16.832 120.43 17.084C120.799 17.3301 121.253 17.4531 121.792 17.4531C122.325 17.4531 122.803 17.3887 123.225 17.2598C123.646 17.1309 124.045 16.9639 124.42 16.7588V18.5518C124.051 18.7627 123.655 18.918 123.233 19.0176C122.812 19.123 122.293 19.1758 121.678 19.1758ZM134.053 10.8965H130.854V19H128.797V10.8965H125.615V9.27051H134.053V10.8965ZM140.926 9.08594C142.08 9.08594 143.006 9.50781 143.703 10.3516C144.406 11.1953 144.758 12.4492 144.758 14.1133C144.758 15.2148 144.594 16.1436 144.266 16.8994C143.943 17.6494 143.489 18.2178 142.903 18.6045C142.323 18.9854 141.646 19.1758 140.873 19.1758C140.381 19.1758 139.953 19.1113 139.59 18.9824C139.227 18.8535 138.916 18.6865 138.658 18.4814C138.4 18.2705 138.184 18.042 138.008 17.7959H137.885C137.914 18.0303 137.94 18.291 137.964 18.5781C137.993 18.8594 138.008 19.1172 138.008 19.3516V23.3154H135.934V9.27051H137.621L137.911 10.6152H138.008C138.189 10.3398 138.409 10.085 138.667 9.85059C138.931 9.61621 139.247 9.43164 139.616 9.29688C139.991 9.15625 140.428 9.08594 140.926 9.08594ZM140.372 10.7734C139.804 10.7734 139.347 10.8877 139.001 11.1162C138.661 11.3389 138.412 11.6758 138.254 12.127C138.102 12.5781 138.02 13.1436 138.008 13.8232V14.1133C138.008 14.834 138.081 15.4463 138.228 15.9502C138.38 16.4482 138.629 16.8291 138.975 17.0928C139.326 17.3506 139.801 17.4795 140.398 17.4795C140.902 17.4795 141.318 17.3418 141.646 17.0664C141.98 16.791 142.229 16.3984 142.394 15.8887C142.558 15.3789 142.64 14.7783 142.64 14.0869C142.64 13.0381 142.452 12.2236 142.077 11.6436C141.708 11.0635 141.14 10.7734 140.372 10.7734ZM150.963 9.08594C152.193 9.08594 153.122 9.3584 153.749 9.90332C154.382 10.4482 154.698 11.2979 154.698 12.4521V19H153.23L152.835 17.6201H152.765C152.489 17.9717 152.205 18.2617 151.912 18.4902C151.619 18.7188 151.279 18.8887 150.893 19C150.512 19.1172 150.046 19.1758 149.495 19.1758C148.915 19.1758 148.396 19.0703 147.939 18.8594C147.482 18.6426 147.122 18.3145 146.858 17.875C146.595 17.4355 146.463 16.8789 146.463 16.2051C146.463 15.2031 146.835 14.4502 147.579 13.9463C148.329 13.4424 149.46 13.1641 150.972 13.1113L152.659 13.0498V12.54C152.659 11.8662 152.501 11.3857 152.185 11.0986C151.874 10.8115 151.435 10.668 150.866 10.668C150.38 10.668 149.908 10.7383 149.451 10.8789C148.994 11.0195 148.549 11.1924 148.115 11.3975L147.447 9.93848C147.922 9.68652 148.461 9.48145 149.064 9.32324C149.674 9.16504 150.307 9.08594 150.963 9.08594ZM152.65 14.3506L151.394 14.3945C150.362 14.4297 149.639 14.6055 149.223 14.9219C148.807 15.2383 148.599 15.6719 148.599 16.2227C148.599 16.7031 148.742 17.0547 149.029 17.2773C149.316 17.4941 149.694 17.6025 150.163 17.6025C150.878 17.6025 151.47 17.4004 151.938 16.9961C152.413 16.5859 152.65 15.9854 152.65 15.1943V14.3506ZM167.636 22.4277H165.72V19H157.59V9.27051H159.664V17.374H164.173V9.27051H166.247V17.4092H167.636V22.4277ZM171.406 9.27051V14.2363C171.406 14.3945 171.4 14.5967 171.389 14.8428C171.383 15.083 171.371 15.335 171.354 15.5986C171.336 15.8564 171.318 16.0938 171.301 16.3105C171.283 16.5273 171.269 16.6885 171.257 16.7939L176.152 9.27051H178.666V19H176.688V14.0869C176.688 13.8291 176.694 13.5303 176.706 13.1904C176.724 12.8506 176.741 12.5225 176.759 12.2061C176.782 11.8896 176.797 11.6494 176.803 11.4854L171.925 19H169.42V9.27051H171.406ZM194.609 14.1133C194.609 15.1855 194.431 16.0996 194.073 16.8555C193.722 17.6113 193.218 18.1885 192.562 18.5869C191.905 18.9795 191.12 19.1758 190.206 19.1758C189.397 19.1758 188.68 19.0117 188.053 18.6836C187.432 18.3555 186.934 17.8662 186.559 17.2158C186.184 16.5654 185.952 15.7598 185.864 14.7988H183.702V19H181.637V9.27051H183.702V13.1816H185.891C185.996 12.3086 186.236 11.5674 186.611 10.958C186.986 10.3486 187.481 9.88574 188.097 9.56934C188.718 9.24707 189.436 9.08594 190.25 9.08594C191.117 9.08594 191.876 9.28516 192.526 9.68359C193.183 10.0762 193.692 10.6475 194.056 11.3975C194.425 12.1416 194.609 13.0469 194.609 14.1133ZM187.965 14.1133C187.965 14.8398 188.041 15.4551 188.193 15.959C188.352 16.4629 188.598 16.8438 188.932 17.1016C189.266 17.3594 189.699 17.4883 190.232 17.4883C190.766 17.4883 191.196 17.3594 191.524 17.1016C191.858 16.8438 192.102 16.4658 192.254 15.9678C192.412 15.4639 192.491 14.8457 192.491 14.1133C192.491 13.3867 192.412 12.7773 192.254 12.2852C192.102 11.793 191.858 11.4209 191.524 11.1689C191.19 10.9111 190.757 10.7822 190.224 10.7822C189.696 10.7822 189.266 10.9111 188.932 11.1689C188.598 11.4209 188.352 11.793 188.193 12.2852C188.041 12.7773 187.965 13.3867 187.965 14.1133Z" fill="#CBCBCB"/>
<path d="M215.042 9.29038C214.788 9.03654 214.376 9.03654 214.122 9.29038C213.869 9.54422 213.869 9.95578 214.122 10.2096L215.042 9.29038ZM218.832 14L219.292 14.4596C219.414 14.3377 219.482 14.1724 219.482 14C219.482 13.8276 219.414 13.6623 219.292 13.5404L218.832 14ZM214.122 17.7904C213.869 18.0442 213.869 18.4558 214.122 18.7096C214.376 18.9635 214.788 18.9635 215.042 18.7096L214.122 17.7904ZM214.122 10.2096L218.372 14.4596L219.292 13.5404L215.042 9.29038L214.122 10.2096ZM218.372 13.5404L214.122 17.7904L215.042 18.7096L219.292 14.4596L218.372 13.5404Z" fill="#CBCBCB"/>
</svg>
