<svg width="193" height="25" viewBox="0 0 193 25" fill="none" xmlns="http://www.w3.org/2000/svg">
<path d="M13.2881 12.5576C13.2881 13.5479 13.1621 14.4502 12.9102 15.2646C12.6641 16.0732 12.292 16.7705 11.7939 17.3564C11.2959 17.9365 10.6719 18.3848 9.92188 18.7012C9.17188 19.0176 8.29297 19.1758 7.28516 19.1758C6.25977 19.1758 5.36914 19.0176 4.61328 18.7012C3.86328 18.3848 3.23926 17.9336 2.74121 17.3477C2.24902 16.7617 1.87988 16.0615 1.63379 15.2471C1.3877 14.4326 1.26465 13.5303 1.26465 12.54C1.26465 11.2158 1.48145 10.0615 1.91504 9.07715C2.35449 8.08691 3.01953 7.31934 3.91016 6.77441C4.80664 6.22363 5.9375 5.94824 7.30273 5.94824C8.63867 5.94824 9.74902 6.2207 10.6338 6.76562C11.5186 7.31055 12.1807 8.07812 12.6201 9.06836C13.0654 10.0527 13.2881 11.2158 13.2881 12.5576ZM3.47949 12.5576C3.47949 13.5479 3.61426 14.4062 3.88379 15.1328C4.15332 15.8535 4.56641 16.4102 5.12305 16.8027C5.68555 17.1895 6.40625 17.3828 7.28516 17.3828C8.16992 17.3828 8.89062 17.1895 9.44727 16.8027C10.0039 16.4102 10.4141 15.8535 10.6777 15.1328C10.9414 14.4062 11.0732 13.5479 11.0732 12.5576C11.0732 11.0518 10.7715 9.87402 10.168 9.02441C9.57031 8.16895 8.61523 7.74121 7.30273 7.74121C6.42383 7.74121 5.7002 7.93457 5.13184 8.32129C4.56934 8.70801 4.15332 9.26172 3.88379 9.98242C3.61426 10.6973 3.47949 11.5557 3.47949 12.5576ZM23.1846 10.8965H19.9854V19H17.9287V10.8965H14.7471V9.27051H23.1846V10.8965ZM31.0947 9.27051H33.3711L29.3457 13.9463L33.7139 19H31.332L27.1396 14.0605V19H25.0654V9.27051H27.1396V13.9902L31.0947 9.27051ZM40.2881 9.08594C41.4424 9.08594 42.3682 9.50781 43.0654 10.3516C43.7686 11.1953 44.1201 12.4492 44.1201 14.1133C44.1201 15.2148 43.9561 16.1436 43.6279 16.8994C43.3057 17.6494 42.8516 18.2178 42.2656 18.6045C41.6855 18.9854 41.0088 19.1758 40.2354 19.1758C39.7432 19.1758 39.3154 19.1113 38.9521 18.9824C38.5889 18.8535 38.2783 18.6865 38.0205 18.4814C37.7627 18.2705 37.5459 18.042 37.3701 17.7959H37.2471C37.2764 18.0303 37.3027 18.291 37.3262 18.5781C37.3555 18.8594 37.3701 19.1172 37.3701 19.3516V23.3154H35.2959V9.27051H36.9834L37.2734 10.6152H37.3701C37.5518 10.3398 37.7715 10.085 38.0293 9.85059C38.293 9.61621 38.6094 9.43164 38.9785 9.29688C39.3535 9.15625 39.79 9.08594 40.2881 9.08594ZM39.7344 10.7734C39.166 10.7734 38.709 10.8877 38.3633 11.1162C38.0234 11.3389 37.7744 11.6758 37.6162 12.127C37.4639 12.5781 37.3818 13.1436 37.3701 13.8232V14.1133C37.3701 14.834 37.4434 15.4463 37.5898 15.9502C37.7422 16.4482 37.9912 16.8291 38.3369 17.0928C38.6885 17.3506 39.1631 17.4795 39.7607 17.4795C40.2646 17.4795 40.6807 17.3418 41.0088 17.0664C41.3428 16.791 41.5918 16.3984 41.7559 15.8887C41.9199 15.3789 42.002 14.7783 42.002 14.0869C42.002 13.0381 41.8145 12.2236 41.4395 11.6436C41.0703 11.0635 40.502 10.7734 39.7344 10.7734ZM46.5107 19V9.27051H48.585V13.1553H50.5449C51.459 13.1553 52.2119 13.2607 52.8037 13.4717C53.3955 13.6768 53.835 13.9873 54.1221 14.4033C54.4092 14.8193 54.5527 15.3408 54.5527 15.9678C54.5527 16.583 54.415 17.1191 54.1396 17.5762C53.8643 18.0273 53.4336 18.3789 52.8477 18.6309C52.2617 18.877 51.4941 19 50.5449 19H46.5107ZM48.585 17.4795H50.4043C51.0254 17.4795 51.5264 17.3682 51.9072 17.1455C52.2939 16.917 52.4873 16.542 52.4873 16.0205C52.4873 15.5342 52.3086 15.1914 51.9512 14.9922C51.5996 14.7871 51.084 14.6846 50.4043 14.6846H48.585V17.4795ZM56.0557 19V9.27051H58.1299V19H56.0557ZM68.4307 10.8965H65.2314V19H63.1748V10.8965H59.9932V9.27051H68.4307V10.8965ZM72.3857 13.1553H74.8027C75.7168 13.1553 76.4727 13.2607 77.0703 13.4717C77.6738 13.6768 78.125 13.9873 78.4238 14.4033C78.7227 14.8193 78.8721 15.3408 78.8721 15.9678C78.8721 16.583 78.7314 17.1191 78.4502 17.5762C78.1689 18.0273 77.7295 18.3789 77.1318 18.6309C76.54 18.877 75.7666 19 74.8115 19H70.3115V9.27051H72.3857V13.1553ZM76.7979 16.0205C76.7979 15.5342 76.6162 15.1914 76.2529 14.9922C75.8896 14.7871 75.3711 14.6846 74.6973 14.6846H72.3857V17.4795H74.7148C75.3301 17.4795 75.8311 17.3682 76.2178 17.1455C76.6045 16.917 76.7979 16.542 76.7979 16.0205ZM87.6436 9.27051V12.7949C87.6436 13.3105 87.7783 13.6943 88.0479 13.9463C88.3174 14.1982 88.7041 14.3242 89.208 14.3242C89.7705 14.3242 90.2861 14.248 90.7549 14.0957C91.2295 13.9434 91.707 13.7383 92.1875 13.4805V9.27051H94.2529V19H92.1875V14.8867C91.7012 15.1738 91.1943 15.4141 90.667 15.6074C90.1396 15.8008 89.5215 15.8975 88.8125 15.8975C87.8047 15.8975 87.0137 15.6367 86.4395 15.1152C85.8652 14.5938 85.5781 13.8496 85.5781 12.8828V9.27051H87.6436ZM101.021 9.08594C102.251 9.08594 103.18 9.3584 103.807 9.90332C104.439 10.4482 104.756 11.2979 104.756 12.4521V19H103.288L102.893 17.6201H102.822C102.547 17.9717 102.263 18.2617 101.97 18.4902C101.677 18.7188 101.337 18.8887 100.95 19C100.569 19.1172 100.104 19.1758 99.5527 19.1758C98.9727 19.1758 98.4541 19.0703 97.9971 18.8594C97.54 18.6426 97.1797 18.3145 96.916 17.875C96.6523 17.4355 96.5205 16.8789 96.5205 16.2051C96.5205 15.2031 96.8926 14.4502 97.6367 13.9463C98.3867 13.4424 99.5176 13.1641 101.029 13.1113L102.717 13.0498V12.54C102.717 11.8662 102.559 11.3857 102.242 11.0986C101.932 10.8115 101.492 10.668 100.924 10.668C100.438 10.668 99.9658 10.7383 99.5088 10.8789C99.0518 11.0195 98.6064 11.1924 98.1729 11.3975L97.5049 9.93848C97.9795 9.68652 98.5186 9.48145 99.1221 9.32324C99.7314 9.16504 100.364 9.08594 101.021 9.08594ZM102.708 14.3506L101.451 14.3945C100.42 14.4297 99.6963 14.6055 99.2803 14.9219C98.8643 15.2383 98.6562 15.6719 98.6562 16.2227C98.6562 16.7031 98.7998 17.0547 99.0869 17.2773C99.374 17.4941 99.752 17.6025 100.221 17.6025C100.936 17.6025 101.527 17.4004 101.996 16.9961C102.471 16.5859 102.708 15.9854 102.708 15.1943V14.3506ZM114.995 10.8965H111.796V19H109.739V10.8965H106.558V9.27051H114.995V10.8965ZM116.032 15.0449V13.2959H120.567V15.0449H116.032ZM122.123 13.1641C122.123 11.752 122.278 10.5508 122.589 9.56055C122.899 8.57031 123.389 7.77637 124.057 7.17871C124.725 6.58105 125.592 6.17383 126.658 5.95703C127.35 5.79883 128.053 5.66406 128.768 5.55273C129.482 5.44141 130.197 5.33301 130.912 5.22754L131.193 7.04688C130.859 7.08789 130.502 7.1377 130.121 7.19629C129.74 7.24902 129.356 7.30469 128.97 7.36328C128.589 7.42188 128.223 7.4834 127.871 7.54785C127.525 7.60645 127.215 7.66504 126.939 7.72363C126.389 7.84082 125.923 8.03418 125.542 8.30371C125.167 8.56738 124.874 8.9541 124.663 9.46387C124.452 9.97363 124.326 10.6533 124.285 11.5029H124.399C124.558 11.2627 124.777 11.0225 125.059 10.7822C125.34 10.542 125.68 10.3428 126.078 10.1846C126.482 10.0205 126.942 9.93848 127.458 9.93848C128.267 9.93848 128.952 10.1084 129.515 10.4482C130.083 10.7881 130.514 11.2803 130.807 11.9248C131.105 12.5693 131.255 13.3457 131.255 14.2539C131.255 15.3379 131.062 16.2461 130.675 16.9785C130.294 17.7051 129.761 18.2529 129.075 18.6221C128.39 18.9912 127.59 19.1758 126.676 19.1758C125.973 19.1758 125.34 19.0439 124.777 18.7803C124.221 18.5166 123.743 18.1299 123.345 17.6201C122.952 17.1045 122.65 16.4746 122.439 15.7305C122.229 14.9805 122.123 14.125 122.123 13.1641ZM126.816 17.4795C127.285 17.4795 127.689 17.3799 128.029 17.1807C128.375 16.9814 128.642 16.6592 128.829 16.2139C129.022 15.7686 129.119 15.1797 129.119 14.4473C129.119 13.5449 128.955 12.8359 128.627 12.3203C128.305 11.7988 127.771 11.5381 127.027 11.5381C126.57 11.5381 126.151 11.6406 125.771 11.8457C125.39 12.0508 125.067 12.291 124.804 12.5664C124.54 12.8359 124.353 13.0732 124.241 13.2783C124.241 13.8115 124.279 14.3271 124.355 14.8252C124.438 15.3232 124.572 15.7744 124.76 16.1787C124.953 16.5771 125.217 16.8936 125.551 17.1279C125.885 17.3623 126.307 17.4795 126.816 17.4795ZM142.241 14.1133C142.241 14.9219 142.136 15.6396 141.925 16.2666C141.714 16.8936 141.406 17.4238 141.002 17.8574C140.598 18.2852 140.111 18.6133 139.543 18.8418C138.975 19.0645 138.333 19.1758 137.618 19.1758C136.95 19.1758 136.338 19.0645 135.781 18.8418C135.225 18.6133 134.741 18.2852 134.331 17.8574C133.927 17.4238 133.613 16.8936 133.391 16.2666C133.168 15.6396 133.057 14.9219 133.057 14.1133C133.057 13.041 133.241 12.1328 133.61 11.3887C133.985 10.6387 134.519 10.0674 135.21 9.6748C135.901 9.28223 136.725 9.08594 137.68 9.08594C138.576 9.08594 139.367 9.28223 140.053 9.6748C140.738 10.0674 141.274 10.6387 141.661 11.3887C142.048 12.1387 142.241 13.0469 142.241 14.1133ZM135.184 14.1133C135.184 14.8223 135.269 15.4287 135.438 15.9326C135.614 16.4365 135.884 16.8232 136.247 17.0928C136.61 17.3564 137.079 17.4883 137.653 17.4883C138.228 17.4883 138.696 17.3564 139.06 17.0928C139.423 16.8232 139.689 16.4365 139.859 15.9326C140.029 15.4287 140.114 14.8223 140.114 14.1133C140.114 13.4043 140.029 12.8037 139.859 12.3115C139.689 11.8135 139.423 11.4355 139.06 11.1777C138.696 10.9141 138.225 10.7822 137.645 10.7822C136.789 10.7822 136.165 11.0693 135.772 11.6436C135.38 12.2178 135.184 13.041 135.184 14.1133ZM151.962 10.8965H148.763V19H146.706V10.8965H143.524V9.27051H151.962V10.8965ZM157.657 9.08594C158.888 9.08594 159.816 9.3584 160.443 9.90332C161.076 10.4482 161.393 11.2979 161.393 12.4521V19H159.925L159.529 17.6201H159.459C159.184 17.9717 158.899 18.2617 158.606 18.4902C158.313 18.7188 157.974 18.8887 157.587 19C157.206 19.1172 156.74 19.1758 156.189 19.1758C155.609 19.1758 155.091 19.0703 154.634 18.8594C154.177 18.6426 153.816 18.3145 153.553 17.875C153.289 17.4355 153.157 16.8789 153.157 16.2051C153.157 15.2031 153.529 14.4502 154.273 13.9463C155.023 13.4424 156.154 13.1641 157.666 13.1113L159.354 13.0498V12.54C159.354 11.8662 159.195 11.3857 158.879 11.0986C158.568 10.8115 158.129 10.668 157.561 10.668C157.074 10.668 156.603 10.7383 156.146 10.8789C155.688 11.0195 155.243 11.1924 154.81 11.3975L154.142 9.93848C154.616 9.68652 155.155 9.48145 155.759 9.32324C156.368 9.16504 157.001 9.08594 157.657 9.08594ZM159.345 14.3506L158.088 14.3945C157.057 14.4297 156.333 14.6055 155.917 14.9219C155.501 15.2383 155.293 15.6719 155.293 16.2227C155.293 16.7031 155.437 17.0547 155.724 17.2773C156.011 17.4941 156.389 17.6025 156.857 17.6025C157.572 17.6025 158.164 17.4004 158.633 16.9961C159.107 16.5859 159.345 15.9854 159.345 15.1943V14.3506Z" fill="#CBCBCB"/>
<path d="M182.042 9.29038C181.788 9.03654 181.376 9.03654 181.122 9.29038C180.869 9.54422 180.869 9.95578 181.122 10.2096L182.042 9.29038ZM185.832 14L186.292 14.4596C186.414 14.3377 186.482 14.1724 186.482 14C186.482 13.8276 186.414 13.6623 186.292 13.5404L185.832 14ZM181.122 17.7904C180.869 18.0442 180.869 18.4558 181.122 18.7096C181.376 18.9635 181.788 18.9635 182.042 18.7096L181.122 17.7904ZM181.122 10.2096L185.372 14.4596L186.292 13.5404L182.042 9.29038L181.122 10.2096ZM185.372 13.5404L181.122 17.7904L182.042 18.7096L186.292 14.4596L185.372 13.5404Z" fill="#CBCBCB"/>
</svg>
