<svg width="73" height="18" viewBox="0 0 73 18" fill="none" xmlns="http://www.w3.org/2000/svg">
<circle opacity="0.8" cx="4.43464" cy="9.46686" r="4.26667" fill="#7DFF72"/>
<path d="M29.3068 10.0038C29.3068 10.7666 29.2097 11.4618 29.0156 12.0892C28.8215 12.7121 28.5326 13.2493 28.149 13.7007C27.7698 14.1475 27.2981 14.4928 26.7339 14.7366C26.1696 14.9803 25.5151 15.1022 24.7703 15.1022C24.003 15.1022 23.3326 14.9803 22.7594 14.7366C22.1906 14.4928 21.7167 14.1453 21.3375 13.6939C20.9628 13.2425 20.6807 12.7031 20.4911 12.0757C20.3061 11.4482 20.2135 10.7531 20.2135 9.99023C20.2135 8.97912 20.3806 8.09214 20.7146 7.3293C21.0486 6.56645 21.5542 5.97287 22.2313 5.54857C22.9128 5.12426 23.766 4.91211 24.7906 4.91211C25.7701 4.91211 26.5939 5.122 27.262 5.5418C27.9345 5.96159 28.4424 6.55291 28.7854 7.31575C29.133 8.07409 29.3068 8.9701 29.3068 10.0038ZM21.4255 10.0038C21.4255 10.8434 21.5451 11.5701 21.7844 12.184C22.0236 12.7979 22.3892 13.2718 22.8813 13.6059C23.3778 13.9399 24.0075 14.1069 24.7703 14.1069C25.5377 14.1069 26.1651 13.9399 26.6526 13.6059C27.1446 13.2718 27.508 12.7979 27.7427 12.184C27.9774 11.5701 28.0948 10.8434 28.0948 10.0038C28.0948 8.72634 27.8262 7.72878 27.2891 7.01107C26.7564 6.28884 25.9236 5.92773 24.7906 5.92773C24.0233 5.92773 23.3913 6.09249 22.8948 6.422C22.3983 6.75152 22.0281 7.22096 21.7844 7.83034C21.5451 8.4352 21.4255 9.15968 21.4255 10.0038ZM32.4755 7.54596V10.6605H36.6125V7.54596H37.7365V14.9668H36.6125V11.6152H32.4755V14.9668H31.3448V7.54596H32.4755ZM45.6854 14.9668H44.5411V8.48711H42.2865C42.1962 9.65621 42.0811 10.6583 41.9411 11.4934C41.8057 12.3239 41.6342 13.0033 41.4266 13.5314C41.2234 14.055 40.9752 14.4409 40.6818 14.6892C40.3929 14.9329 40.0476 15.0548 39.6458 15.0548C39.524 15.0548 39.4089 15.048 39.3005 15.0345C39.1922 15.021 39.0997 14.9984 39.0229 14.9668V14.1137C39.0816 14.1317 39.1425 14.1453 39.2057 14.1543C39.2734 14.1633 39.3434 14.1678 39.4156 14.1678C39.6188 14.1678 39.8038 14.0843 39.9708 13.9173C40.1424 13.7458 40.2958 13.4885 40.4313 13.1454C40.5712 12.8024 40.6953 12.3691 40.8036 11.8454C40.912 11.3173 41.0068 10.6967 41.088 9.98346C41.1738 9.26575 41.2483 8.45325 41.3115 7.54596H45.6854V14.9668ZM50.8313 7.42409C51.716 7.42409 52.3727 7.6227 52.8016 8.01992C53.2304 8.41714 53.4448 9.05135 53.4448 9.92253V14.9668H52.6255L52.4089 13.8699H52.3547C52.1471 14.1408 51.9304 14.3687 51.7047 14.5538C51.479 14.7343 51.2172 14.872 50.9193 14.9668C50.6259 15.0571 50.2648 15.1022 49.8359 15.1022C49.3846 15.1022 48.9828 15.0232 48.6307 14.8652C48.2832 14.7072 48.0078 14.468 47.8047 14.1475C47.6061 13.827 47.5068 13.4208 47.5068 12.9288C47.5068 12.1885 47.8002 11.6197 48.387 11.2225C48.9738 10.8253 49.8675 10.6086 51.0682 10.5725L52.3479 10.5184V10.0647C52.3479 9.42374 52.2102 8.97461 51.9349 8.71732C51.6596 8.46003 51.2714 8.33138 50.7703 8.33138C50.3821 8.33138 50.012 8.3878 49.6599 8.50065C49.3078 8.6135 48.9738 8.74666 48.6578 8.90013L48.3125 8.047C48.6465 7.87548 49.0302 7.72878 49.4635 7.6069C49.8969 7.48503 50.3528 7.42409 50.8313 7.42409ZM52.3344 11.3105L51.2036 11.3579C50.2783 11.3941 49.626 11.5453 49.2469 11.8116C48.8677 12.0779 48.6781 12.4548 48.6781 12.9423C48.6781 13.3666 48.8068 13.6803 49.0641 13.8835C49.3214 14.0866 49.6622 14.1882 50.0865 14.1882C50.7455 14.1882 51.2849 14.0053 51.7047 13.6397C52.1245 13.2741 52.3344 12.7257 52.3344 11.9944V11.3105ZM56.8302 7.54596V12.2111C56.8302 12.3013 56.828 12.4187 56.8234 12.5632C56.8189 12.7031 56.8122 12.8543 56.8031 13.0168C56.7941 13.1748 56.7851 13.3283 56.776 13.4772C56.7715 13.6217 56.7648 13.7413 56.7557 13.8361L60.8047 7.54596H62.1859V14.9668H61.1365V10.4168C61.1365 10.2724 61.1387 10.0873 61.1432 9.86159C61.1477 9.63589 61.1545 9.41471 61.1635 9.19805C61.1726 8.97687 61.1793 8.80534 61.1839 8.68346L57.1484 14.9668H55.7604V7.54596H56.8302ZM61.6307 4.49232C61.5901 4.94822 61.475 5.32964 61.2854 5.63659C61.1004 5.94353 60.8273 6.176 60.4661 6.33398C60.105 6.48746 59.6424 6.56419 59.0781 6.56419C58.4958 6.56419 58.0264 6.48971 57.6698 6.34075C57.3177 6.18728 57.0559 5.95707 56.8844 5.65013C56.7174 5.34319 56.6181 4.95725 56.5865 4.49232H57.6427C57.6924 4.98884 57.8255 5.32739 58.0422 5.50794C58.2589 5.6885 58.6109 5.77878 59.0984 5.77878C59.5318 5.77878 59.8726 5.68398 60.1208 5.4944C60.3691 5.30482 60.5181 4.97079 60.5677 4.49232H61.6307ZM65.7068 7.54596V10.6605H69.8438V7.54596H70.9677V14.9668H69.8438V11.6152H65.7068V14.9668H64.576V7.54596H65.7068Z" fill="#969696"/>
</svg>
