<svg width="32" height="39" viewBox="0 0 32 39" fill="none" xmlns="http://www.w3.org/2000/svg">
<path d="M16.0879 22.0474H15.5938C15.5413 21.1938 15.3691 20.1606 15.0771 18.9478L14.4932 16.4995C14.1413 15.0321 13.9653 13.9801 13.9653 13.3438C13.9653 12.7673 14.1375 12.3031 14.4819 11.9512C14.8263 11.5993 15.2756 11.4233 15.8296 11.4233C16.3687 11.4233 16.8141 11.603 17.166 11.9624C17.5254 12.3143 17.7051 12.7635 17.7051 13.3101C17.7051 13.8791 17.5179 14.9422 17.1436 16.4995L16.5483 18.9478C16.3387 19.8162 16.1852 20.8494 16.0879 22.0474ZM15.8521 23.6533C16.3537 23.6533 16.7804 23.833 17.1323 24.1924C17.4917 24.5443 17.6714 24.9748 17.6714 25.4839C17.6714 25.9855 17.4917 26.416 17.1323 26.7754C16.7804 27.1273 16.3537 27.3032 15.8521 27.3032C15.3504 27.3032 14.9199 27.1273 14.5605 26.7754C14.2087 26.416 14.0327 25.9855 14.0327 25.4839C14.0327 24.9823 14.2087 24.5518 14.5605 24.1924C14.9124 23.833 15.3429 23.6533 15.8521 23.6533Z" fill="#CBCBCB"/>
<circle cx="16" cy="19" r="15.25" stroke="#CBCBCB" stroke-width="1.5"/>
</svg>
