<svg width="90" height="40" viewBox="0 0 96 25" fill="none" xmlns="http://www.w3.org/2000/svg">
<path d="M11.8213 19H9.7207V13.1992H3.79688V19H1.6875V6.15039H3.79688V11.4062H9.7207V6.15039H11.8213V19ZM18.8262 9.08594C20.0566 9.08594 20.9854 9.3584 21.6123 9.90332C22.2451 10.4482 22.5615 11.2979 22.5615 12.4521V19H21.0938L20.6982 17.6201H20.6279C20.3525 17.9717 20.0684 18.2617 19.7754 18.4902C19.4824 18.7188 19.1426 18.8887 18.7559 19C18.375 19.1172 17.9092 19.1758 17.3584 19.1758C16.7783 19.1758 16.2598 19.0703 15.8027 18.8594C15.3457 18.6426 14.9854 18.3145 14.7217 17.875C14.458 17.4355 14.3262 16.8789 14.3262 16.2051C14.3262 15.2031 14.6982 14.4502 15.4424 13.9463C16.1924 13.4424 17.3232 13.1641 18.835 13.1113L20.5225 13.0498V12.54C20.5225 11.8662 20.3643 11.3857 20.0479 11.0986C19.7373 10.8115 19.2979 10.668 18.7295 10.668C18.2432 10.668 17.7715 10.7383 17.3145 10.8789C16.8574 11.0195 16.4121 11.1924 15.9785 11.3975L15.3105 9.93848C15.7852 9.68652 16.3242 9.48145 16.9277 9.32324C17.5371 9.16504 18.1699 9.08594 18.8262 9.08594ZM20.5137 14.3506L19.2568 14.3945C18.2256 14.4297 17.502 14.6055 17.0859 14.9219C16.6699 15.2383 16.4619 15.6719 16.4619 16.2227C16.4619 16.7031 16.6055 17.0547 16.8926 17.2773C17.1797 17.4941 17.5576 17.6025 18.0264 17.6025C18.7412 17.6025 19.333 17.4004 19.8018 16.9961C20.2764 16.5859 20.5137 15.9854 20.5137 15.1943V14.3506ZM27.2637 9.27051V12.7949C27.2637 13.3105 27.3984 13.6943 27.668 13.9463C27.9375 14.1982 28.3242 14.3242 28.8281 14.3242C29.3906 14.3242 29.9062 14.248 30.375 14.0957C30.8496 13.9434 31.3271 13.7383 31.8076 13.4805V9.27051H33.873V19H31.8076V14.8867C31.3213 15.1738 30.8145 15.4141 30.2871 15.6074C29.7598 15.8008 29.1416 15.8975 28.4326 15.8975C27.4248 15.8975 26.6338 15.6367 26.0596 15.1152C25.4854 14.5938 25.1982 13.8496 25.1982 12.8828V9.27051H27.2637ZM40.6406 9.08594C41.8711 9.08594 42.7998 9.3584 43.4268 9.90332C44.0596 10.4482 44.376 11.2979 44.376 12.4521V19H42.9082L42.5127 17.6201H42.4424C42.167 17.9717 41.8828 18.2617 41.5898 18.4902C41.2969 18.7188 40.957 18.8887 40.5703 19C40.1895 19.1172 39.7236 19.1758 39.1729 19.1758C38.5928 19.1758 38.0742 19.0703 37.6172 18.8594C37.1602 18.6426 36.7998 18.3145 36.5361 17.875C36.2725 17.4355 36.1406 16.8789 36.1406 16.2051C36.1406 15.2031 36.5127 14.4502 37.2568 13.9463C38.0068 13.4424 39.1377 13.1641 40.6494 13.1113L42.3369 13.0498V12.54C42.3369 11.8662 42.1787 11.3857 41.8623 11.0986C41.5518 10.8115 41.1123 10.668 40.5439 10.668C40.0576 10.668 39.5859 10.7383 39.1289 10.8789C38.6719 11.0195 38.2266 11.1924 37.793 11.3975L37.125 9.93848C37.5996 9.68652 38.1387 9.48145 38.7422 9.32324C39.3516 9.16504 39.9844 9.08594 40.6406 9.08594ZM42.3281 14.3506L41.0713 14.3945C40.04 14.4297 39.3164 14.6055 38.9004 14.9219C38.4844 15.2383 38.2764 15.6719 38.2764 16.2227C38.2764 16.7031 38.4199 17.0547 38.707 17.2773C38.9941 17.4941 39.3721 17.6025 39.8408 17.6025C40.5557 17.6025 41.1475 17.4004 41.6162 16.9961C42.0908 16.5859 42.3281 15.9854 42.3281 15.1943V14.3506ZM54.6152 10.8965H51.416V19H49.3594V10.8965H46.1777V9.27051H54.6152V10.8965ZM58.5703 13.1553H60.9873C61.9014 13.1553 62.6572 13.2607 63.2549 13.4717C63.8584 13.6768 64.3096 13.9873 64.6084 14.4033C64.9072 14.8193 65.0566 15.3408 65.0566 15.9678C65.0566 16.583 64.916 17.1191 64.6348 17.5762C64.3535 18.0273 63.9141 18.3789 63.3164 18.6309C62.7246 18.877 61.9512 19 60.9961 19H56.4961V9.27051H58.5703V13.1553ZM62.9824 16.0205C62.9824 15.5342 62.8008 15.1914 62.4375 14.9922C62.0742 14.7871 61.5557 14.6846 60.8818 14.6846H58.5703V17.4795H60.8994C61.5146 17.4795 62.0156 17.3682 62.4023 17.1455C62.7891 16.917 62.9824 16.542 62.9824 16.0205Z" fill="#FF9254"/>
<path d="M85.0436 8.29038C84.7898 8.03654 84.3782 8.03654 84.1244 8.29038C83.8705 8.54422 83.8705 8.95578 84.1244 9.20962L85.0436 8.29038ZM88.834 13L89.2936 13.4596C89.4155 13.3377 89.484 13.1724 89.484 13C89.484 12.8276 89.4155 12.6623 89.2936 12.5404L88.834 13ZM84.1244 16.7904C83.8705 17.0442 83.8705 17.4558 84.1244 17.7096C84.3782 17.9635 84.7898 17.9635 85.0436 17.7096L84.1244 16.7904ZM84.1244 9.20962L88.3744 13.4596L89.2936 12.5404L85.0436 8.29038L84.1244 9.20962ZM88.3744 12.5404L84.1244 16.7904L85.0436 17.7096L89.2936 13.4596L88.3744 12.5404Z" fill="#FF9254"/>
</svg>
