<svg width="34" height="34" viewBox="0 0 34 34" fill="none" xmlns="http://www.w3.org/2000/svg">
<path d="M17 29.75C24.0416 29.75 29.75 24.0416 29.75 17C29.75 9.95837 24.0416 4.25 17 4.25C9.95837 4.25 4.25 9.95837 4.25 17C4.25 24.0416 9.95837 29.75 17 29.75Z" stroke="white" stroke-width="1.30543" stroke-linecap="round" stroke-linejoin="round"/>
<path d="M24.3898 27.3873C22.5741 25.3594 19.9359 24.0833 16.9996 24.0833C14.0633 24.0833 11.4251 25.3594 9.60938 27.3873" stroke="white" stroke-width="1.30543" stroke-linecap="round" stroke-linejoin="round"/>
<path d="M17 19.8335C19.3472 19.8335 21.25 17.9307 21.25 15.5835C21.25 13.2363 19.3472 11.3335 17 11.3335C14.6528 11.3335 12.75 13.2363 12.75 15.5835C12.75 17.9307 14.6528 19.8335 17 19.8335Z" stroke="white" stroke-width="1.30543" stroke-linecap="round" stroke-linejoin="round"/>
</svg>
