<svg width="36" height="39" viewBox="0 0 36 39" fill="none" xmlns="http://www.w3.org/2000/svg">
<g filter="url(#filter0_d_177_3604)">
<path d="M18 29.75C25.0416 29.75 30.75 24.0416 30.75 17C30.75 9.95837 25.0416 4.25 18 4.25C10.9584 4.25 5.25 9.95837 5.25 17C5.25 24.0416 10.9584 29.75 18 29.75Z" stroke="#626262" stroke-width="1.30543" stroke-linecap="round" stroke-linejoin="round"/>
<path d="M25.3898 27.3873C23.5741 25.3594 20.9359 24.0833 17.9996 24.0833C15.0633 24.0833 12.4251 25.3594 10.6094 27.3873" stroke="#626262" stroke-width="1.30543" stroke-linecap="round" stroke-linejoin="round"/>
<path d="M18 19.8335C20.3472 19.8335 22.25 17.9307 22.25 15.5835C22.25 13.2363 20.3472 11.3335 18 11.3335C15.6528 11.3335 13.75 13.2363 13.75 15.5835C13.75 17.9307 15.6528 19.8335 18 19.8335Z" stroke="#626262" stroke-width="1.30543" stroke-linecap="round" stroke-linejoin="round"/>
</g>
<defs>
<filter id="filter0_d_177_3604" x="-3" y="0" width="42" height="42" filterUnits="userSpaceOnUse" color-interpolation-filters="sRGB">
<feFlood flood-opacity="0" result="BackgroundImageFix"/>
<feColorMatrix in="SourceAlpha" type="matrix" values="0 0 0 0 0 0 0 0 0 0 0 0 0 0 0 0 0 0 127 0" result="hardAlpha"/>
<feOffset dy="4"/>
<feGaussianBlur stdDeviation="2"/>
<feComposite in2="hardAlpha" operator="out"/>
<feColorMatrix type="matrix" values="0 0 0 0 0 0 0 0 0 0 0 0 0 0 0 0 0 0 0.25 0"/>
<feBlend mode="normal" in2="BackgroundImageFix" result="effect1_dropShadow_177_3604"/>
<feBlend mode="normal" in="SourceGraphic" in2="effect1_dropShadow_177_3604" result="shape"/>
</filter>
</defs>
</svg>
