<svg width="30" height="30" viewBox="0 0 30 30" fill="none" xmlns="http://www.w3.org/2000/svg">
<path d="M14.875 26.75C21.4334 26.75 26.75 21.4334 26.75 14.875C26.75 8.31662 21.4334 3 14.875 3C8.31662 3 3 8.31662 3 14.875C3 21.4334 8.31662 26.75 14.875 26.75Z" stroke="#969696" stroke-width="1.21584" stroke-linecap="round" stroke-linejoin="round"/>
<path d="M21.7661 24.549C20.075 22.6602 17.6178 21.4717 14.8831 21.4717C12.1483 21.4717 9.69116 22.6602 8 24.549" stroke="#969696" stroke-width="1.21584" stroke-linecap="round" stroke-linejoin="round"/>
<path d="M14.9583 17.5143C17.1445 17.5143 18.9167 15.7421 18.9167 13.556C18.9167 11.3699 17.1445 9.59766 14.9583 9.59766C12.7722 9.59766 11 11.3699 11 13.556C11 15.7421 12.7722 17.5143 14.9583 17.5143Z" stroke="#969696" stroke-width="1.21584" stroke-linecap="round" stroke-linejoin="round"/>
</svg>
