<svg width="51" height="52" viewBox="0 0 51 52" fill="none" xmlns="http://www.w3.org/2000/svg">
<path d="M17.8839 25.1161C17.3957 24.628 16.6043 24.628 16.1161 25.1161C15.628 25.6043 15.628 26.3957 16.1161 26.8839L17.8839 25.1161ZM23.375 32.375L22.4911 33.2589C22.7395 33.5072 23.0808 33.6396 23.4316 33.6237C23.7825 33.6078 24.1104 33.445 24.3353 33.1752L23.375 32.375ZM34.9603 20.4252C35.4022 19.8949 35.3306 19.1067 34.8002 18.6647C34.2699 18.2228 33.4817 18.2944 33.0397 18.8248L34.9603 20.4252ZM16.1161 26.8839L22.4911 33.2589L24.2589 31.4911L17.8839 25.1161L16.1161 26.8839ZM24.3353 33.1752L34.9603 20.4252L33.0397 18.8248L22.4147 31.5748L24.3353 33.1752Z" fill="#FF9254"/>
<path d="M40.375 9H10.625C9.45139 9 8.5 9.95139 8.5 11.125V40.875C8.5 42.0486 9.45139 43 10.625 43H40.375C41.5486 43 42.5 42.0486 42.5 40.875V11.125C42.5 9.95139 41.5486 9 40.375 9Z" stroke="#FF9254" stroke-width="2.5" stroke-linecap="round" stroke-linejoin="round"/>
</svg>
