<svg width="378" height="50" viewBox="0 0 378 50" fill="none" xmlns="http://www.w3.org/2000/svg">
<path d="M76.1006 19H74V13.8496C73.2793 14.1016 72.6084 14.3008 71.9873 14.4473C71.3662 14.5879 70.707 14.6582 70.0098 14.6582C68.8027 14.6582 67.8682 14.374 67.2061 13.8057C66.5439 13.2314 66.2129 12.4141 66.2129 11.3535V6.15039H68.3223V10.8613C68.3223 11.5234 68.4863 12.0244 68.8145 12.3643C69.1484 12.6982 69.7021 12.8652 70.4756 12.8652C71.085 12.8652 71.6592 12.8066 72.1982 12.6895C72.7373 12.5664 73.3379 12.3906 74 12.1621V6.15039H76.1006V19ZM86.6211 10.8965H83.4219V19H81.3652V10.8965H78.1836V9.27051H86.6211V10.8965ZM97.1152 14.1133C97.1152 14.9219 97.0098 15.6396 96.7988 16.2666C96.5879 16.8936 96.2803 17.4238 95.876 17.8574C95.4717 18.2852 94.9854 18.6133 94.417 18.8418C93.8486 19.0645 93.207 19.1758 92.4922 19.1758C91.8242 19.1758 91.2119 19.0645 90.6553 18.8418C90.0986 18.6133 89.6152 18.2852 89.2051 17.8574C88.8008 17.4238 88.4873 16.8936 88.2646 16.2666C88.042 15.6396 87.9307 14.9219 87.9307 14.1133C87.9307 13.041 88.1152 12.1328 88.4844 11.3887C88.8594 10.6387 89.3926 10.0674 90.084 9.6748C90.7754 9.28223 91.5986 9.08594 92.5537 9.08594C93.4502 9.08594 94.2412 9.28223 94.9268 9.6748C95.6123 10.0674 96.1484 10.6387 96.5352 11.3887C96.9219 12.1387 97.1152 13.0469 97.1152 14.1133ZM90.0576 14.1133C90.0576 14.8223 90.1426 15.4287 90.3125 15.9326C90.4883 16.4365 90.7578 16.8232 91.1211 17.0928C91.4844 17.3564 91.9531 17.4883 92.5273 17.4883C93.1016 17.4883 93.5703 17.3564 93.9336 17.0928C94.2969 16.8232 94.5635 16.4365 94.7334 15.9326C94.9033 15.4287 94.9883 14.8223 94.9883 14.1133C94.9883 13.4043 94.9033 12.8037 94.7334 12.3115C94.5635 11.8135 94.2969 11.4355 93.9336 11.1777C93.5703 10.9141 93.0986 10.7822 92.5186 10.7822C91.6631 10.7822 91.0391 11.0693 90.6465 11.6436C90.2539 12.2178 90.0576 13.041 90.0576 14.1133ZM98.9346 13.1641C98.9346 11.752 99.0898 10.5508 99.4004 9.56055C99.7109 8.57031 100.2 7.77637 100.868 7.17871C101.536 6.58105 102.403 6.17383 103.47 5.95703C104.161 5.79883 104.864 5.66406 105.579 5.55273C106.294 5.44141 107.009 5.33301 107.724 5.22754L108.005 7.04688C107.671 7.08789 107.313 7.1377 106.933 7.19629C106.552 7.24902 106.168 7.30469 105.781 7.36328C105.4 7.42188 105.034 7.4834 104.683 7.54785C104.337 7.60645 104.026 7.66504 103.751 7.72363C103.2 7.84082 102.734 8.03418 102.354 8.30371C101.979 8.56738 101.686 8.9541 101.475 9.46387C101.264 9.97363 101.138 10.6533 101.097 11.5029H101.211C101.369 11.2627 101.589 11.0225 101.87 10.7822C102.151 10.542 102.491 10.3428 102.89 10.1846C103.294 10.0205 103.754 9.93848 104.27 9.93848C105.078 9.93848 105.764 10.1084 106.326 10.4482C106.895 10.7881 107.325 11.2803 107.618 11.9248C107.917 12.5693 108.066 13.3457 108.066 14.2539C108.066 15.3379 107.873 16.2461 107.486 16.9785C107.105 17.7051 106.572 18.2529 105.887 18.6221C105.201 18.9912 104.401 19.1758 103.487 19.1758C102.784 19.1758 102.151 19.0439 101.589 18.7803C101.032 18.5166 100.555 18.1299 100.156 17.6201C99.7637 17.1045 99.4619 16.4746 99.251 15.7305C99.04 14.9805 98.9346 14.125 98.9346 13.1641ZM103.628 17.4795C104.097 17.4795 104.501 17.3799 104.841 17.1807C105.187 16.9814 105.453 16.6592 105.641 16.2139C105.834 15.7686 105.931 15.1797 105.931 14.4473C105.931 13.5449 105.767 12.8359 105.438 12.3203C105.116 11.7988 104.583 11.5381 103.839 11.5381C103.382 11.5381 102.963 11.6406 102.582 11.8457C102.201 12.0508 101.879 12.291 101.615 12.5664C101.352 12.8359 101.164 13.0732 101.053 13.2783C101.053 13.8115 101.091 14.3271 101.167 14.8252C101.249 15.3232 101.384 15.7744 101.571 16.1787C101.765 16.5771 102.028 16.8936 102.362 17.1279C102.696 17.3623 103.118 17.4795 103.628 17.4795ZM110.439 19V9.27051H112.514V13.1553H114.474C115.388 13.1553 116.141 13.2607 116.732 13.4717C117.324 13.6768 117.764 13.9873 118.051 14.4033C118.338 14.8193 118.481 15.3408 118.481 15.9678C118.481 16.583 118.344 17.1191 118.068 17.5762C117.793 18.0273 117.362 18.3789 116.776 18.6309C116.19 18.877 115.423 19 114.474 19H110.439ZM112.514 17.4795H114.333C114.954 17.4795 115.455 17.3682 115.836 17.1455C116.223 16.917 116.416 16.542 116.416 16.0205C116.416 15.5342 116.237 15.1914 115.88 14.9922C115.528 14.7871 115.013 14.6846 114.333 14.6846H112.514V17.4795ZM119.984 19V9.27051H122.059V19H119.984ZM137.87 11.7666C137.87 12.3291 137.697 12.7891 137.352 13.1465C137.012 13.498 136.543 13.7295 135.945 13.8408V13.9111C136.584 13.9932 137.117 14.2188 137.545 14.5879C137.973 14.957 138.187 15.4697 138.187 16.126C138.187 16.6826 138.046 17.1777 137.765 17.6113C137.489 18.0391 137.05 18.3789 136.446 18.6309C135.849 18.877 135.066 19 134.1 19H129.688V9.27051H134.082C134.809 9.27051 135.456 9.34961 136.024 9.50781C136.599 9.66602 137.05 9.92676 137.378 10.29C137.706 10.6533 137.87 11.1455 137.87 11.7666ZM136.033 16.0557C136.033 15.5752 135.849 15.2295 135.479 15.0186C135.116 14.8076 134.583 14.7021 133.88 14.7021H131.762V17.4795H133.924C134.58 17.4795 135.096 17.3711 135.471 17.1543C135.846 16.9316 136.033 16.5654 136.033 16.0557ZM135.77 11.9512C135.77 11.5703 135.626 11.2891 135.339 11.1074C135.052 10.9199 134.601 10.8262 133.985 10.8262H131.762V13.1816H133.704C134.384 13.1816 134.896 13.085 135.242 12.8916C135.594 12.6924 135.77 12.3789 135.77 11.9512ZM144.33 9.08594C145.561 9.08594 146.489 9.3584 147.116 9.90332C147.749 10.4482 148.065 11.2979 148.065 12.4521V19H146.598L146.202 17.6201H146.132C145.856 17.9717 145.572 18.2617 145.279 18.4902C144.986 18.7188 144.646 18.8887 144.26 19C143.879 19.1172 143.413 19.1758 142.862 19.1758C142.282 19.1758 141.764 19.0703 141.307 18.8594C140.85 18.6426 140.489 18.3145 140.226 17.875C139.962 17.4355 139.83 16.8789 139.83 16.2051C139.83 15.2031 140.202 14.4502 140.946 13.9463C141.696 13.4424 142.827 13.1641 144.339 13.1113L146.026 13.0498V12.54C146.026 11.8662 145.868 11.3857 145.552 11.0986C145.241 10.8115 144.802 10.668 144.233 10.668C143.747 10.668 143.275 10.7383 142.818 10.8789C142.361 11.0195 141.916 11.1924 141.482 11.3975L140.814 9.93848C141.289 9.68652 141.828 9.48145 142.432 9.32324C143.041 9.16504 143.674 9.08594 144.33 9.08594ZM146.018 14.3506L144.761 14.3945C143.729 14.4297 143.006 14.6055 142.59 14.9219C142.174 15.2383 141.966 15.6719 141.966 16.2227C141.966 16.7031 142.109 17.0547 142.396 17.2773C142.684 17.4941 143.062 17.6025 143.53 17.6025C144.245 17.6025 144.837 17.4004 145.306 16.9961C145.78 16.5859 146.018 15.9854 146.018 15.1943V14.3506ZM164.729 9.27051V19H150.957V9.27051H153.022V17.374H156.802V9.27051H158.876V17.374H162.664V9.27051H164.729ZM177.359 9.08594C178.514 9.08594 179.439 9.50781 180.137 10.3516C180.84 11.1953 181.191 12.4492 181.191 14.1133C181.191 15.2148 181.027 16.1436 180.699 16.8994C180.377 17.6494 179.923 18.2178 179.337 18.6045C178.757 18.9854 178.08 19.1758 177.307 19.1758C176.814 19.1758 176.387 19.1113 176.023 18.9824C175.66 18.8535 175.35 18.6865 175.092 18.4814C174.834 18.2705 174.617 18.042 174.441 17.7959H174.318C174.348 18.0303 174.374 18.291 174.397 18.5781C174.427 18.8594 174.441 19.1172 174.441 19.3516V23.3154H172.367V9.27051H174.055L174.345 10.6152H174.441C174.623 10.3398 174.843 10.085 175.101 9.85059C175.364 9.61621 175.681 9.43164 176.05 9.29688C176.425 9.15625 176.861 9.08594 177.359 9.08594ZM176.806 10.7734C176.237 10.7734 175.78 10.8877 175.435 11.1162C175.095 11.3389 174.846 11.6758 174.688 12.127C174.535 12.5781 174.453 13.1436 174.441 13.8232V14.1133C174.441 14.834 174.515 15.4463 174.661 15.9502C174.813 16.4482 175.062 16.8291 175.408 17.0928C175.76 17.3506 176.234 17.4795 176.832 17.4795C177.336 17.4795 177.752 17.3418 178.08 17.0664C178.414 16.791 178.663 16.3984 178.827 15.8887C178.991 15.3789 179.073 14.7783 179.073 14.0869C179.073 13.0381 178.886 12.2236 178.511 11.6436C178.142 11.0635 177.573 10.7734 176.806 10.7734ZM187.458 9.08594C188.325 9.08594 189.069 9.26465 189.69 9.62207C190.312 9.97949 190.789 10.4863 191.123 11.1426C191.457 11.7988 191.624 12.584 191.624 13.498V14.6055H185.129C185.152 15.5488 185.404 16.2754 185.885 16.7852C186.371 17.2949 187.051 17.5498 187.924 17.5498C188.545 17.5498 189.102 17.4912 189.594 17.374C190.092 17.251 190.604 17.0723 191.132 16.8379V18.5166C190.646 18.7451 190.15 18.9121 189.646 19.0176C189.143 19.123 188.539 19.1758 187.836 19.1758C186.881 19.1758 186.04 18.9912 185.313 18.6221C184.593 18.2471 184.027 17.6904 183.617 16.9521C183.213 16.2139 183.011 15.2969 183.011 14.2012C183.011 13.1113 183.195 12.1855 183.564 11.4238C183.934 10.6621 184.452 10.082 185.12 9.68359C185.788 9.28516 186.567 9.08594 187.458 9.08594ZM187.458 10.6416C186.808 10.6416 186.28 10.8525 185.876 11.2744C185.478 11.6963 185.243 12.3145 185.173 13.1289H189.603C189.597 12.6426 189.515 12.2119 189.356 11.8369C189.204 11.4619 188.97 11.1689 188.653 10.958C188.343 10.7471 187.944 10.6416 187.458 10.6416ZM196.977 9.08594C197.691 9.08594 198.333 9.18262 198.901 9.37598C199.476 9.56348 199.93 9.84766 200.264 10.2285C200.598 10.6094 200.765 11.084 200.765 11.6523C200.765 12.2383 200.595 12.707 200.255 13.0586C199.921 13.4043 199.467 13.6533 198.893 13.8057V13.8848C199.297 13.9844 199.663 14.1279 199.991 14.3154C200.319 14.4971 200.58 14.7432 200.773 15.0537C200.973 15.3584 201.072 15.751 201.072 16.2314C201.072 16.7764 200.911 17.2715 200.589 17.7168C200.272 18.1621 199.786 18.5166 199.13 18.7803C198.474 19.0439 197.639 19.1758 196.625 19.1758C196.139 19.1758 195.676 19.1494 195.236 19.0967C194.803 19.0498 194.407 18.9824 194.05 18.8945C193.692 18.8008 193.382 18.6895 193.118 18.5605V16.7852C193.522 16.9785 194.012 17.1543 194.586 17.3125C195.16 17.4648 195.775 17.541 196.432 17.541C196.918 17.541 197.357 17.4971 197.75 17.4092C198.148 17.3154 198.462 17.1631 198.69 16.9521C198.925 16.7412 199.042 16.46 199.042 16.1084C199.042 15.7861 198.939 15.5195 198.734 15.3086C198.529 15.0977 198.222 14.9424 197.812 14.8428C197.401 14.7373 196.883 14.6846 196.256 14.6846H195.096V13.1641H196.115C196.977 13.1641 197.65 13.0703 198.137 12.8828C198.629 12.6895 198.875 12.3555 198.875 11.8809C198.875 11.4824 198.702 11.1836 198.356 10.9844C198.011 10.7852 197.48 10.6855 196.766 10.6855C196.273 10.6855 195.787 10.7412 195.307 10.8525C194.826 10.958 194.346 11.1104 193.865 11.3096L193.215 9.78906C193.748 9.57227 194.319 9.40234 194.929 9.2793C195.538 9.15039 196.221 9.08594 196.977 9.08594ZM201.837 9.27051H204.087L206.082 14.8252C206.17 15.0771 206.249 15.3262 206.319 15.5723C206.396 15.8125 206.46 16.0498 206.513 16.2842C206.571 16.5186 206.618 16.7529 206.653 16.9873H206.706C206.765 16.6826 206.847 16.3428 206.952 15.9678C207.063 15.5869 207.187 15.2061 207.321 14.8252L209.237 9.27051H211.461L207.286 20.3359C207.046 20.9688 206.75 21.5078 206.398 21.9531C206.053 22.4043 205.643 22.7441 205.168 22.9727C204.693 23.207 204.151 23.3242 203.542 23.3242C203.249 23.3242 202.994 23.3066 202.777 23.2715C202.561 23.2422 202.376 23.21 202.224 23.1748V21.5225C202.347 21.5518 202.502 21.5781 202.689 21.6016C202.877 21.625 203.07 21.6367 203.27 21.6367C203.639 21.6367 203.958 21.5635 204.228 21.417C204.497 21.2705 204.726 21.0625 204.913 20.793C205.101 20.5293 205.256 20.2275 205.379 19.8877L205.722 18.9736L201.837 9.27051ZM220.944 19H218.861V10.8877H216.163C216.046 12.3643 215.899 13.627 215.724 14.6758C215.548 15.7246 215.328 16.5801 215.064 17.2422C214.801 17.8984 214.476 18.3789 214.089 18.6836C213.702 18.9883 213.236 19.1406 212.691 19.1406C212.451 19.1406 212.234 19.123 212.041 19.0879C211.848 19.0586 211.675 19.0117 211.522 18.9473V17.3213C211.622 17.3564 211.73 17.3857 211.848 17.4092C211.965 17.4326 212.085 17.4443 212.208 17.4443C212.425 17.4443 212.624 17.3564 212.806 17.1807C212.993 16.999 213.166 16.7148 213.324 16.3281C213.482 15.9414 213.626 15.4316 213.755 14.7988C213.884 14.1602 214.001 13.3867 214.106 12.4785C214.212 11.5645 214.306 10.4951 214.388 9.27051H220.944V19ZM225.98 13.1553H228.397C229.312 13.1553 230.067 13.2607 230.665 13.4717C231.269 13.6768 231.72 13.9873 232.019 14.4033C232.317 14.8193 232.467 15.3408 232.467 15.9678C232.467 16.583 232.326 17.1191 232.045 17.5762C231.764 18.0273 231.324 18.3789 230.727 18.6309C230.135 18.877 229.361 19 228.406 19H223.906V9.27051H225.98V13.1553ZM230.393 16.0205C230.393 15.5342 230.211 15.1914 229.848 14.9922C229.484 14.7871 228.966 14.6846 228.292 14.6846H225.98V17.4795H228.31C228.925 17.4795 229.426 17.3682 229.812 17.1455C230.199 16.917 230.393 16.542 230.393 16.0205ZM242.1 10.8965H238.9V19H236.844V10.8965H233.662V9.27051H242.1V10.8965ZM247.795 9.08594C249.025 9.08594 249.954 9.3584 250.581 9.90332C251.214 10.4482 251.53 11.2979 251.53 12.4521V19H250.062L249.667 17.6201H249.597C249.321 17.9717 249.037 18.2617 248.744 18.4902C248.451 18.7188 248.111 18.8887 247.725 19C247.344 19.1172 246.878 19.1758 246.327 19.1758C245.747 19.1758 245.229 19.0703 244.771 18.8594C244.314 18.6426 243.954 18.3145 243.69 17.875C243.427 17.4355 243.295 16.8789 243.295 16.2051C243.295 15.2031 243.667 14.4502 244.411 13.9463C245.161 13.4424 246.292 13.1641 247.804 13.1113L249.491 13.0498V12.54C249.491 11.8662 249.333 11.3857 249.017 11.0986C248.706 10.8115 248.267 10.668 247.698 10.668C247.212 10.668 246.74 10.7383 246.283 10.8789C245.826 11.0195 245.381 11.1924 244.947 11.3975L244.279 9.93848C244.754 9.68652 245.293 9.48145 245.896 9.32324C246.506 9.16504 247.139 9.08594 247.795 9.08594ZM249.482 14.3506L248.226 14.3945C247.194 14.4297 246.471 14.6055 246.055 14.9219C245.639 15.2383 245.431 15.6719 245.431 16.2227C245.431 16.7031 245.574 17.0547 245.861 17.2773C246.148 17.4941 246.526 17.6025 246.995 17.6025C247.71 17.6025 248.302 17.4004 248.771 16.9961C249.245 16.5859 249.482 15.9854 249.482 15.1943V14.3506ZM261.77 10.8965H258.57V19H256.514V10.8965H253.332V9.27051H261.77V10.8965ZM272.246 19.1758C271.326 19.1758 270.529 18.9971 269.855 18.6396C269.182 18.2822 268.663 17.7344 268.3 16.9961C267.937 16.2578 267.755 15.3203 267.755 14.1836C267.755 13 267.954 12.0332 268.353 11.2832C268.751 10.5332 269.302 9.97949 270.005 9.62207C270.714 9.26465 271.525 9.08594 272.439 9.08594C273.02 9.08594 273.544 9.14453 274.013 9.26172C274.487 9.37305 274.889 9.51074 275.217 9.6748L274.602 11.3271C274.244 11.1807 273.878 11.0576 273.503 10.958C273.128 10.8584 272.768 10.8086 272.422 10.8086C271.854 10.8086 271.379 10.9346 270.998 11.1865C270.623 11.4385 270.342 11.8135 270.154 12.3115C269.973 12.8096 269.882 13.4277 269.882 14.166C269.882 14.8809 269.976 15.4844 270.163 15.9766C270.351 16.4629 270.629 16.832 270.998 17.084C271.367 17.3301 271.821 17.4531 272.36 17.4531C272.894 17.4531 273.371 17.3887 273.793 17.2598C274.215 17.1309 274.613 16.9639 274.988 16.7588V18.5518C274.619 18.7627 274.224 18.918 273.802 19.0176C273.38 19.123 272.861 19.1758 272.246 19.1758ZM285.887 14.1133C285.887 14.9219 285.781 15.6396 285.57 16.2666C285.359 16.8936 285.052 17.4238 284.647 17.8574C284.243 18.2852 283.757 18.6133 283.188 18.8418C282.62 19.0645 281.979 19.1758 281.264 19.1758C280.596 19.1758 279.983 19.0645 279.427 18.8418C278.87 18.6133 278.387 18.2852 277.977 17.8574C277.572 17.4238 277.259 16.8936 277.036 16.2666C276.813 15.6396 276.702 14.9219 276.702 14.1133C276.702 13.041 276.887 12.1328 277.256 11.3887C277.631 10.6387 278.164 10.0674 278.855 9.6748C279.547 9.28223 280.37 9.08594 281.325 9.08594C282.222 9.08594 283.013 9.28223 283.698 9.6748C284.384 10.0674 284.92 10.6387 285.307 11.3887C285.693 12.1387 285.887 13.0469 285.887 14.1133ZM278.829 14.1133C278.829 14.8223 278.914 15.4287 279.084 15.9326C279.26 16.4365 279.529 16.8232 279.893 17.0928C280.256 17.3564 280.725 17.4883 281.299 17.4883C281.873 17.4883 282.342 17.3564 282.705 17.0928C283.068 16.8232 283.335 16.4365 283.505 15.9326C283.675 15.4287 283.76 14.8223 283.76 14.1133C283.76 13.4043 283.675 12.8037 283.505 12.3115C283.335 11.8135 283.068 11.4355 282.705 11.1777C282.342 10.9141 281.87 10.7822 281.29 10.7822C280.435 10.7822 279.811 11.0693 279.418 11.6436C279.025 12.2178 278.829 13.041 278.829 14.1133ZM290.413 14.0254L287.161 9.27051H289.517L291.74 12.6895L293.973 9.27051H296.319L293.05 14.0254L296.486 19H294.122L291.74 15.3525L289.35 19H287.003L290.413 14.0254ZM303.166 9.08594C304.32 9.08594 305.246 9.50781 305.943 10.3516C306.646 11.1953 306.998 12.4492 306.998 14.1133C306.998 15.2148 306.834 16.1436 306.506 16.8994C306.184 17.6494 305.729 18.2178 305.144 18.6045C304.563 18.9854 303.887 19.1758 303.113 19.1758C302.621 19.1758 302.193 19.1113 301.83 18.9824C301.467 18.8535 301.156 18.6865 300.898 18.4814C300.641 18.2705 300.424 18.042 300.248 17.7959H300.125C300.154 18.0303 300.181 18.291 300.204 18.5781C300.233 18.8594 300.248 19.1172 300.248 19.3516V23.3154H298.174V9.27051H299.861L300.151 10.6152H300.248C300.43 10.3398 300.649 10.085 300.907 9.85059C301.171 9.61621 301.487 9.43164 301.856 9.29688C302.231 9.15625 302.668 9.08594 303.166 9.08594ZM302.612 10.7734C302.044 10.7734 301.587 10.8877 301.241 11.1162C300.901 11.3389 300.652 11.6758 300.494 12.127C300.342 12.5781 300.26 13.1436 300.248 13.8232V14.1133C300.248 14.834 300.321 15.4463 300.468 15.9502C300.62 16.4482 300.869 16.8291 301.215 17.0928C301.566 17.3506 302.041 17.4795 302.639 17.4795C303.143 17.4795 303.559 17.3418 303.887 17.0664C304.221 16.791 304.47 16.3984 304.634 15.8887C304.798 15.3789 304.88 14.7783 304.88 14.0869C304.88 13.0381 304.692 12.2236 304.317 11.6436C303.948 11.0635 303.38 10.7734 302.612 10.7734ZM313.203 9.08594C314.434 9.08594 315.362 9.3584 315.989 9.90332C316.622 10.4482 316.938 11.2979 316.938 12.4521V19H315.471L315.075 17.6201H315.005C314.729 17.9717 314.445 18.2617 314.152 18.4902C313.859 18.7188 313.52 18.8887 313.133 19C312.752 19.1172 312.286 19.1758 311.735 19.1758C311.155 19.1758 310.637 19.0703 310.18 18.8594C309.723 18.6426 309.362 18.3145 309.099 17.875C308.835 17.4355 308.703 16.8789 308.703 16.2051C308.703 15.2031 309.075 14.4502 309.819 13.9463C310.569 13.4424 311.7 13.1641 313.212 13.1113L314.899 13.0498V12.54C314.899 11.8662 314.741 11.3857 314.425 11.0986C314.114 10.8115 313.675 10.668 313.106 10.668C312.62 10.668 312.148 10.7383 311.691 10.8789C311.234 11.0195 310.789 11.1924 310.355 11.3975L309.688 9.93848C310.162 9.68652 310.701 9.48145 311.305 9.32324C311.914 9.16504 312.547 9.08594 313.203 9.08594ZM314.891 14.3506L313.634 14.3945C312.603 14.4297 311.879 14.6055 311.463 14.9219C311.047 15.2383 310.839 15.6719 310.839 16.2227C310.839 16.7031 310.982 17.0547 311.27 17.2773C311.557 17.4941 311.935 17.6025 312.403 17.6025C313.118 17.6025 313.71 17.4004 314.179 16.9961C314.653 16.5859 314.891 15.9854 314.891 15.1943V14.3506ZM321.904 9.27051V13.1816H326.457V9.27051H328.531V19H326.457V14.7988H321.904V19H319.83V9.27051H321.904ZM333.471 9.27051V14.2363C333.471 14.3945 333.465 14.5967 333.453 14.8428C333.447 15.083 333.436 15.335 333.418 15.5986C333.4 15.8564 333.383 16.0938 333.365 16.3105C333.348 16.5273 333.333 16.6885 333.321 16.7939L338.217 9.27051H340.73V19H338.753V14.0869C338.753 13.8291 338.759 13.5303 338.771 13.1904C338.788 12.8506 338.806 12.5225 338.823 12.2061C338.847 11.8896 338.861 11.6494 338.867 11.4854L333.989 19H331.484V9.27051H333.471ZM351.708 19H349.625V10.8877H346.927C346.81 12.3643 346.663 13.627 346.487 14.6758C346.312 15.7246 346.092 16.5801 345.828 17.2422C345.564 17.8984 345.239 18.3789 344.853 18.6836C344.466 18.9883 344 19.1406 343.455 19.1406C343.215 19.1406 342.998 19.123 342.805 19.0879C342.611 19.0586 342.438 19.0117 342.286 18.9473V17.3213C342.386 17.3564 342.494 17.3857 342.611 17.4092C342.729 17.4326 342.849 17.4443 342.972 17.4443C343.188 17.4443 343.388 17.3564 343.569 17.1807C343.757 16.999 343.93 16.7148 344.088 16.3281C344.246 15.9414 344.39 15.4316 344.519 14.7988C344.647 14.1602 344.765 13.3867 344.87 12.4785C344.976 11.5645 345.069 10.4951 345.151 9.27051H351.708V19ZM358.59 19.1758C357.67 19.1758 356.873 18.9971 356.199 18.6396C355.525 18.2822 355.007 17.7344 354.644 16.9961C354.28 16.2578 354.099 15.3203 354.099 14.1836C354.099 13 354.298 12.0332 354.696 11.2832C355.095 10.5332 355.646 9.97949 356.349 9.62207C357.058 9.26465 357.869 9.08594 358.783 9.08594C359.363 9.08594 359.888 9.14453 360.356 9.26172C360.831 9.37305 361.232 9.51074 361.561 9.6748L360.945 11.3271C360.588 11.1807 360.222 11.0576 359.847 10.958C359.472 10.8584 359.111 10.8086 358.766 10.8086C358.197 10.8086 357.723 10.9346 357.342 11.1865C356.967 11.4385 356.686 11.8135 356.498 12.3115C356.316 12.8096 356.226 13.4277 356.226 14.166C356.226 14.8809 356.319 15.4844 356.507 15.9766C356.694 16.4629 356.973 16.832 357.342 17.084C357.711 17.3301 358.165 17.4531 358.704 17.4531C359.237 17.4531 359.715 17.3887 360.137 17.2598C360.559 17.1309 360.957 16.9639 361.332 16.7588V18.5518C360.963 18.7627 360.567 18.918 360.146 19.0176C359.724 19.123 359.205 19.1758 358.59 19.1758ZM364.593 19H362.29L365.006 15.0273C364.637 14.9102 364.291 14.7373 363.969 14.5088C363.652 14.2744 363.395 13.9697 363.195 13.5947C362.996 13.2139 362.896 12.751 362.896 12.2061C362.896 11.2568 363.236 10.5303 363.916 10.0264C364.596 9.52246 365.483 9.27051 366.579 9.27051H370.991V19H368.926V15.2383H366.966L364.593 19ZM364.918 12.2236C364.918 12.7158 365.103 13.0908 365.472 13.3486C365.841 13.6006 366.345 13.7266 366.983 13.7266H368.926V10.8262H366.685C366.069 10.8262 365.621 10.9609 365.34 11.2305C365.059 11.4941 364.918 11.8252 364.918 12.2236ZM376.019 16.9082L376.142 17.1104C376.036 17.5322 375.901 17.9863 375.737 18.4727C375.573 18.959 375.395 19.4453 375.201 19.9316C375.008 20.4238 374.812 20.8867 374.612 21.3203H373.101C373.224 20.8457 373.341 20.3477 373.452 19.8262C373.569 19.3105 373.675 18.8008 373.769 18.2969C373.868 17.7871 373.947 17.3242 374.006 16.9082H376.019ZM68.5508 34.2705V38.1816H73.1035V34.2705H75.1777V44H73.1035V39.7988H68.5508V44H66.4766V34.2705H68.5508ZM82.0068 34.0859C82.874 34.0859 83.6182 34.2646 84.2393 34.6221C84.8604 34.9795 85.3379 35.4863 85.6719 36.1426C86.0059 36.7988 86.1729 37.584 86.1729 38.498V39.6055H79.6777C79.7012 40.5488 79.9531 41.2754 80.4336 41.7852C80.9199 42.2949 81.5996 42.5498 82.4727 42.5498C83.0938 42.5498 83.6504 42.4912 84.1426 42.374C84.6406 42.251 85.1533 42.0723 85.6807 41.8379V43.5166C85.1943 43.7451 84.6992 43.9121 84.1953 44.0176C83.6914 44.123 83.0879 44.1758 82.3848 44.1758C81.4297 44.1758 80.5889 43.9912 79.8623 43.6221C79.1416 43.2471 78.5762 42.6904 78.166 41.9521C77.7617 41.2139 77.5596 40.2969 77.5596 39.2012C77.5596 38.1113 77.7441 37.1855 78.1133 36.4238C78.4824 35.6621 79.001 35.082 79.6689 34.6836C80.3369 34.2852 81.1162 34.0859 82.0068 34.0859ZM82.0068 35.6416C81.3564 35.6416 80.8291 35.8525 80.4248 36.2744C80.0264 36.6963 79.792 37.3145 79.7217 38.1289H84.1514C84.1455 37.6426 84.0635 37.2119 83.9053 36.8369C83.7529 36.4619 83.5186 36.1689 83.2021 35.958C82.8916 35.7471 82.4932 35.6416 82.0068 35.6416ZM97.1152 39.1133C97.1152 39.9219 97.0098 40.6396 96.7988 41.2666C96.5879 41.8936 96.2803 42.4238 95.876 42.8574C95.4717 43.2852 94.9854 43.6133 94.417 43.8418C93.8486 44.0645 93.207 44.1758 92.4922 44.1758C91.8242 44.1758 91.2119 44.0645 90.6553 43.8418C90.0986 43.6133 89.6152 43.2852 89.2051 42.8574C88.8008 42.4238 88.4873 41.8936 88.2646 41.2666C88.042 40.6396 87.9307 39.9219 87.9307 39.1133C87.9307 38.041 88.1152 37.1328 88.4844 36.3887C88.8594 35.6387 89.3926 35.0674 90.084 34.6748C90.7754 34.2822 91.5986 34.0859 92.5537 34.0859C93.4502 34.0859 94.2412 34.2822 94.9268 34.6748C95.6123 35.0674 96.1484 35.6387 96.5352 36.3887C96.9219 37.1387 97.1152 38.0469 97.1152 39.1133ZM90.0576 39.1133C90.0576 39.8223 90.1426 40.4287 90.3125 40.9326C90.4883 41.4365 90.7578 41.8232 91.1211 42.0928C91.4844 42.3564 91.9531 42.4883 92.5273 42.4883C93.1016 42.4883 93.5703 42.3564 93.9336 42.0928C94.2969 41.8232 94.5635 41.4365 94.7334 40.9326C94.9033 40.4287 94.9883 39.8223 94.9883 39.1133C94.9883 38.4043 94.9033 37.8037 94.7334 37.3115C94.5635 36.8135 94.2969 36.4355 93.9336 36.1777C93.5703 35.9141 93.0986 35.7822 92.5186 35.7822C91.6631 35.7822 91.0391 36.0693 90.6465 36.6436C90.2539 37.2178 90.0576 38.041 90.0576 39.1133ZM98.9346 38.1641C98.9346 36.752 99.0898 35.5508 99.4004 34.5605C99.7109 33.5703 100.2 32.7764 100.868 32.1787C101.536 31.5811 102.403 31.1738 103.47 30.957C104.161 30.7988 104.864 30.6641 105.579 30.5527C106.294 30.4414 107.009 30.333 107.724 30.2275L108.005 32.0469C107.671 32.0879 107.313 32.1377 106.933 32.1963C106.552 32.249 106.168 32.3047 105.781 32.3633C105.4 32.4219 105.034 32.4834 104.683 32.5479C104.337 32.6064 104.026 32.665 103.751 32.7236C103.2 32.8408 102.734 33.0342 102.354 33.3037C101.979 33.5674 101.686 33.9541 101.475 34.4639C101.264 34.9736 101.138 35.6533 101.097 36.5029H101.211C101.369 36.2627 101.589 36.0225 101.87 35.7822C102.151 35.542 102.491 35.3428 102.89 35.1846C103.294 35.0205 103.754 34.9385 104.27 34.9385C105.078 34.9385 105.764 35.1084 106.326 35.4482C106.895 35.7881 107.325 36.2803 107.618 36.9248C107.917 37.5693 108.066 38.3457 108.066 39.2539C108.066 40.3379 107.873 41.2461 107.486 41.9785C107.105 42.7051 106.572 43.2529 105.887 43.6221C105.201 43.9912 104.401 44.1758 103.487 44.1758C102.784 44.1758 102.151 44.0439 101.589 43.7803C101.032 43.5166 100.555 43.1299 100.156 42.6201C99.7637 42.1045 99.4619 41.4746 99.251 40.7305C99.04 39.9805 98.9346 39.125 98.9346 38.1641ZM103.628 42.4795C104.097 42.4795 104.501 42.3799 104.841 42.1807C105.187 41.9814 105.453 41.6592 105.641 41.2139C105.834 40.7686 105.931 40.1797 105.931 39.4473C105.931 38.5449 105.767 37.8359 105.438 37.3203C105.116 36.7988 104.583 36.5381 103.839 36.5381C103.382 36.5381 102.963 36.6406 102.582 36.8457C102.201 37.0508 101.879 37.291 101.615 37.5664C101.352 37.8359 101.164 38.0732 101.053 38.2783C101.053 38.8115 101.091 39.3271 101.167 39.8252C101.249 40.3232 101.384 40.7744 101.571 41.1787C101.765 41.5771 102.028 41.8936 102.362 42.1279C102.696 42.3623 103.118 42.4795 103.628 42.4795ZM112.593 39.0254L109.341 34.2705H111.696L113.92 37.6895L116.152 34.2705H118.499L115.229 39.0254L118.666 44H116.302L113.92 40.3525L111.529 44H109.183L112.593 39.0254ZM128.967 39.1133C128.967 39.9219 128.861 40.6396 128.65 41.2666C128.439 41.8936 128.132 42.4238 127.728 42.8574C127.323 43.2852 126.837 43.6133 126.269 43.8418C125.7 44.0645 125.059 44.1758 124.344 44.1758C123.676 44.1758 123.063 44.0645 122.507 43.8418C121.95 43.6133 121.467 43.2852 121.057 42.8574C120.652 42.4238 120.339 41.8936 120.116 41.2666C119.894 40.6396 119.782 39.9219 119.782 39.1133C119.782 38.041 119.967 37.1328 120.336 36.3887C120.711 35.6387 121.244 35.0674 121.936 34.6748C122.627 34.2822 123.45 34.0859 124.405 34.0859C125.302 34.0859 126.093 34.2822 126.778 34.6748C127.464 35.0674 128 35.6387 128.387 36.3887C128.773 37.1387 128.967 38.0469 128.967 39.1133ZM121.909 39.1133C121.909 39.8223 121.994 40.4287 122.164 40.9326C122.34 41.4365 122.609 41.8232 122.973 42.0928C123.336 42.3564 123.805 42.4883 124.379 42.4883C124.953 42.4883 125.422 42.3564 125.785 42.0928C126.148 41.8232 126.415 41.4365 126.585 40.9326C126.755 40.4287 126.84 39.8223 126.84 39.1133C126.84 38.4043 126.755 37.8037 126.585 37.3115C126.415 36.8135 126.148 36.4355 125.785 36.1777C125.422 35.9141 124.95 35.7822 124.37 35.7822C123.515 35.7822 122.891 36.0693 122.498 36.6436C122.105 37.2178 121.909 38.041 121.909 39.1133ZM139.285 34.2705V42.4004H140.691V47.4277H138.784V44H132.069V47.4277H130.162V42.4004H130.953C131.445 41.6855 131.855 40.8887 132.184 40.0098C132.518 39.1309 132.775 38.2051 132.957 37.2324C133.145 36.2539 133.262 35.2666 133.309 34.2705H139.285ZM137.237 35.8525H135.084C135.014 36.6436 134.894 37.4316 134.724 38.2168C134.554 38.9961 134.334 39.7432 134.064 40.458C133.801 41.167 133.484 41.8145 133.115 42.4004H137.237V35.8525ZM144.488 34.2705V39.2363C144.488 39.3945 144.482 39.5967 144.471 39.8428C144.465 40.083 144.453 40.335 144.436 40.5986C144.418 40.8564 144.4 41.0938 144.383 41.3105C144.365 41.5273 144.351 41.6885 144.339 41.7939L149.234 34.2705H151.748V44H149.771V39.0869C149.771 38.8291 149.776 38.5303 149.788 38.1904C149.806 37.8506 149.823 37.5225 149.841 37.2061C149.864 36.8896 149.879 36.6494 149.885 36.4854L145.007 44H142.502V34.2705H144.488ZM165.995 34.2705V44H164.079V38.4453C164.079 38.082 164.088 37.7188 164.105 37.3555C164.123 36.9922 164.146 36.6465 164.176 36.3184H164.123L161.161 44H159.535L156.6 36.3096H156.538C156.567 36.6436 156.588 36.9893 156.6 37.3467C156.617 37.7041 156.626 38.0908 156.626 38.5068V44H154.71V34.2705H157.593L160.37 41.5391L163.191 34.2705H165.995ZM177.535 39.1133C177.535 39.9219 177.43 40.6396 177.219 41.2666C177.008 41.8936 176.7 42.4238 176.296 42.8574C175.892 43.2852 175.405 43.6133 174.837 43.8418C174.269 44.0645 173.627 44.1758 172.912 44.1758C172.244 44.1758 171.632 44.0645 171.075 43.8418C170.519 43.6133 170.035 43.2852 169.625 42.8574C169.221 42.4238 168.907 41.8936 168.685 41.2666C168.462 40.6396 168.351 39.9219 168.351 39.1133C168.351 38.041 168.535 37.1328 168.904 36.3887C169.279 35.6387 169.812 35.0674 170.504 34.6748C171.195 34.2822 172.019 34.0859 172.974 34.0859C173.87 34.0859 174.661 34.2822 175.347 34.6748C176.032 35.0674 176.568 35.6387 176.955 36.3887C177.342 37.1387 177.535 38.0469 177.535 39.1133ZM170.478 39.1133C170.478 39.8223 170.562 40.4287 170.732 40.9326C170.908 41.4365 171.178 41.8232 171.541 42.0928C171.904 42.3564 172.373 42.4883 172.947 42.4883C173.521 42.4883 173.99 42.3564 174.354 42.0928C174.717 41.8232 174.983 41.4365 175.153 40.9326C175.323 40.4287 175.408 39.8223 175.408 39.1133C175.408 38.4043 175.323 37.8037 175.153 37.3115C174.983 36.8135 174.717 36.4355 174.354 36.1777C173.99 35.9141 173.519 35.7822 172.938 35.7822C172.083 35.7822 171.459 36.0693 171.066 36.6436C170.674 37.2178 170.478 38.041 170.478 39.1133ZM187.607 34.0859C188.322 34.0859 188.964 34.1826 189.532 34.376C190.106 34.5635 190.561 34.8477 190.895 35.2285C191.229 35.6094 191.396 36.084 191.396 36.6523C191.396 37.2383 191.226 37.707 190.886 38.0586C190.552 38.4043 190.098 38.6533 189.523 38.8057V38.8848C189.928 38.9844 190.294 39.1279 190.622 39.3154C190.95 39.4971 191.211 39.7432 191.404 40.0537C191.604 40.3584 191.703 40.751 191.703 41.2314C191.703 41.7764 191.542 42.2715 191.22 42.7168C190.903 43.1621 190.417 43.5166 189.761 43.7803C189.104 44.0439 188.27 44.1758 187.256 44.1758C186.77 44.1758 186.307 44.1494 185.867 44.0967C185.434 44.0498 185.038 43.9824 184.681 43.8945C184.323 43.8008 184.013 43.6895 183.749 43.5605V41.7852C184.153 41.9785 184.643 42.1543 185.217 42.3125C185.791 42.4648 186.406 42.541 187.062 42.541C187.549 42.541 187.988 42.4971 188.381 42.4092C188.779 42.3154 189.093 42.1631 189.321 41.9521C189.556 41.7412 189.673 41.46 189.673 41.1084C189.673 40.7861 189.57 40.5195 189.365 40.3086C189.16 40.0977 188.853 39.9424 188.442 39.8428C188.032 39.7373 187.514 39.6846 186.887 39.6846H185.727V38.1641H186.746C187.607 38.1641 188.281 38.0703 188.768 37.8828C189.26 37.6895 189.506 37.3555 189.506 36.8809C189.506 36.4824 189.333 36.1836 188.987 35.9844C188.642 35.7852 188.111 35.6855 187.396 35.6855C186.904 35.6855 186.418 35.7412 185.938 35.8525C185.457 35.958 184.977 36.1104 184.496 36.3096L183.846 34.7891C184.379 34.5723 184.95 34.4023 185.56 34.2793C186.169 34.1504 186.852 34.0859 187.607 34.0859ZM197.75 34.0859C198.98 34.0859 199.909 34.3584 200.536 34.9033C201.169 35.4482 201.485 36.2979 201.485 37.4521V44H200.018L199.622 42.6201H199.552C199.276 42.9717 198.992 43.2617 198.699 43.4902C198.406 43.7188 198.066 43.8887 197.68 44C197.299 44.1172 196.833 44.1758 196.282 44.1758C195.702 44.1758 195.184 44.0703 194.727 43.8594C194.27 43.6426 193.909 43.3145 193.646 42.875C193.382 42.4355 193.25 41.8789 193.25 41.2051C193.25 40.2031 193.622 39.4502 194.366 38.9463C195.116 38.4424 196.247 38.1641 197.759 38.1113L199.446 38.0498V37.54C199.446 36.8662 199.288 36.3857 198.972 36.0986C198.661 35.8115 198.222 35.668 197.653 35.668C197.167 35.668 196.695 35.7383 196.238 35.8789C195.781 36.0195 195.336 36.1924 194.902 36.3975L194.234 34.9385C194.709 34.6865 195.248 34.4814 195.852 34.3232C196.461 34.165 197.094 34.0859 197.75 34.0859ZM199.438 39.3506L198.181 39.3945C197.149 39.4297 196.426 39.6055 196.01 39.9219C195.594 40.2383 195.386 40.6719 195.386 41.2227C195.386 41.7031 195.529 42.0547 195.816 42.2773C196.104 42.4941 196.481 42.6025 196.95 42.6025C197.665 42.6025 198.257 42.4004 198.726 41.9961C199.2 41.5859 199.438 40.9854 199.438 40.1943V39.3506ZM209.369 34.0859C210.523 34.0859 211.449 34.5078 212.146 35.3516C212.85 36.1953 213.201 37.4492 213.201 39.1133C213.201 40.2148 213.037 41.1436 212.709 41.8994C212.387 42.6494 211.933 43.2178 211.347 43.6045C210.767 43.9854 210.09 44.1758 209.316 44.1758C208.824 44.1758 208.396 44.1113 208.033 43.9824C207.67 43.8535 207.359 43.6865 207.102 43.4814C206.844 43.2705 206.627 43.042 206.451 42.7959H206.328C206.357 43.0303 206.384 43.291 206.407 43.5781C206.437 43.8594 206.451 44.1172 206.451 44.3516V48.3154H204.377V34.2705H206.064L206.354 35.6152H206.451C206.633 35.3398 206.853 35.085 207.11 34.8506C207.374 34.6162 207.69 34.4316 208.06 34.2969C208.435 34.1562 208.871 34.0859 209.369 34.0859ZM208.815 35.7734C208.247 35.7734 207.79 35.8877 207.444 36.1162C207.104 36.3389 206.855 36.6758 206.697 37.127C206.545 37.5781 206.463 38.1436 206.451 38.8232V39.1133C206.451 39.834 206.524 40.4463 206.671 40.9502C206.823 41.4482 207.072 41.8291 207.418 42.0928C207.77 42.3506 208.244 42.4795 208.842 42.4795C209.346 42.4795 209.762 42.3418 210.09 42.0664C210.424 41.791 210.673 41.3984 210.837 40.8887C211.001 40.3789 211.083 39.7783 211.083 39.0869C211.083 38.0381 210.896 37.2236 210.521 36.6436C210.151 36.0635 209.583 35.7734 208.815 35.7734ZM219.468 34.0859C220.335 34.0859 221.079 34.2646 221.7 34.6221C222.321 34.9795 222.799 35.4863 223.133 36.1426C223.467 36.7988 223.634 37.584 223.634 38.498V39.6055H217.139C217.162 40.5488 217.414 41.2754 217.895 41.7852C218.381 42.2949 219.061 42.5498 219.934 42.5498C220.555 42.5498 221.111 42.4912 221.604 42.374C222.102 42.251 222.614 42.0723 223.142 41.8379V43.5166C222.655 43.7451 222.16 43.9121 221.656 44.0176C221.152 44.123 220.549 44.1758 219.846 44.1758C218.891 44.1758 218.05 43.9912 217.323 43.6221C216.603 43.2471 216.037 42.6904 215.627 41.9521C215.223 41.2139 215.021 40.2969 215.021 39.2012C215.021 38.1113 215.205 37.1855 215.574 36.4238C215.943 35.6621 216.462 35.082 217.13 34.6836C217.798 34.2852 218.577 34.0859 219.468 34.0859ZM219.468 35.6416C218.817 35.6416 218.29 35.8525 217.886 36.2744C217.487 36.6963 217.253 37.3145 217.183 38.1289H221.612C221.606 37.6426 221.524 37.2119 221.366 36.8369C221.214 36.4619 220.979 36.1689 220.663 35.958C220.353 35.7471 219.954 35.6416 219.468 35.6416ZM232.273 34.2705V35.8965H228.037V44H225.963V34.2705H232.273ZM236.141 34.2705V39.2363C236.141 39.3945 236.135 39.5967 236.123 39.8428C236.117 40.083 236.105 40.335 236.088 40.5986C236.07 40.8564 236.053 41.0938 236.035 41.3105C236.018 41.5273 236.003 41.6885 235.991 41.7939L240.887 34.2705H243.4V44H241.423V39.0869C241.423 38.8291 241.429 38.5303 241.44 38.1904C241.458 37.8506 241.476 37.5225 241.493 37.2061C241.517 36.8896 241.531 36.6494 241.537 36.4854L236.659 44H234.154V34.2705H236.141ZM250.291 44.1758C249.371 44.1758 248.574 43.9971 247.9 43.6396C247.227 43.2822 246.708 42.7344 246.345 41.9961C245.981 41.2578 245.8 40.3203 245.8 39.1836C245.8 38 245.999 37.0332 246.397 36.2832C246.796 35.5332 247.347 34.9795 248.05 34.6221C248.759 34.2646 249.57 34.0859 250.484 34.0859C251.064 34.0859 251.589 34.1445 252.058 34.2617C252.532 34.373 252.934 34.5107 253.262 34.6748L252.646 36.3271C252.289 36.1807 251.923 36.0576 251.548 35.958C251.173 35.8584 250.812 35.8086 250.467 35.8086C249.898 35.8086 249.424 35.9346 249.043 36.1865C248.668 36.4385 248.387 36.8135 248.199 37.3115C248.018 37.8096 247.927 38.4277 247.927 39.166C247.927 39.8809 248.021 40.4844 248.208 40.9766C248.396 41.4629 248.674 41.832 249.043 42.084C249.412 42.3301 249.866 42.4531 250.405 42.4531C250.938 42.4531 251.416 42.3887 251.838 42.2598C252.26 42.1309 252.658 41.9639 253.033 41.7588V43.5518C252.664 43.7627 252.269 43.918 251.847 44.0176C251.425 44.123 250.906 44.1758 250.291 44.1758ZM262.666 35.8965H259.467V44H257.41V35.8965H254.229V34.2705H262.666V35.8965ZM269.539 34.0859C270.693 34.0859 271.619 34.5078 272.316 35.3516C273.02 36.1953 273.371 37.4492 273.371 39.1133C273.371 40.2148 273.207 41.1436 272.879 41.8994C272.557 42.6494 272.103 43.2178 271.517 43.6045C270.937 43.9854 270.26 44.1758 269.486 44.1758C268.994 44.1758 268.566 44.1113 268.203 43.9824C267.84 43.8535 267.529 43.6865 267.271 43.4814C267.014 43.2705 266.797 43.042 266.621 42.7959H266.498C266.527 43.0303 266.554 43.291 266.577 43.5781C266.606 43.8594 266.621 44.1172 266.621 44.3516V48.3154H264.547V34.2705H266.234L266.524 35.6152H266.621C266.803 35.3398 267.022 35.085 267.28 34.8506C267.544 34.6162 267.86 34.4316 268.229 34.2969C268.604 34.1562 269.041 34.0859 269.539 34.0859ZM268.985 35.7734C268.417 35.7734 267.96 35.8877 267.614 36.1162C267.274 36.3389 267.025 36.6758 266.867 37.127C266.715 37.5781 266.633 38.1436 266.621 38.8232V39.1133C266.621 39.834 266.694 40.4463 266.841 40.9502C266.993 41.4482 267.242 41.8291 267.588 42.0928C267.939 42.3506 268.414 42.4795 269.012 42.4795C269.516 42.4795 269.932 42.3418 270.26 42.0664C270.594 41.791 270.843 41.3984 271.007 40.8887C271.171 40.3789 271.253 39.7783 271.253 39.0869C271.253 38.0381 271.065 37.2236 270.69 36.6436C270.321 36.0635 269.753 35.7734 268.985 35.7734ZM277.748 34.2705V39.2363C277.748 39.3945 277.742 39.5967 277.73 39.8428C277.725 40.083 277.713 40.335 277.695 40.5986C277.678 40.8564 277.66 41.0938 277.643 41.3105C277.625 41.5273 277.61 41.6885 277.599 41.7939L282.494 34.2705H285.008V44H283.03V39.0869C283.03 38.8291 283.036 38.5303 283.048 38.1904C283.065 37.8506 283.083 37.5225 283.101 37.2061C283.124 36.8896 283.139 36.6494 283.145 36.4854L278.267 44H275.762V34.2705H277.748ZM292.971 34.0859C294.125 34.0859 295.051 34.5078 295.748 35.3516C296.451 36.1953 296.803 37.4492 296.803 39.1133C296.803 40.2148 296.639 41.1436 296.311 41.8994C295.988 42.6494 295.534 43.2178 294.948 43.6045C294.368 43.9854 293.691 44.1758 292.918 44.1758C292.426 44.1758 291.998 44.1113 291.635 43.9824C291.271 43.8535 290.961 43.6865 290.703 43.4814C290.445 43.2705 290.229 43.042 290.053 42.7959H289.93C289.959 43.0303 289.985 43.291 290.009 43.5781C290.038 43.8594 290.053 44.1172 290.053 44.3516V48.3154H287.979V34.2705H289.666L289.956 35.6152H290.053C290.234 35.3398 290.454 35.085 290.712 34.8506C290.976 34.6162 291.292 34.4316 291.661 34.2969C292.036 34.1562 292.473 34.0859 292.971 34.0859ZM292.417 35.7734C291.849 35.7734 291.392 35.8877 291.046 36.1162C290.706 36.3389 290.457 36.6758 290.299 37.127C290.146 37.5781 290.064 38.1436 290.053 38.8232V39.1133C290.053 39.834 290.126 40.4463 290.272 40.9502C290.425 41.4482 290.674 41.8291 291.02 42.0928C291.371 42.3506 291.846 42.4795 292.443 42.4795C292.947 42.4795 293.363 42.3418 293.691 42.0664C294.025 41.791 294.274 41.3984 294.438 40.8887C294.603 40.3789 294.685 39.7783 294.685 39.0869C294.685 38.0381 294.497 37.2236 294.122 36.6436C293.753 36.0635 293.185 35.7734 292.417 35.7734ZM307.807 39.1133C307.807 39.9219 307.701 40.6396 307.49 41.2666C307.279 41.8936 306.972 42.4238 306.567 42.8574C306.163 43.2852 305.677 43.6133 305.108 43.8418C304.54 44.0645 303.898 44.1758 303.184 44.1758C302.516 44.1758 301.903 44.0645 301.347 43.8418C300.79 43.6133 300.307 43.2852 299.896 42.8574C299.492 42.4238 299.179 41.8936 298.956 41.2666C298.733 40.6396 298.622 39.9219 298.622 39.1133C298.622 38.041 298.807 37.1328 299.176 36.3887C299.551 35.6387 300.084 35.0674 300.775 34.6748C301.467 34.2822 302.29 34.0859 303.245 34.0859C304.142 34.0859 304.933 34.2822 305.618 34.6748C306.304 35.0674 306.84 35.6387 307.227 36.3887C307.613 37.1387 307.807 38.0469 307.807 39.1133ZM300.749 39.1133C300.749 39.8223 300.834 40.4287 301.004 40.9326C301.18 41.4365 301.449 41.8232 301.812 42.0928C302.176 42.3564 302.645 42.4883 303.219 42.4883C303.793 42.4883 304.262 42.3564 304.625 42.0928C304.988 41.8232 305.255 41.4365 305.425 40.9326C305.595 40.4287 305.68 39.8223 305.68 39.1133C305.68 38.4043 305.595 37.8037 305.425 37.3115C305.255 36.8135 304.988 36.4355 304.625 36.1777C304.262 35.9141 303.79 35.7822 303.21 35.7822C302.354 35.7822 301.73 36.0693 301.338 36.6436C300.945 37.2178 300.749 38.041 300.749 39.1133ZM318.362 36.7666C318.362 37.3291 318.189 37.7891 317.844 38.1465C317.504 38.498 317.035 38.7295 316.438 38.8408V38.9111C317.076 38.9932 317.609 39.2188 318.037 39.5879C318.465 39.957 318.679 40.4697 318.679 41.126C318.679 41.6826 318.538 42.1777 318.257 42.6113C317.981 43.0391 317.542 43.3789 316.938 43.6309C316.341 43.877 315.559 44 314.592 44H310.18V34.2705H314.574C315.301 34.2705 315.948 34.3496 316.517 34.5078C317.091 34.666 317.542 34.9268 317.87 35.29C318.198 35.6533 318.362 36.1455 318.362 36.7666ZM316.525 41.0557C316.525 40.5752 316.341 40.2295 315.972 40.0186C315.608 39.8076 315.075 39.7021 314.372 39.7021H312.254V42.4795H314.416C315.072 42.4795 315.588 42.3711 315.963 42.1543C316.338 41.9316 316.525 41.5654 316.525 41.0557ZM316.262 36.9512C316.262 36.5703 316.118 36.2891 315.831 36.1074C315.544 35.9199 315.093 35.8262 314.478 35.8262H312.254V38.1816H314.196C314.876 38.1816 315.389 38.085 315.734 37.8916C316.086 37.6924 316.262 37.3789 316.262 36.9512ZM324.822 34.0859C326.053 34.0859 326.981 34.3584 327.608 34.9033C328.241 35.4482 328.558 36.2979 328.558 37.4521V44H327.09L326.694 42.6201H326.624C326.349 42.9717 326.064 43.2617 325.771 43.4902C325.479 43.7188 325.139 43.8887 324.752 44C324.371 44.1172 323.905 44.1758 323.354 44.1758C322.774 44.1758 322.256 44.0703 321.799 43.8594C321.342 43.6426 320.981 43.3145 320.718 42.875C320.454 42.4355 320.322 41.8789 320.322 41.2051C320.322 40.2031 320.694 39.4502 321.438 38.9463C322.188 38.4424 323.319 38.1641 324.831 38.1113L326.519 38.0498V37.54C326.519 36.8662 326.36 36.3857 326.044 36.0986C325.733 35.8115 325.294 35.668 324.726 35.668C324.239 35.668 323.768 35.7383 323.311 35.8789C322.854 36.0195 322.408 36.1924 321.975 36.3975L321.307 34.9385C321.781 34.6865 322.32 34.4814 322.924 34.3232C323.533 34.165 324.166 34.0859 324.822 34.0859ZM326.51 39.3506L325.253 39.3945C324.222 39.4297 323.498 39.6055 323.082 39.9219C322.666 40.2383 322.458 40.6719 322.458 41.2227C322.458 41.7031 322.602 42.0547 322.889 42.2773C323.176 42.4941 323.554 42.6025 324.022 42.6025C324.737 42.6025 325.329 42.4004 325.798 41.9961C326.272 41.5859 326.51 40.9854 326.51 40.1943V39.3506ZM338.797 35.8965H335.598V44H333.541V35.8965H330.359V34.2705H338.797V35.8965ZM342.752 38.1553H345.169C346.083 38.1553 346.839 38.2607 347.437 38.4717C348.04 38.6768 348.491 38.9873 348.79 39.4033C349.089 39.8193 349.238 40.3408 349.238 40.9678C349.238 41.583 349.098 42.1191 348.816 42.5762C348.535 43.0273 348.096 43.3789 347.498 43.6309C346.906 43.877 346.133 44 345.178 44H340.678V34.2705H342.752V38.1553ZM347.164 41.0205C347.164 40.5342 346.982 40.1914 346.619 39.9922C346.256 39.7871 345.737 39.6846 345.063 39.6846H342.752V42.4795H345.081C345.696 42.4795 346.197 42.3682 346.584 42.1455C346.971 41.917 347.164 41.542 347.164 41.0205ZM355.443 44.1758C354.523 44.1758 353.727 43.9971 353.053 43.6396C352.379 43.2822 351.86 42.7344 351.497 41.9961C351.134 41.2578 350.952 40.3203 350.952 39.1836C350.952 38 351.151 37.0332 351.55 36.2832C351.948 35.5332 352.499 34.9795 353.202 34.6221C353.911 34.2646 354.723 34.0859 355.637 34.0859C356.217 34.0859 356.741 34.1445 357.21 34.2617C357.685 34.373 358.086 34.5107 358.414 34.6748L357.799 36.3271C357.441 36.1807 357.075 36.0576 356.7 35.958C356.325 35.8584 355.965 35.8086 355.619 35.8086C355.051 35.8086 354.576 35.9346 354.195 36.1865C353.82 36.4385 353.539 36.8135 353.352 37.3115C353.17 37.8096 353.079 38.4277 353.079 39.166C353.079 39.8809 353.173 40.4844 353.36 40.9766C353.548 41.4629 353.826 41.832 354.195 42.084C354.564 42.3301 355.019 42.4531 355.558 42.4531C356.091 42.4531 356.568 42.3887 356.99 42.2598C357.412 42.1309 357.811 41.9639 358.186 41.7588V43.5518C357.816 43.7627 357.421 43.918 356.999 44.0176C356.577 44.123 356.059 44.1758 355.443 44.1758ZM361.446 44H359.144L361.859 40.0273C361.49 39.9102 361.145 39.7373 360.822 39.5088C360.506 39.2744 360.248 38.9697 360.049 38.5947C359.85 38.2139 359.75 37.751 359.75 37.2061C359.75 36.2568 360.09 35.5303 360.77 35.0264C361.449 34.5225 362.337 34.2705 363.433 34.2705H367.845V44H365.779V40.2383H363.819L361.446 44ZM361.771 37.2236C361.771 37.7158 361.956 38.0908 362.325 38.3486C362.694 38.6006 363.198 38.7266 363.837 38.7266H365.779V35.8262H363.538C362.923 35.8262 362.475 35.9609 362.193 36.2305C361.912 36.4941 361.771 36.8252 361.771 37.2236Z" fill="#FF9254"/>
<path d="M23.5 7C13.766 7 5.875 15.0589 5.875 25C5.875 34.9411 13.766 43 23.5 43C33.234 43 41.125 34.9411 41.125 25C41.125 15.0589 33.234 7 23.5 7Z" stroke="#FF9254" stroke-width="3" stroke-linecap="round" stroke-linejoin="round"/>
<path d="M23.5 27L23.5 17" stroke="#FF9254" stroke-width="3" stroke-linecap="round" stroke-linejoin="round"/>
<path d="M23.5977 33L23.4018 33L23.4018 32.8L23.5977 32.8L23.5977 33Z" stroke="#FF9254" stroke-width="3" stroke-linecap="round" stroke-linejoin="round"/>
</svg>
