<svg width="216" height="404" viewBox="0 0 216 404" fill="none" xmlns="http://www.w3.org/2000/svg">
<g clip-path="url(#clip0_550_5340)">
<mask id="mask0_550_5340" style="mask-type:alpha" maskUnits="userSpaceOnUse" x="-1" y="-1" width="217" height="394">
<path d="M195.053 285.543L183.451 371.399C183.269 383.019 157.774 392.016 126.459 391.542C95.145 391.069 69.9407 381.27 70.1226 369.687L56.8477 278.039L195.053 285.543Z" fill="#AA6B28"/>
<path d="M195.051 285.544H194.687L183.085 371.4C183.085 376.755 177.084 381.781 167.264 385.387C154.87 389.488 141.872 391.458 128.821 391.216H126.494C112.958 391.269 99.5135 389.002 86.7416 384.513C76.5581 380.616 70.4479 375.334 70.4843 369.943L57.1003 278.878L195.051 285.908V285.544V285.18L56.8457 277.895H56.5547V278.186L69.9751 369.834H70.3389H69.9751C69.9751 375.917 76.4853 381.235 86.7052 385.205C99.5673 389.69 113.093 391.968 126.712 391.944H129.076C142.213 392.186 155.296 390.203 167.773 386.08C177.666 382.437 183.922 377.374 184.067 371.509L195.633 285.653V285.398H195.378V285.763L195.051 285.544Z" fill="#2E1010"/>
<path d="M195.053 285.543L183.451 371.399C183.269 383.019 157.774 392.016 126.459 391.542C95.145 391.069 69.9407 381.27 70.1226 369.687L56.8477 278.039L195.053 285.543Z" fill="#F9A84C"/>
<path d="M195.051 285.544H194.687L183.085 371.4C183.085 376.755 177.084 381.781 167.264 385.387C154.87 389.488 141.872 391.458 128.821 391.216H126.494C112.958 391.269 99.5135 389.002 86.7416 384.513C76.5581 380.616 70.4479 375.334 70.4843 369.943L57.1003 278.878L195.051 285.908V285.544V285.18L56.8457 277.895H56.5547V278.186L69.9751 369.834H70.3389H69.9751C69.9751 375.917 76.4853 381.235 86.7052 385.205C99.5673 389.69 113.093 391.968 126.712 391.944H129.076C142.213 392.186 155.296 390.203 167.773 386.08C177.666 382.437 183.922 377.374 184.067 371.509L195.633 285.653V285.398H195.378V285.763L195.051 285.544Z" fill="#7C4317"/>
<path d="M72.1172 302.191L80.555 362.513C80.555 362.513 84.192 381.491 107.432 386.517C112.772 387.661 118.295 387.635 123.623 386.44C128.951 385.245 133.958 382.91 138.301 379.596C142.643 376.281 146.219 372.065 148.782 367.236C151.345 362.407 152.834 357.081 153.149 351.621C155.04 328.345 155.04 308.712 155.04 308.712C144.452 310.232 133.768 310.987 123.071 310.97C106.996 310.97 87.6835 309.149 72.1536 302.301L72.1172 302.191Z" fill="#FAB76A"/>
<path d="M193.925 291.263C189.041 295.278 183.489 298.397 177.522 300.479C171.18 302.828 164.645 304.62 157.992 305.833C159.883 305.833 162.32 306.198 165.266 306.198C169.884 306.182 174.494 305.793 179.05 305.032C179.324 304.793 179.669 304.652 180.032 304.631C180.868 304.631 181.996 305.615 182.068 310.678C182.068 318.91 174.431 368.959 174.431 368.959C174.431 368.959 172.94 381.854 155.046 386.662C146.346 388.705 137.431 389.683 128.496 389.576C107.183 389.576 81.3969 384.586 70.0859 367.102L70.486 369.797C70.486 375.298 76.5598 380.725 86.7433 384.368C99.5152 388.856 112.96 391.123 126.495 391.07H128.823C141.874 391.312 154.871 389.342 167.266 385.242C177.086 381.599 183.05 376.609 183.087 371.254L193.998 291.117L193.925 291.263Z" fill="#DE9342"/>
<path d="M194.32 290.859L193.92 291.26L183.009 371.397C183.009 376.752 177.008 381.778 167.188 385.385C154.794 389.485 141.796 391.455 128.745 391.213H126.417C112.882 391.266 99.4372 388.999 86.6653 384.51C76.4818 380.613 70.3716 375.331 70.408 369.94L70.0079 367.245L69.5352 366.516L70.0443 370.159C69.8625 381.742 95.1031 391.541 126.381 392.014H128.745C158.968 392.014 183.3 383.199 183.3 371.871L194.211 291.333L194.32 290.859Z" fill="#6F3B14"/>
<path d="M53.4609 261.903L66.845 262.413C80.0836 254.873 101.978 249.955 126.819 249.955C154.532 249.955 178.609 256.075 191.048 265.108L201.449 261.794L199.922 280.516C198.067 295.925 166.062 308.2 126.819 308.2C87.5758 308.2 54.843 295.633 53.6791 279.97L53.4609 279.752V262.631V261.866V261.903Z" fill="#F9A72B"/>
<path d="M53.4656 261.903V262.231L66.8496 262.741H67.0315C80.1609 255.274 102.056 250.356 126.823 250.356C154.464 250.356 178.541 256.476 190.834 265.437H191.161L201.563 262.158V261.794H201.236L199.708 280.48H200.036V280.116L199.708 280.408C198.799 287.693 190.47 294.796 177.377 299.786C144.452 310.581 108.938 310.518 76.0511 299.604C62.9217 294.541 54.7021 287.511 54.2293 279.898V279.679V262.705H53.8656H53.5383L53.9383 262.96L54.2293 262.595V261.794H53.8656H53.2109V262.559H53.5747H53.902L53.5019 262.304L53.2109 262.668V279.788V280.007L53.4291 280.262L53.6838 280.007H53.2109C53.8656 288.093 62.3761 295.197 75.5783 300.296C108.631 311.258 144.322 311.321 177.414 300.478C190.579 295.452 199.236 288.494 200.181 280.553H199.817V280.881L200.181 280.553L201.709 261.867V261.575H201.381L190.943 264.89V265.218L191.416 264.999C178.868 255.893 154.719 249.773 126.969 249.773C102.092 249.773 80.1609 254.691 66.8132 262.267L66.9951 262.595V262.231L53.6474 261.721H53.3564V261.976L53.4656 261.903Z" fill="#7C4317"/>
<path d="M53.4609 261.901C53.4609 278.074 86.5938 291.042 127.473 291.042C168.353 291.042 201.449 277.928 201.449 261.901C201.449 245.874 168.353 232.578 127.473 232.578C86.5938 232.578 53.4609 245.691 53.4609 261.901Z" fill="#F9A84C"/>
<path d="M53.4656 261.903H53.2109C53.2109 270.244 61.6487 277.602 75.0328 282.957C109.06 294.42 145.896 294.42 179.923 282.957C193.344 277.602 201.745 270.244 201.745 261.903C201.745 253.561 193.271 246.167 179.923 240.812C145.896 229.349 109.06 229.349 75.0328 240.812C61.576 246.167 53.2109 253.525 53.2109 261.903H53.902C53.902 254.071 62.0124 246.786 75.3601 241.468C109.221 230.058 145.88 230.058 179.741 241.468C193.089 246.786 201.199 254.071 201.199 261.903C201.199 269.734 193.089 276.983 179.741 282.301C145.873 293.666 109.229 293.666 75.3601 282.301C62.0124 276.983 53.8656 269.698 53.902 261.903H53.4656Z" fill="#7C4317"/>
<path d="M55.8242 261.359C55.8242 275.929 87.8296 287.84 127.327 287.84C166.825 287.84 198.685 275.929 198.685 261.359C198.685 246.788 166.679 234.877 127.218 234.877C87.7569 234.877 55.8242 246.788 55.8242 261.359Z" fill="#C7883C"/>
<path d="M55.8247 261.358H55.4609C55.4609 268.971 63.6805 275.6 76.6282 280.408C109.619 290.802 145 290.802 177.991 280.408C190.938 275.6 199.122 268.971 199.158 261.358C199.194 253.745 190.938 247.115 177.991 242.307C145 231.913 109.619 231.913 76.6282 242.307C63.6805 247.115 55.4973 253.745 55.4609 261.358H56.1884C56.1884 254.327 63.9715 247.734 76.8827 242.963C109.715 232.666 144.904 232.666 177.736 242.963C190.647 247.734 198.467 254.327 198.43 261.358C198.394 268.388 190.647 274.981 177.736 279.571C144.904 289.867 109.715 289.867 76.8827 279.571C63.9715 274.799 56.152 268.206 56.1884 261.358H55.8247Z" fill="#7C4317"/>
<path d="M173.229 257.421C173.229 257.421 174.575 253.997 163.045 249.845C151.516 245.692 148.861 253.014 148.861 253.014C148.861 253.014 149.225 249.845 143.042 245.729C136.859 241.613 127.658 248.169 127.658 248.169C117.62 243.58 110.091 253.924 110.091 253.924C100.853 244.709 85.2504 253.742 85.2504 253.742C69.3568 250.318 65.4653 263.286 65.4653 263.286C62.2219 263.096 59.0303 264.166 56.5547 266.273C64.3742 277.783 92.0516 286.854 125.184 287.655C161.009 288.493 190.905 279.459 196.396 266.819C193.135 264.075 189.208 262.24 185.013 261.501C181.376 256.292 173.229 257.276 173.229 257.276V257.421Z" fill="#584521"/>
<path d="M173.627 257.495C174.755 253.598 165.298 250.538 163.189 249.736C158.825 248.024 151.769 247.187 148.968 252.104C148.568 252.833 148.714 252.76 148.968 252.723C149.223 252.687 149.296 252.723 149.332 252.942C149.137 251.834 148.689 250.787 148.023 249.882C146.068 247.143 143.163 245.234 139.876 244.528C136.963 244.196 134.016 244.728 131.402 246.057C130.132 246.615 128.915 247.285 127.765 248.061C128.238 247.769 123.291 247.041 123.873 247.077C120.505 246.905 117.172 247.839 114.381 249.736C113.042 250.638 111.821 251.702 110.744 252.905C109.325 254.399 109.18 252.505 107.325 251.667C104.054 250.353 100.535 249.773 97.0165 249.968C93.4977 250.163 90.0643 251.129 86.9581 252.796C85.4331 253.399 83.7704 253.563 82.1573 253.27C81.1298 253.158 80.0933 253.158 79.0658 253.27C75.6374 253.484 72.3592 254.756 69.6824 256.912C67.8577 258.468 66.4353 260.443 65.5363 262.668C65.1726 263.505 58.0077 265.108 56.3711 266.31C62.1903 274.324 72.3011 278.222 81.3572 281.172C95.6623 285.473 110.502 287.73 125.437 287.874C140.987 288.489 156.542 286.783 171.59 282.811C180.61 280.334 192.43 276.072 196.831 267.002C193.012 263.651 187.993 263.068 184.247 260.263C181.116 257.926 177.219 256.859 173.336 257.277C172.973 257.277 173.591 257.604 173.773 257.604C178.392 257.167 181.883 261.065 186.284 262.012C190.103 262.85 198.14 264.853 194.685 269.734C193.399 271.436 191.852 272.923 190.103 274.142C178.901 282.848 162.498 285.07 148.932 286.745C130.072 288.797 111.005 287.826 92.4499 283.867C84.47 282.24 76.724 279.621 69.3915 276.072C66.6036 274.678 63.9704 272.993 61.5356 271.046C60.5206 270.223 59.5721 269.322 58.6988 268.35C55.0618 264.707 65.609 263.651 65.9727 263.651H66.191C68.8823 255.237 77.6474 252.723 85.6488 254.18C86.4125 254.18 88.0855 253.088 88.7038 252.796C95.6504 249.664 103.906 248.789 110.162 254.217H110.744C111.725 252.985 112.835 251.862 114.054 250.866C118.854 246.749 121.509 248.389 128.165 248.534C129.329 248.534 131.111 246.895 132.202 246.385C137.476 243.872 149.078 245.802 148.896 252.978L149.587 253.16C150.168 251.974 151.04 250.954 152.121 250.197C153.203 249.439 154.458 248.967 155.77 248.826C153.915 249.19 175.046 251.157 173.264 257.349L173.955 257.532L173.627 257.495Z" fill="#403215"/>
<path d="M86.2326 256.365C86.2326 256.365 73.4304 254.143 70.9936 260.919C68.5569 267.694 60.2646 264.051 65.5745 269.916C70.8845 275.78 79.0678 276.072 82.7775 272.903C86.4872 269.734 87.8328 265.217 95.1795 265.836C102.526 266.455 97.98 260.591 93.6156 260.518C89.2513 260.445 97.2526 254.945 100.89 254.544C104.527 254.143 93.3974 250.246 86.3417 256.365H86.2326Z" fill="#6C562B"/>
<path d="M118.124 263.105C118.124 263.105 115.215 259.463 106.595 259.463C97.9753 259.463 102.958 262.741 102.485 264.38C102.012 266.02 107.795 269.334 107.795 269.334C108.788 267.459 110.277 265.893 112.099 264.807C113.92 263.721 116.005 263.158 118.124 263.178V263.105Z" fill="#6C562B"/>
<path d="M114.313 255.127C113.44 255.127 119.623 248.352 125.951 250.428C128.636 251.113 131.466 250.961 134.062 249.991C135.434 249.326 136.949 249.011 138.472 249.074C139.995 249.138 141.479 249.578 142.791 250.355C147.846 253.998 145.628 257.24 145.628 257.24C145.628 257.24 129.588 257.058 128.061 264.051C126.586 261.625 124.584 259.563 122.204 258.018C119.824 256.473 117.127 255.485 114.313 255.127Z" fill="#6C562B"/>
<path d="M156.719 262.996C156.719 262.996 155.264 262.996 153.373 262.595C148.1 261.939 138.243 261.32 134.752 266.238C134.752 266.238 132.788 267.695 136.57 270.827C140.353 273.96 143.117 274.871 143.044 278.732C143.044 278.732 148.136 267.512 168.103 272.394C188.07 277.275 190.361 268.751 186.288 266.238C182.214 263.724 174.177 267.185 174.177 267.185C174.177 267.185 171.085 259.681 156.719 262.996Z" fill="#6C562B"/>
<path d="M168.357 256.691C167.104 255.225 165.509 254.091 163.713 253.392C161.917 252.693 159.976 252.45 158.064 252.684C152.099 253.85 170.03 262.046 168.357 256.691Z" fill="#775E30"/>
<path d="M132.928 276.44C130.775 274.899 128.307 273.858 125.703 273.392C123.098 272.925 120.423 273.046 117.871 273.744C117.871 273.744 117.143 282.159 115.179 282.013C113.215 281.867 110.051 269.737 99.6857 270.721C89.3203 271.704 84.7741 276.003 89.0293 279.499C93.2846 282.996 113.688 287.222 126.054 286.202C138.419 285.182 135.983 279.718 132.928 276.44Z" fill="#6C562B"/>
<path d="M160.026 276.221C160.026 276.221 151.48 275.164 147.588 280.3C143.696 285.436 161.554 284.38 167.882 281.393C174.211 278.406 161.008 276.293 160.026 276.221Z" fill="#6C562B"/>
<path d="M131.473 237.097C112.477 237.017 93.5905 239.993 75.5366 245.912C70.954 248.389 75.2093 251.886 81.6467 251.886C84.8994 251.873 88.0937 251.02 90.921 249.409C93.1311 248.125 95.6399 247.447 98.1949 247.442C100.245 247.496 102.278 247.84 104.232 248.462C105.772 248.991 107.373 249.322 108.997 249.446C109.608 249.469 110.214 249.337 110.761 249.064C111.308 248.79 111.777 248.383 112.125 247.879C113.167 246.794 114.442 245.961 115.854 245.444C117.265 244.926 118.776 244.738 120.271 244.892C122.465 244.915 124.648 245.184 126.782 245.694C126.782 245.694 127.473 242.634 136.82 242.634H138.347C149.258 242.962 150.458 248.134 150.458 248.134C151.331 244.856 159.042 245.038 160.205 242.124C161.369 239.21 156.932 238.991 156.932 238.991C148.508 237.69 139.997 237.044 131.473 237.061V237.097Z" fill="#D09C5D"/>
<path d="M86.4137 258.916C86.1228 258.37 82.7767 256.22 76.3756 258.661C69.9746 261.101 73.5752 264.416 78.4123 263.615C83.2495 262.813 87.323 260.701 86.4137 258.916Z" fill="#7C6232"/>
<path d="M111.039 260.884C111.039 260.884 106.675 260.046 107.402 261.831C108.129 263.616 115.367 261.831 111.039 260.884Z" fill="#7C6232"/>
<path d="M144.13 255.019C143.654 253.522 142.66 252.244 141.326 251.415C139.993 250.587 138.407 250.263 136.856 250.502C131.401 251.304 143.767 258.225 144.13 255.019Z" fill="#7C6232"/>
<path d="M172.105 267.149C172.105 267.149 161.703 261.794 161.703 266.894C161.703 271.993 175.996 270.864 172.105 267.149Z" fill="#7C6232"/>
<path d="M198.687 272.941C195.05 289.114 165.227 302.082 165.227 302.082C173.411 299.456 181.386 296.217 189.085 292.393C193.241 289.671 196.346 285.61 197.887 280.882L198.687 272.832V272.941Z" fill="#DE9225"/>
<path d="M82.3056 260.848C81.6315 260.239 80.8438 259.77 79.9878 259.468C79.1318 259.166 78.2246 259.036 77.3184 259.087C76.4122 259.138 75.525 259.368 74.708 259.764C73.8911 260.16 73.1605 260.714 72.5585 261.394C67.4667 266.275 70.0853 270.646 75.4317 270.136C80.778 269.626 87.6519 265.146 82.3056 260.848Z" fill="#584521"/>
<path d="M82.63 260.773C81.6497 259.916 80.4661 259.325 79.1925 259.057C77.9189 258.789 76.5979 258.853 75.3561 259.243C72.01 260.19 67.3184 265.29 70.1552 268.787C72.4101 271.519 77.4292 270.135 80.0478 268.787C81.831 268.126 83.3076 266.829 84.1939 265.144C84.9577 263.359 83.6847 261.793 82.4482 260.7H81.8299C84.6667 263.177 83.7575 265.873 80.8843 267.986C78.0111 270.098 72.592 271.446 70.4098 267.986C68.2276 264.525 72.8466 260.7 75.2834 259.571C76.378 259.125 77.5776 259.005 78.7387 259.225C79.8998 259.445 80.973 259.995 81.8299 260.81H82.4482L82.63 260.773Z" fill="#403215"/>
<path d="M83.3942 262.594C83.2388 263.089 83.0055 263.556 82.7031 263.978C83.0497 264.012 83.3913 264.085 83.7215 264.196C83.751 263.643 83.6383 263.091 83.3942 262.594Z" fill="#54401D"/>
<path d="M83.5078 262.051C83.5337 262.232 83.5337 262.416 83.5078 262.597C83.7519 263.095 83.8646 263.646 83.8351 264.2L84.3443 264.418C84.4054 263.566 84.1459 262.721 83.6169 262.051H83.5078Z" fill="#3D2E12"/>
<path d="M70.0857 265.981C70.0014 266.723 70.1818 267.472 70.5948 268.094C71.0492 268.752 71.6675 269.28 72.3885 269.625C73.1094 269.97 73.9078 270.12 74.7046 270.061C76.1534 270.007 77.5814 269.699 78.9235 269.15C78.6666 268.728 78.5306 268.242 78.5306 267.748C78.5306 267.253 78.6666 266.768 78.9235 266.345H78.087C76.7005 267.077 75.177 267.511 73.6135 267.62C73.0893 267.634 72.5683 267.535 72.086 267.329C70.8494 266.782 70.1584 266.382 69.9766 265.799L70.0857 265.981Z" fill="#54401D"/>
<path d="M70.7059 263.688C68.5601 267.33 70.7059 270.171 74.5611 270.171H75.434C76.6763 270.024 77.8971 269.731 79.0709 269.297C77.7288 269.846 76.3007 270.154 74.852 270.208C74.0552 270.267 73.2568 270.117 72.5359 269.772C71.8149 269.427 71.1967 268.899 70.7423 268.241C70.3292 267.619 70.1488 266.87 70.2331 266.128C70.2331 265.618 70.2331 264.999 70.9241 264.015V263.833L70.7059 263.688Z" fill="#3D2E12"/>
<path d="M78.1207 260.191C77.0661 260.32 76.0474 260.656 75.1234 261.182C74.1995 261.707 73.3887 262.41 72.7379 263.251C72.3781 263.65 72.1385 264.142 72.0469 264.672C72.0469 265.109 72.447 265.255 72.9925 265.255C74.2685 265.179 75.5113 264.818 76.6295 264.198C77.5751 263.579 80.9939 262.523 80.9575 261.466C80.9575 261.102 80.6301 260.774 79.7209 260.446C79.2421 260.277 78.7377 260.19 78.2298 260.191H78.1207Z" fill="#654E21"/>
<path d="M84.7733 265.002C84.4572 264.688 84.0778 264.445 83.6605 264.29C83.2432 264.135 82.7975 264.07 82.3534 264.101C81.9093 264.132 81.4769 264.258 81.0851 264.47C80.6933 264.682 80.3512 264.975 80.0817 265.33C77.7904 267.989 79.1724 270.284 81.7183 269.992C84.2642 269.701 87.4647 267.26 84.7733 265.002Z" fill="#584521"/>
<path d="M85.0697 265C84.6317 264.581 84.0963 264.279 83.512 264.12C82.9277 263.961 82.313 263.95 81.7237 264.089C79.7597 264.672 77.4684 267.55 79.1414 269.48C81.4691 272.067 88.5248 268.242 85.0697 265H84.4514C87.6519 267.987 81.1781 271.484 79.5051 268.825C78.5959 267.404 80.1598 265.51 81.1781 264.672C81.6717 264.323 82.2745 264.164 82.8759 264.224C83.4772 264.284 84.0367 264.56 84.4514 265H85.0697Z" fill="#403215"/>
<path d="M177.956 269.189C177.282 268.581 176.494 268.112 175.638 267.81C174.782 267.507 173.875 267.378 172.969 267.429C172.063 267.48 171.175 267.71 170.358 268.106C169.541 268.502 168.811 269.056 168.209 269.736C163.117 274.617 165.736 278.988 171.046 278.478C176.356 277.968 183.302 273.488 177.956 269.189Z" fill="#584521"/>
<path d="M178.207 269.189C177.322 268.391 176.261 267.813 175.111 267.503C173.96 267.193 172.753 267.159 171.588 267.404C167.951 268.133 163.077 273.487 166.023 277.057C168.314 279.862 173.297 278.551 175.879 277.349C177.657 276.679 179.131 275.384 180.025 273.706C180.789 271.958 179.443 270.318 178.207 269.262C178.207 269.262 177.407 269.007 177.661 269.262C184.499 275.163 168.86 282.084 166.059 276.292C164.568 273.232 168.351 269.699 170.642 268.388C171.761 267.797 173.034 267.564 174.289 267.72C175.544 267.877 176.721 268.415 177.661 269.262C177.661 269.262 178.498 269.481 178.207 269.262V269.189Z" fill="#403215"/>
<path d="M174.644 274.689L173.844 274.872C172.457 275.603 170.934 276.038 169.37 276.147H168.861C168.074 276.43 167.273 276.673 166.461 276.875C166.947 277.416 167.551 277.839 168.225 278.11C168.9 278.382 169.627 278.495 170.352 278.441C171.805 278.422 173.24 278.113 174.571 277.531C174.262 277.129 174.094 276.636 174.094 276.128C174.094 275.621 174.262 275.128 174.571 274.726L174.644 274.689ZM179.045 271.047C178.9 271.557 178.666 272.038 178.354 272.467C178.705 272.496 179.049 272.583 179.372 272.722C179.397 272.146 179.285 271.572 179.045 271.047Z" fill="#54401D"/>
<path d="M166.463 276.84H166.172C166.68 277.386 167.302 277.813 167.993 278.09C168.685 278.367 169.429 278.487 170.173 278.443H171.045C172.29 278.306 173.512 278.012 174.682 277.568C173.351 278.15 171.916 278.46 170.463 278.479C169.738 278.533 169.011 278.419 168.336 278.148C167.662 277.876 167.058 277.454 166.572 276.913L166.463 276.84ZM179.119 270.393C179.136 270.562 179.136 270.733 179.119 270.903C179.36 271.427 179.472 272.002 179.447 272.578C179.619 272.613 179.781 272.688 179.92 272.797C179.968 272.367 179.929 271.933 179.804 271.519C179.679 271.106 179.471 270.722 179.192 270.393H179.119Z" fill="#3D2E12"/>
<path d="M173.779 268.643C173.284 268.653 172.793 268.739 172.324 268.898C173.597 269.48 174.252 270.318 173.488 271.702C173.435 271.827 173.374 271.949 173.306 272.067C174.652 271.484 176.507 270.682 176.507 269.918C176.507 269.153 176.143 269.225 175.27 268.898C174.791 268.728 174.287 268.641 173.779 268.643Z" fill="#654E21"/>
<path d="M180.501 273.416C180.189 273.103 179.812 272.861 179.398 272.706C178.983 272.55 178.54 272.486 178.099 272.517C177.658 272.548 177.228 272.674 176.84 272.886C176.451 273.097 176.112 273.39 175.846 273.744C173.555 276.403 174.901 278.698 177.446 278.406C179.992 278.115 183.193 275.675 180.501 273.416Z" fill="#584521"/>
<path d="M180.719 273.376C180.288 272.944 179.756 272.628 179.172 272.456C178.587 272.284 177.969 272.262 177.373 272.392C175.664 272.902 173.009 275.743 174.646 277.601C177.082 280.406 184.211 276.654 180.719 273.376H180.101C183.302 276.399 176.755 279.823 175.118 277.273C174.427 276.108 175.373 274.65 176.064 273.631C176.29 273.322 176.579 273.064 176.912 272.874C177.244 272.685 177.613 272.567 177.993 272.529C178.374 272.491 178.758 272.534 179.122 272.655C179.485 272.776 179.818 272.972 180.101 273.23H180.719V273.376Z" fill="#403215"/>
<path d="M56.8406 273.961C56.7975 277.062 57.0533 280.161 57.6044 283.213C58.4204 284.82 59.3693 286.355 60.4412 287.803C79.208 302.373 108.631 305.032 129.362 305.032C137.391 305.031 145.415 304.617 153.402 303.794C156.057 303.794 155.039 292.32 155.039 292.32C145.434 293.331 135.783 293.853 126.125 293.886C69.9337 293.886 56.8406 273.961 56.8406 273.961Z" fill="#FAB64F"/>
<path d="M107.759 269.261C107.759 269.261 102.049 265.983 102.449 264.307C102.849 262.632 98.1937 259.39 105.868 259.39H106.559C115.178 259.608 118.088 263.032 118.088 263.032C115.968 263.012 113.884 263.575 112.062 264.661C110.241 265.747 108.752 267.313 107.759 269.188V269.261ZM107.759 269.99C108.442 269.942 109.097 269.702 109.65 269.298C112.087 265.91 121.725 267.44 120.961 263.906C120.197 260.373 106.159 255.893 106.159 255.893H107.759C111.864 255.992 115.886 257.075 119.487 259.053C123.088 261.03 126.163 263.844 128.453 267.258C131.181 261.939 139.11 260.555 142.71 260.555C144.892 260.555 145.474 261.065 142.456 261.539C140.134 261.9 137.931 262.813 136.033 264.201C134.135 265.589 132.596 267.411 131.545 269.516C137.8 271.301 142.456 278.914 140.419 278.914C139.801 278.914 138.528 278.222 136.455 276.401C131.718 272.846 125.892 271.056 119.979 271.337C114.924 271.337 111.396 272.394 113.178 272.94C116.815 274.069 115.542 280.772 115.542 280.772C114.451 274.106 104.086 269.844 104.086 269.844C102.106 269.378 100.081 269.133 98.0483 269.115C94.9045 268.986 91.8035 269.88 89.2104 271.665C87.7895 273.152 86.567 274.817 85.5734 276.619C86.2645 274.641 87.5312 272.916 89.2104 271.665C90.4486 270.345 91.941 269.29 93.5975 268.564C95.254 267.838 97.0402 267.456 98.8484 267.44C101.778 267.557 104.635 268.382 107.177 269.844C107.392 269.895 107.617 269.895 107.832 269.844L107.759 269.99ZM116.67 252.469C114.914 252.488 113.163 252.647 111.432 252.942C111.069 253.343 110.705 253.744 110.378 254.181H109.796C109.533 253.931 109.254 253.699 108.959 253.489C103.85 254.732 98.811 256.252 93.8657 258.042C92.2291 259.353 91.5745 260.555 93.5748 260.592C97.7209 260.592 102.049 265.983 96.157 265.983H95.1387H93.8294C87.6101 265.983 86.2281 270.099 82.7366 273.086C82.059 273.659 81.2825 274.104 80.4453 274.397C81.2563 275.096 82.1476 275.695 83.1003 276.182L88.192 278.841C85.4643 275.526 90.0833 271.847 99.6485 270.9H100.849C110.269 270.9 113.214 282.119 115.142 282.229C117.07 282.229 117.797 273.96 117.797 273.96C119.31 273.523 120.877 273.302 122.452 273.304C126.181 273.327 129.812 274.497 132.854 276.656C135.364 279.351 137.473 283.577 131.108 285.507C132.6 285.216 134.127 284.851 135.764 284.451C138.288 283.82 140.852 283.358 143.438 283.067C141.001 282.447 143.983 275.199 154.676 273.122C156.364 272.783 158.082 272.612 159.804 272.612C161.663 272.604 163.516 272.799 165.332 273.195C165.332 272.831 165.66 272.467 165.841 272.102C163.446 271.625 161.01 271.381 158.568 271.374C146.238 271.374 142.819 278.95 142.819 278.95C142.819 275.089 140.128 274.142 136.346 271.046C132.563 267.95 134.527 266.456 134.527 266.456C136.818 263.214 141.801 262.377 146.675 262.377C148.839 262.392 151.001 262.538 153.148 262.814C154.894 263.032 156.131 263.214 156.458 263.214L159.331 262.668C154.712 261.175 147.475 259.9 146.529 257.423C146.37 257.009 146.121 256.636 145.802 256.33C145.72 256.728 145.573 257.11 145.365 257.459C144.056 257.459 129.363 257.459 127.908 264.271C126.433 261.844 124.431 259.782 122.051 258.237C119.671 256.692 116.974 255.704 114.16 255.346C113.76 255.346 114.778 253.999 116.56 252.687L116.67 252.469Z" fill="#3C2C13"/>
<path d="M110.383 253.16L109.328 253.342H109.692C109.938 253.328 110.171 253.224 110.347 253.051L110.383 253.16Z" fill="#875723"/>
<path d="M96.8555 282.702H97.2555C100.081 283.85 103.083 284.503 106.13 284.632C103.002 284.1 99.9057 283.394 96.8555 282.52V282.702Z" fill="#3C2C13"/>
<path d="M111.402 252.943L110.311 253.161C110.135 253.335 109.902 253.438 109.656 253.453H109.292H108.965C109.26 253.663 109.539 253.895 109.801 254.145H110.383C110.711 253.708 111.074 253.307 111.438 252.906L111.402 252.943Z" fill="#2B200C"/>
<path d="M93.9049 257.969L90.668 259.061C83.7941 261.211 90.668 262.704 85.5762 265.582C87.2128 267.913 83.976 270.317 81.3573 270.317C80.6496 270.354 79.9523 270.134 79.3933 269.698C78.375 271.228 78.7751 272.721 80.4844 274.215C81.3217 273.921 82.0982 273.477 82.7758 272.903C86.4127 269.916 87.6493 265.8 93.8685 265.8H95.1778H96.1962C102.088 265.8 97.7601 260.482 93.6139 260.409C91.6136 260.409 92.2683 259.171 93.9049 257.859V257.969Z" fill="#493719"/>
<path d="M109.364 262.56C108.455 262.56 107.655 262.341 107.436 261.831C107.218 261.321 108.018 260.665 109.037 260.665C109.709 260.676 110.378 260.75 111.037 260.884C114.092 261.467 111.473 262.56 109.364 262.56ZM105.909 259.391C98.2348 259.391 102.89 262.705 102.49 264.308C102.09 265.911 107.8 269.262 107.8 269.262C108.793 267.386 110.282 265.82 112.103 264.735C113.925 263.649 116.009 263.086 118.129 263.106C118.129 263.106 115.219 259.463 106.6 259.463L105.909 259.391Z" fill="#493719"/>
<path d="M116.815 252.472C115.033 253.783 114.015 255.094 114.415 255.131C117.228 255.488 119.926 256.476 122.306 258.021C124.686 259.566 126.688 261.629 128.162 264.055C129.617 257.389 144.311 257.243 145.62 257.243C145.827 256.894 145.975 256.512 146.056 256.114C145.516 255.643 144.866 255.317 144.165 255.167C144.165 255.677 143.62 255.859 143.001 255.859C141.963 255.798 140.948 255.525 140.019 255.058C139.198 255.165 138.384 255.323 137.582 255.531C133.618 254.256 130.49 256.151 121.943 253.2C120.283 252.685 118.552 252.44 116.815 252.472Z" fill="#493719"/>
<path d="M146.899 262.156C142.171 262.156 137.043 262.994 134.752 266.236C134.752 266.236 132.788 267.693 136.57 270.826C140.353 273.958 143.117 274.869 143.044 278.73C143.044 278.73 146.463 271.153 158.792 271.153C161.235 271.161 163.671 271.405 166.066 271.882C166.397 271.329 166.774 270.805 167.194 270.316C164.502 270.134 161.847 269.114 161.847 266.892C161.822 266.633 161.849 266.372 161.925 266.124C162.001 265.876 162.126 265.645 162.291 265.445C162.457 265.245 162.661 265.08 162.89 264.96C163.12 264.839 163.371 264.765 163.629 264.742C163.411 263.868 161.847 263.14 159.738 262.448L156.865 262.994C156.537 262.994 155.301 262.994 153.555 262.593C151.408 262.318 149.246 262.172 147.081 262.156H146.899Z" fill="#493719"/>
<path d="M100.889 270.681H99.6892C90.1239 271.628 85.505 275.307 88.2327 278.622C90.4876 279.787 92.4516 280.698 96.7432 282.665C99.7934 283.54 102.89 284.245 106.018 284.778C112.528 285.288 119.765 284.778 124.202 285.579C125.019 285.726 125.846 285.799 126.676 285.798C128.241 285.77 129.801 285.587 131.331 285.251C137.696 283.321 135.586 279.095 133.077 276.4C130.034 274.241 126.403 273.071 122.675 273.049C121.1 273.046 119.533 273.267 118.02 273.704C118.02 273.704 117.292 281.973 115.365 281.973C113.437 281.973 110.491 270.645 101.071 270.645L100.889 270.681Z" fill="#493719"/>
<path d="M109.035 260.664C108.017 260.664 107.035 260.883 107.435 261.83C107.835 262.777 108.454 262.558 109.363 262.558C111.472 262.558 114.091 261.465 111.036 260.883C110.377 260.748 109.708 260.675 109.035 260.664Z" fill="#543F1C"/>
<path d="M141.987 254.947C141.333 254.909 140.678 254.909 140.023 254.947C140.953 255.415 141.968 255.687 143.006 255.748C143.624 255.748 144.097 255.566 144.17 255.056C143.455 254.89 142.721 254.816 141.987 254.838V254.947Z" fill="#543F1C"/>
<path d="M163.479 264.744C163.221 264.767 162.969 264.841 162.74 264.961C162.51 265.082 162.306 265.247 162.141 265.447C161.975 265.647 161.85 265.877 161.774 266.126C161.698 266.374 161.672 266.635 161.697 266.893C161.697 269.115 164.352 270.135 167.043 270.317C167.883 269.376 168.88 268.587 169.989 267.986C166.898 267.221 163.115 266.82 163.479 265.108C163.515 264.99 163.515 264.863 163.479 264.744Z" fill="#543F1C"/>
<path d="M89.176 271.666C87.4969 272.917 86.2301 274.642 85.5391 276.62C86.5326 274.818 87.7551 273.153 89.176 271.666ZM107.834 255.857H106.197C106.197 255.857 120.236 260.338 121 263.871C121.763 267.404 112.125 265.875 109.689 269.262C109.136 269.666 108.48 269.906 107.797 269.954C107.582 270.005 107.358 270.005 107.143 269.954C104.601 268.492 101.743 267.667 98.814 267.55C97.0058 267.566 95.2196 267.948 93.5631 268.675C91.9066 269.401 90.4142 270.456 89.176 271.776C91.7692 269.991 94.8702 269.096 98.0139 269.226C100.047 269.244 102.072 269.488 104.051 269.954C104.051 269.954 114.417 274.18 115.508 280.882C115.508 280.882 116.781 274.18 113.144 273.05C111.362 272.504 114.889 271.448 119.945 271.448C125.857 271.166 131.683 272.956 136.42 276.511C138.493 278.332 139.766 279.024 140.385 279.024C142.458 279.024 137.766 271.411 131.51 269.626C132.562 267.521 134.101 265.699 135.999 264.311C137.897 262.923 140.099 262.011 142.421 261.649C145.44 261.176 144.858 260.666 142.676 260.666C139.039 260.666 131.147 262.05 128.419 267.368C126.128 263.954 123.054 261.141 119.453 259.163C115.852 257.186 111.83 256.102 107.725 256.003L107.834 255.857Z" fill="#2F230E"/>
<path d="M161.919 274.871C149.044 274.871 145.08 281.865 144.207 282.775C145.044 282.775 145.916 282.775 146.789 282.775H147.771C147.044 282.229 146.971 281.428 147.771 280.408C149.117 278.972 150.765 277.854 152.595 277.136C154.426 276.418 156.394 276.117 158.355 276.255C159.482 276.255 160.21 276.255 160.21 276.255C161.9 276.487 163.576 276.815 165.229 277.239L166.138 277.02C165.693 276.452 165.416 275.771 165.338 275.053C164.21 275.053 163.119 275.053 162.101 275.053L161.919 274.871Z" fill="#3C2C13"/>
<path d="M158.174 276.145C156.243 276.034 154.31 276.348 152.513 277.065C150.716 277.783 149.098 278.886 147.772 280.297C147.009 281.317 147.081 282.119 147.772 282.665H148.391C156.974 282.665 157.338 279.46 163.63 277.638L165.194 277.165C163.541 276.742 161.865 276.413 160.175 276.181C160.175 276.181 159.447 276.181 158.32 276.181L158.174 276.145Z" fill="#493719"/>
<path d="M159.879 272.284C158.157 272.284 156.439 272.455 154.751 272.794C144.058 274.87 141.076 282.119 143.512 282.738H144.203C145.076 281.828 149.041 274.834 161.915 274.834C162.934 274.834 164.025 274.834 165.152 274.834C165.095 274.144 165.182 273.449 165.407 272.794C163.591 272.398 161.737 272.203 159.879 272.211V272.284Z" fill="#2F230E"/>
<path d="M85.0288 265.875L84.4105 266.166C82.6495 266.862 81.0518 267.916 79.7188 269.263C79.9488 269.474 80.2183 269.637 80.5117 269.743C80.8051 269.85 81.1165 269.897 81.4281 269.882C83.5376 269.882 86.1926 267.878 85.0651 265.875H85.0288Z" fill="#3C2C13"/>
<path d="M85.5786 265.582L85.033 265.873C86.1969 267.877 83.5419 269.88 81.3961 269.88C81.0844 269.895 80.7729 269.848 80.4796 269.742C80.1862 269.636 79.9167 269.472 79.6867 269.261L79.3594 269.698C79.9184 270.134 80.6156 270.354 81.3233 270.317C83.9419 270.317 87.1789 267.913 85.5422 265.582H85.5786Z" fill="#2B200C"/>
<path d="M170.793 268.203C169.607 268.824 168.561 269.681 167.717 270.72C166.872 271.76 166.249 272.961 165.883 274.25C166.101 274.796 166.756 275.233 167.956 275.743C168.293 275.88 168.648 275.966 169.011 275.998C170.005 275.667 170.917 275.125 171.682 274.408C172.448 273.691 173.05 272.817 173.448 271.846C173.045 272.01 172.656 272.205 172.284 272.428C171.173 273.072 169.928 273.446 168.647 273.521C168.101 273.521 167.701 273.339 167.701 272.902C167.774 272.374 168.002 271.88 168.356 271.481C169.405 270.211 170.774 269.242 172.32 268.677C171.827 268.442 171.316 268.247 170.793 268.094V268.203Z" fill="#3C2C13"/>
<path d="M169.987 267.988C168.878 268.589 167.881 269.378 167.041 270.32C166.622 270.809 166.244 271.333 165.914 271.886C165.732 272.25 165.55 272.614 165.405 272.979C165.179 273.633 165.093 274.328 165.15 275.018C165.228 275.736 165.505 276.418 165.95 276.985H166.168C165.69 276.253 165.451 275.39 165.484 274.516C165.516 273.642 165.819 272.799 166.35 272.104C165.696 273.088 165.477 273.744 165.659 274.253C166.025 272.965 166.649 271.764 167.493 270.724C168.337 269.685 169.384 268.828 170.569 268.207L169.769 267.988H169.987Z" fill="#2B200C"/>
<path d="M165.738 274.363C165.67 275.001 165.783 275.645 166.066 276.221C166.164 276.448 166.299 276.657 166.466 276.84C167.278 276.638 168.079 276.395 168.866 276.112C168.504 276.08 168.148 275.994 167.811 275.857C166.611 275.347 165.956 274.91 165.738 274.363Z" fill="#392911"/>
<path d="M166.354 272.027C165.823 272.722 165.52 273.565 165.487 274.439C165.455 275.313 165.694 276.176 166.172 276.908H166.463C166.297 276.725 166.161 276.516 166.063 276.289C165.78 275.714 165.667 275.069 165.735 274.431C165.554 273.922 165.735 273.266 166.427 272.282L166.354 272.027Z" fill="#291D0A"/>
<path d="M172.314 268.643C170.768 269.208 169.399 270.177 168.35 271.447C167.996 271.846 167.768 272.34 167.695 272.868C167.695 273.305 168.095 273.487 168.641 273.487C169.922 273.412 171.167 273.038 172.278 272.394C172.65 272.171 173.04 271.976 173.442 271.812C173.51 271.694 173.57 271.572 173.623 271.447C174.387 270.063 173.624 269.225 172.46 268.643H172.314Z" fill="#453213"/>
<path d="M89.8693 252.796C89.8693 252.796 59.5006 263.978 28.4408 223.655C-2.61899 183.331 11.3106 160.747 0.836149 154.774C-9.63834 148.8 79.7585 178.341 89.8693 252.796Z" fill="#03A24B"/>
<path d="M84.4856 254.073C82.93 254.274 81.3625 254.372 79.7939 254.364H80.0121C81.5303 254.373 83.0479 254.3 84.5583 254.145L84.4856 254.073ZM75.0295 211.6L75.2477 212.62C76.6297 214.842 77.9391 217.1 79.1393 219.431L79.7576 219.759C78.23 216.918 76.6661 214.223 75.0295 211.6ZM0.689672 154.156H0.507812C4.94492 154.775 39.678 168.727 64.7732 198.268V197.685C39.0234 167.925 3.67201 154.156 0.653323 154.156H0.689672Z" fill="#81D0A5"/>
<path d="M75.2069 212.619C75.6433 214.622 76.0797 216.261 76.4798 218.01L79.0984 219.43C77.8982 217.099 76.5889 214.841 75.2069 212.619ZM40.11 206.936C43.9226 213.086 48.8579 218.462 54.6579 222.781L60.9863 227.845C54.2215 217.864 47.3112 210.36 40.11 206.936ZM30.1083 190.982C29.7083 190.982 30.1084 191.492 31.2722 192.621C34.9092 195.681 36.1458 199.906 39.1281 205.261C44.5027 206.132 49.8036 207.411 54.9853 209.085C46.6202 199.942 31.9268 190.982 30.1083 190.982ZM0.467004 154.191C0.285156 154.191 0.467009 154.483 1.26714 154.884C11.7416 160.857 -2.36982 183.587 28.8354 223.765C48.6933 249.263 68.2602 254.181 79.7531 254.217C81.3217 254.225 82.8891 254.127 84.4448 253.926C82.1528 252.555 79.9537 251.034 77.8618 249.372C68.6603 248.644 49.4934 245.074 39.7099 228.318C26.5441 205.77 17.6699 199.833 15.5241 182.421C14.0329 170.037 10.5778 164.209 12.2144 164.209C14.0358 164.848 15.7337 165.797 17.2335 167.013C35.2389 180.423 52.0225 195.404 67.3873 211.781C66.1838 207.318 65.2847 202.779 64.696 198.194C39.6372 168.798 4.90411 154.811 0.467004 154.191Z" fill="#018430"/>
<path d="M59.8642 86.0412C59.8642 86.0412 66.1198 95.1113 64.0467 136.382C61.9737 177.652 62.301 209.817 74.5212 228.321C74.5212 228.321 80.0858 231.49 78.7037 226.572C77.3217 221.655 65.7925 179.729 68.2293 141.263C70.6661 102.797 69.284 90.2667 67.5383 87.4254C65.7925 84.5842 58.4458 80.4316 59.8642 86.0412Z" fill="#20461F"/>
<path d="M69.5351 110.227C69.5351 117.949 69.0623 128.112 68.2258 141.261C68.2258 144.431 67.9348 147.636 67.8984 150.805C67.8984 147.745 68.0076 144.686 68.2258 141.626C69.0623 128.257 69.4624 118.022 69.5351 110.227Z" fill="#8FA28F"/>
<path d="M66.3033 92.9219C67.2125 99.8428 67.3943 114.122 65.6486 141.623C63.8301 170.218 69.722 200.706 73.4681 216.515L76.3776 217.972C70.9077 195.994 68.015 173.452 67.758 150.803C67.758 147.634 67.758 144.428 68.0854 141.259C68.9219 128.109 69.3219 117.946 69.3947 110.224C69.5105 104.925 69.3405 99.6233 68.8855 94.3425C67.9826 93.9502 67.1181 93.4746 66.3033 92.9219Z" fill="#122C11"/>
<path d="M180.502 67.1345C182.032 60.35 186.176 54.4455 192.031 50.7064C201.451 44.4047 201.815 41.2721 201.815 39.5237C201.815 37.7752 211.235 65.0218 191.34 77.2973C171.446 89.5729 179.956 73.4362 180.502 67.1345Z" fill="#813D8E"/>
<path d="M62.6328 89.5361C62.6328 89.5361 65.797 95.1093 76.6352 96.1656C87.4734 97.222 91.1831 100.355 93.0379 101.775C93.7653 102.358 93.038 98.3148 90.0557 94.2715C85.9459 88.7712 77.5444 83.2709 62.6328 89.5361Z" fill="#6ABD45"/>
<path d="M77.2843 87.9707C75.32 88.7105 73.2363 89.081 71.1378 89.0635C70.0279 89.072 68.9197 88.9744 67.8282 88.7721L66.8462 89.282C66.5558 90.0288 66.1773 90.738 65.7188 91.3948C68.9117 93.3562 72.5295 94.5182 76.266 94.7824C86.5222 95.7659 90.4865 98.425 92.3414 100.101C91.1557 96.9076 89.1306 94.0948 86.4801 91.9596C83.8297 89.8245 80.6524 88.4462 77.2843 87.9707Z" fill="#4BA42C"/>
<path d="M61.6073 87.4216C61.6073 87.4216 42.0403 89.5344 36.1484 100.025C36.1484 100.025 48.696 95.7996 54.988 97.9123C57.934 98.8958 62.4438 95.6175 65.0624 92.3756C67.681 89.1336 68.4448 85.0175 61.6073 87.4216Z" fill="#6ABD45"/>
<path d="M57.7168 89.0273C52.7342 90.0108 43.5326 92.4514 38.2227 97.8788C42.1278 96.7388 46.1594 96.0902 50.2246 95.9482C51.7134 95.9018 53.1998 96.0987 54.6254 96.5311C55.0113 96.5869 55.4033 96.5869 55.7892 96.5311C57.7593 96.136 59.6263 95.3365 61.2725 94.1829C62.9188 93.0294 64.3086 91.5469 65.3545 89.8287H65.1362H63.536C61.5672 89.8542 59.6057 89.584 57.7168 89.0273Z" fill="#4BA42C"/>
<path d="M145.369 155.721C145.769 154.519 141.187 122.501 122.347 117.583C103.508 112.666 131.44 122.501 132.458 141.005C133.477 159.51 144.133 160.129 145.369 155.721Z" fill="#03A24B"/>
<path d="M145.622 153.318L145.259 153.573C145.354 154.249 145.354 154.936 145.259 155.613C145.042 156.292 144.615 156.884 144.039 157.303C143.464 157.722 142.77 157.947 142.058 157.944H142.276C142.862 157.957 143.443 157.828 143.968 157.568C144.494 157.308 144.949 156.925 145.295 156.451L145.731 155.431C145.734 154.725 145.697 154.02 145.622 153.318ZM116.854 116.236H116.672C118.536 116.53 120.382 116.931 122.2 117.438H122.018C120.335 116.889 118.607 116.486 116.854 116.236Z" fill="#81D0A5"/>
<path d="M116.678 116.236C113.295 116.491 132.026 125.78 132.899 140.897C133.59 153.391 138.572 157.762 142.173 157.944C142.884 157.947 143.579 157.722 144.154 157.303C144.73 156.884 145.157 156.292 145.373 155.613C145.469 154.936 145.469 154.25 145.373 153.573C144.753 153.928 144.051 154.116 143.337 154.119C139.7 154.119 134.572 149.785 133.844 137.108C133.371 128.439 127.007 121.7 122.315 117.438C120.461 116.927 118.579 116.526 116.678 116.236Z" fill="#018430"/>
<path d="M146.789 156.303C146.789 156.303 160.391 136.378 175.048 132.881C189.705 129.384 196.361 121.334 196.87 120.277C193.502 126.77 189.335 132.815 184.468 138.272C175.958 147.56 163.374 156.813 146.789 156.303Z" fill="#6ABD45"/>
<path d="M196.978 120.531C196.614 121.079 196.2 121.591 195.741 122.061C192.593 127.901 188.759 133.342 184.321 138.271C176.056 148.258 164.269 154.675 151.406 156.192C179.92 154.298 195.45 123.518 196.978 120.531Z" fill="#B4DEA2"/>
<path d="M195.741 122.062C195.019 122.834 194.254 123.564 193.45 124.248C186.867 134.265 173.301 150.511 153.079 152.296C152.534 153.607 151.988 154.882 151.406 156.194C164.269 154.677 176.056 148.259 184.321 138.272C188.759 133.344 192.593 127.902 195.741 122.062Z" fill="#4BA42C"/>
<path d="M169.116 93.0353C169.116 93.0353 169.116 54.8974 124.09 61.5633C127.208 61.1919 130.354 61.9812 132.929 63.7811C135.504 65.5811 137.328 68.2661 138.056 71.3255C141.875 82.8725 153.404 97.4429 169.116 93.0353Z" fill="#944290"/>
<path d="M168.066 93.3587C168.066 93.3587 176.468 70.301 192.871 71.6852C209.273 73.0694 215.893 70.6289 215.893 70.6289C212.504 72.1194 209.695 74.6775 207.891 77.9141C206.146 82.5402 197.053 96.1635 168.066 93.3587Z" fill="#944290"/>
<path d="M58.1171 53.7281C58.1171 53.7281 47.6426 36.608 57.0624 20.5077C66.4821 4.40745 67.5369 2.29474 67.1732 -0.109375C68.6215 8.02456 71.2177 15.9108 74.8836 23.3125C80.4482 33.8031 80.4481 50.9597 74.5199 56.0958C68.5916 61.2318 65.1001 71.9411 58.1171 53.7281Z" fill="#702776"/>
<path d="M57.2092 20.3633V20.6183C54.6273 25.0379 53.2713 30.0681 53.2813 35.1887C53.2713 30.0681 54.6273 25.0379 57.2092 20.6183V20.3633Z" fill="#B793BA"/>
<path d="M76.0124 25.902C76.5002 30.24 75.416 34.6093 72.9573 38.2139C72.0627 39.1591 71.2248 40.1565 70.4478 41.2008C71.9309 44.2004 73.2542 47.2767 74.4121 50.4166C76.1147 48.2129 77.6351 45.8739 78.9583 43.4228C79.2408 37.4386 78.2362 31.4635 76.0124 25.902ZM58.5186 18.1797L57.2092 20.3652V20.6202C54.6273 25.0398 53.2713 30.0701 53.2813 35.1906C53.2873 37.8873 53.5922 40.575 54.1905 43.2043C55.6595 44.5211 57.2147 45.738 58.8459 46.8469C60.1188 42.1844 61.2826 39.3067 62.01 37.0119L61.7918 36.3562C58.9621 30.7441 57.8247 24.4283 58.5186 18.1797Z" fill="#501656"/>
<path d="M74.1589 50.705C74.1589 50.705 84.2697 38.4659 82.1966 29.0316C80.1235 19.5973 95.7989 62.252 79.7599 73.0705C63.7208 83.889 70.3401 57.0067 74.1589 50.705Z" fill="#813D8E"/>
<path d="M82.3021 29.0313C82.4427 29.6908 82.5279 30.361 82.5567 31.0348C82.524 30.3614 82.4388 29.6915 82.3021 29.0313ZM82.3021 27.6836C85.2507 35.1198 86.9231 43.0017 87.2484 50.9962C86.8419 42.9869 85.0833 35.1045 82.0475 27.6836H82.3021ZM82.3021 27.6836C82.3021 27.6836 82.3021 28.0843 82.3021 29.0313C81.9748 28.23 81.9384 27.6836 82.0475 27.6836H82.3021Z" fill="#C09EC6"/>
<path d="M82.047 27.6836C82.047 27.6836 82.047 28.0843 82.047 29.0313C82.1997 29.7144 82.2971 30.4088 82.3379 31.1076C84.6656 42.0354 85.9749 58.4635 77.8281 65.348V66.6229C78.6263 66.1594 79.4522 65.7458 80.3012 65.3844L85.8294 62.9803C86.6723 59.1438 86.9784 55.2085 86.7387 51.2876V50.9962C86.4134 43.0017 84.741 35.1198 81.7924 27.6836H82.047Z" fill="#61266E"/>
<path d="M58.8135 46.8457C50.7599 41.6738 44.6262 33.9948 41.3561 24.9901C37.1736 11.3669 29.4995 65.8965 60.1956 83.2716C90.8916 100.647 58.8135 46.8457 58.8135 46.8457Z" fill="#813D8E"/>
<path d="M37.4609 39.7422C37.7982 45.931 38.9226 52.0514 40.8069 57.9552C38.9226 52.0514 37.7982 45.931 37.4609 39.7422Z" fill="#C09EC6"/>
<path d="M39.8959 23.0586C38.332 23.0586 36.8772 30.3438 37.4591 39.7417C37.7963 45.9305 38.9208 52.0509 40.8051 57.9546C42.8824 58.5791 44.8927 59.4088 46.8062 60.4316C41.2775 48.8773 39.0014 36.0311 40.2232 23.2771L39.8959 23.0586Z" fill="#61266E"/>
<path d="M66.1223 89.8644C66.1223 89.8644 53.9384 92.6692 42.4092 76.9332C30.88 61.1972 32.2984 59.0845 26.3338 58.0646C20.3691 57.0447 57.4299 47.9018 66.1223 89.8644Z" fill="#944290"/>
<path d="M66.0828 89.6437L65.3191 90.008H66.0828V89.6437ZM31.6407 56.4961C28.0037 56.4961 25.4942 57.2975 25.7124 57.771L26.1488 57.9896C32.1135 59.0095 30.695 61.1222 42.2243 76.8582L42.4061 77.0768L42.6243 77.3682L43.3881 78.3516C51.1712 87.8224 58.9544 89.2795 62.9187 89.498H64.5189C63.4251 88.3693 62.4275 87.1508 61.5366 85.8554C56.9176 85.1633 49.7164 82.4314 42.7334 72.9242C35.7868 63.1621 33.7501 58.6816 31.6407 56.4961Z" fill="#752970"/>
<path d="M65.1016 88.1164C65.1016 88.1164 65.7926 71.6882 80.5587 65.3866C95.3248 59.0849 99.2528 56.6443 100.344 53.5117C99.0104 59.6989 96.7932 65.6612 93.7609 71.2147C88.1599 81.7782 78.8493 92.3418 65.1016 88.1164Z" fill="#944290"/>
<path d="M100.419 53.3281L100.346 53.5103L100.31 53.6195L100.273 53.6924L100.346 53.5103L100.419 53.3281V53.3645V53.3281Z" fill="#C9A0C7"/>
<path d="M100.491 53.3672V53.5493C97.6909 62.8015 88.9622 84.9849 72.5231 85.2763C71.2055 86.5829 69.712 87.6987 68.0859 88.5911C69.1652 88.7933 70.2613 88.8908 71.3592 88.8825C81.8337 88.8825 89.2532 79.9581 93.9812 71.0338C96.9183 65.4576 99.1072 59.5174 100.491 53.3672Z" fill="#752970"/>
<path d="M65.1054 89.8661C61.2647 85.547 58.4773 80.3939 56.9626 74.8126C55.448 69.2314 55.2474 63.3741 56.3767 57.702C60.0136 37.4128 64.0507 36.7207 62.3049 29.3627C60.5592 22.0046 96.8562 76.9349 65.1054 89.8661Z" fill="#9F489B"/>
<path d="M67.5358 88.7363L67.2812 88.8456L67.6813 88.7363H67.5358Z" fill="#567937"/>
<path d="M67.756 88.733H67.3559L66.9922 88.9516V89.1701L67.9742 88.6602L67.756 88.733Z" fill="#3D6923"/>
<path d="M66.9198 89.0625L66.0469 89.4632V89.6453L66.8107 89.281L66.9198 89.0625Z" fill="#567937"/>
<path d="M65.3222 89.9746L65.0312 90.011L65.104 90.0839L65.3222 89.9746Z" fill="#3D6923"/>
<path d="M66.0502 89.461V89.6432V89.461ZM55.7939 67.6055C56.189 74.3021 58.3473 80.7745 62.0495 86.3649C58.2876 80.8069 56.0776 74.3428 55.6484 67.6419L55.7939 67.6055Z" fill="#782A74"/>
<path d="M62.0469 86.2551C62.9378 87.5504 63.9354 88.7689 65.0292 89.8976H65.3202L66.0839 89.5334V89.3513L65.1383 89.752C64.0697 88.6298 63.1078 87.4104 62.2651 86.1094L62.0469 86.2551Z" fill="#5F1A5A"/>
<path d="M78.3394 69.5391C78.4612 72.4611 77.9852 75.3773 76.9408 78.1084C75.8963 80.8395 74.3053 83.3279 72.2656 85.4208H72.4838C74.4329 83.282 75.9381 80.7766 76.9121 78.0502C77.8861 75.3238 78.3094 72.4307 78.1575 69.5391H78.3394Z" fill="#782A74"/>
<path d="M72.3062 85.418H72.088C70.7427 86.7136 69.225 87.8168 67.5781 88.6963H67.76C69.4222 87.8238 70.9528 86.72 72.3062 85.418Z" fill="#5F1A5A"/>
<path d="M75.0286 52.3438C76.8108 63.5265 75.0287 74.6 64.8088 79.4447C59.2379 72.1622 56.4979 63.1009 57.0984 53.9465C56.8802 55.1486 56.6256 56.4235 56.4074 57.7712C55.9943 60.1163 55.7874 62.493 55.7891 64.8743C55.7891 65.7121 55.7891 66.5499 55.7891 67.3877C56.2183 74.0885 58.4282 80.5527 62.1901 86.1106C63.0328 87.4116 63.9946 88.6311 65.0633 89.7532L66.009 89.3525L66.8818 88.9518L67.2455 88.7333H67.5001C69.147 87.8538 70.6646 86.7506 72.01 85.455C74.0497 83.3621 75.6407 80.8737 76.6851 78.1425C77.7296 75.4114 78.2055 72.4953 78.0837 69.5733C78.0038 63.7023 76.972 57.8833 75.0286 52.3438Z" fill="#812E7C"/>
<path d="M133.988 267.113C133.988 264.344 134.279 261.649 134.279 258.953C133.998 261.663 133.901 264.389 133.988 267.113Z" fill="#6ABD45"/>
<path d="M120.566 251.922C124.094 257.567 128.124 262.883 132.605 267.804C131.805 265.618 131.077 263.87 131.077 263.87C127.586 259.571 124.094 255.637 120.566 251.922Z" fill="#6ABD45"/>
<path d="M136.351 254.071V253.488C136.314 254.071 136.278 254.435 136.351 254.071Z" fill="#539A37"/>
<path d="M128.383 259.133C128.674 260.08 128.819 260.699 128.819 260.699C128.811 260.148 128.66 259.609 128.383 259.133Z" fill="#539A37"/>
<path d="M132.239 250.029C131.501 246.14 130.279 242.358 128.602 238.773C131.147 247.151 132.311 252.178 132.239 250.029Z" fill="#539A37"/>
<path d="M160.753 93.0344C161.512 107.665 159.258 122.295 154.134 136.017C145.732 156.671 121.401 203.15 132.13 248.937C132.13 248.937 138.059 254.875 137.004 244.02C135.949 233.165 135.949 190.547 150.279 158.383C164.608 126.218 171.228 98.9354 168.791 92.8158C166.354 86.6963 160.39 87.4248 160.753 93.0344Z" fill="#20461F"/>
<path d="M151.402 156.231C151.111 156.959 150.784 157.688 150.456 158.416C139.545 183.04 136.927 213.893 136.781 231.814C136.781 213.856 139.545 183.259 150.456 158.963C150.638 157.906 151.038 157.068 151.402 156.231ZM169.187 98.5684C168.568 107.638 163.913 125.014 155.657 145.667L155.912 145.412C164.095 124.759 168.678 107.456 169.223 98.5684H169.187Z" fill="#8FA28F"/>
<path d="M155.913 145.41L155.659 145.665C154.786 147.851 153.877 150.073 152.895 152.331C154.01 149.976 155.016 147.669 155.913 145.41Z" fill="#3B7826"/>
<path d="M151.408 156.195H151.263L151.227 156.232H151.408V156.195Z" fill="#658D5A"/>
<path d="M153.082 152.297C152.573 153.572 151.991 154.847 151.445 156.158C151.991 154.883 152.536 153.608 153.082 152.297Z" fill="#2A6818"/>
<path d="M133.914 250.43V250.83C134.287 251.017 134.697 251.117 135.114 251.122H135.332V250.43H135.078C134.695 250.517 134.297 250.517 133.914 250.43Z" fill="#8FA28F"/>
<path d="M166.72 96.9688C166.72 106.877 160.064 130.991 147.698 158.893C133.405 191.057 133.369 233.712 134.423 244.53C134.839 246.444 134.661 248.439 133.914 250.249C134.293 250.459 134.718 250.572 135.151 250.577H135.405C135.805 248.428 136.314 246.169 136.933 243.765C136.714 241.143 136.569 236.99 136.605 231.818C136.605 213.896 139.297 183.043 150.28 158.419C150.608 157.691 150.935 156.962 151.226 156.234C151.772 154.922 152.354 153.648 152.863 152.373C153.845 150.114 154.754 147.892 155.627 145.707C163.883 125.053 168.538 107.678 169.156 98.608C168.294 98.141 167.478 97.592 166.72 96.9688Z" fill="#122C11"/>
<path d="M164.247 92.995C164.247 92.995 141.552 87.0575 133.187 99.6609C124.822 112.264 127.95 107.711 135.26 105.598C142.57 103.486 146.789 98.6046 153.772 99.9887C155.534 100.205 157.321 100.008 158.994 99.4135C160.666 98.8193 162.178 97.8441 163.41 96.5647C165.374 94.707 165.956 92.8493 164.247 92.995Z" fill="#6ABD45"/>
<path d="M152.06 92.6699C145.223 92.6699 137.112 94.2362 132.821 100.72C131.075 103.306 129.875 105.164 129.184 106.475C131.092 105.584 133.061 104.829 135.075 104.217C141.513 102.359 145.514 98.3524 151.115 98.3524C151.933 98.367 152.748 98.4523 153.551 98.6074C154.071 98.6597 154.595 98.6597 155.115 98.6074C156.848 98.5007 158.542 98.0421 160.092 97.2593C161.643 96.4765 163.018 95.386 164.135 94.0541C164.135 94.0541 163.007 93.7627 161.153 93.4713L159.989 93.2528C157.363 92.8692 154.714 92.6744 152.06 92.6699Z" fill="#4BA42C"/>
<path d="M163.883 94.0532C165.515 96.1947 167.634 97.9161 170.062 99.0753C172.491 100.234 175.16 100.798 177.849 100.719C187.996 101.047 196.034 108.004 196.725 111.647C197.016 113.213 198.034 107.494 195.67 101.739C192.76 94.5631 184.686 87.4965 163.883 94.0532Z" fill="#6ABD45"/>
<path d="M183.266 93.0312C180.732 93.3347 178.181 93.4807 175.628 93.4684C174.064 93.4684 172.391 93.4684 170.646 93.4684C168.9 93.4684 167.009 94.2333 165.227 94.7797C168.617 97.7877 172.99 99.4465 177.52 99.4422C187.63 99.8065 195.704 106.727 196.359 110.37V110.625C196.359 110.625 196.614 110.151 196.686 109.35C196.69 105.492 195.352 101.754 192.903 98.7762C190.454 95.7985 187.047 93.7673 183.266 93.0312Z" fill="#4BA42C"/>
<path d="M157.332 50.8146C157.332 50.8146 151.767 36.4628 156.641 27.0285C161.514 17.5942 164.679 14.7894 164.315 10.6004C163.951 6.41145 178.281 29.1048 171.589 45.2051C164.897 61.3053 157.696 56.06 157.332 50.8146Z" fill="#702776"/>
<path d="M164.388 10.0176V10.4911C164.752 14.6801 161.588 17.4849 156.714 26.9192C154.7 31.4964 154.142 36.5834 155.114 41.4896C154.142 36.5834 154.7 31.4964 156.714 26.9192C161.588 17.4849 164.752 14.6801 164.388 10.4911V10.0176Z" fill="#B793BA"/>
<path d="M164.502 10.0176V10.4911C164.865 14.6801 161.701 17.4849 156.828 26.9192C154.814 31.4964 154.255 36.5834 155.227 41.4896C157.669 43.8458 159.687 46.6061 161.192 49.649L161.556 48.9569C161.037 48.093 160.726 47.1204 160.646 46.1157C160.646 46.1157 155.082 31.7639 159.955 22.3296C162.647 17.1207 164.792 13.9516 166.138 11.4018C165.302 10.6368 164.756 10.0176 164.502 10.0176Z" fill="#501656"/>
<path d="M188.759 57.0806C188.759 57.0806 200.616 43.1295 186.322 21.0918C186.225 23.8024 185.585 26.4658 184.442 28.9246C183.299 31.3835 181.675 33.5878 179.667 35.4072C173.229 41.0168 177.23 78.4262 188.759 57.0806Z" fill="#71327C"/>
<path d="M188.793 25.3164C194.648 41.5624 186.319 51.5067 186.319 51.5067C185.265 53.8208 183.668 55.8454 181.664 57.4076C181.955 58.9375 182.173 60.4674 182.319 62.0338C184.451 57.3832 187.824 53.4126 192.066 50.5596C193.283 46.3528 193.621 41.9396 193.058 37.5961C192.495 33.2526 191.043 29.0722 188.793 25.3164Z" fill="#511E5C"/>
<path d="M180.716 66.8787C182.264 60.1024 186.403 54.2042 192.245 50.4506C201.665 44.1489 202.029 41.0163 202.029 39.2678C202.029 37.5194 211.448 64.766 191.554 77.0415C171.66 89.317 180.025 73.1804 180.716 66.8787Z" fill="#813D8E"/>
<path d="M201.924 39.9976C201.877 40.2556 201.816 40.5109 201.742 40.7626V41.0176C201.851 40.688 201.912 40.3445 201.924 39.9976ZM201.924 38.832V39.4513V39.1599C203.428 43.0121 204.181 47.1172 204.143 51.2533C204.248 47.0152 203.532 42.7969 202.033 38.832H201.924Z" fill="#C09EC6"/>
<path d="M201.992 39.4512V39.9975C202.04 40.3358 202.04 40.6792 201.992 41.0175C202.152 40.5103 202.237 39.9828 202.247 39.4512H201.992Z" fill="#61266E"/>
<path d="M202.029 39.1602V39.4516C202.02 39.9832 201.934 40.5107 201.775 41.0179C202.902 49.6144 202.175 63.5655 189.445 71.3971C190.184 71.3594 190.925 71.3594 191.664 71.3971H193.082C194.683 71.3971 196.21 71.6156 197.629 71.6885C202.344 65.9576 204.757 58.6711 204.393 51.2536C204.385 47.1081 203.583 43.0026 202.029 39.1602Z" fill="#61266E"/>
<path d="M153.517 71.4315C153.517 71.4315 142.315 61.9972 143.734 49.5759C145.152 37.1547 142.315 33.1478 141.261 32.7836C140.206 32.4193 161.518 39.0853 163.628 58.646C165.737 78.2067 160.827 82.8692 153.517 71.4315Z" fill="#813D8E"/>
<path d="M144.132 42.8028C144.156 45.0667 144.034 47.3297 143.768 49.578C143.697 50.4751 143.697 51.3765 143.768 52.2736C143.696 51.4982 143.696 50.7177 143.768 49.9423C144.051 47.5735 144.173 45.1881 144.132 42.8028ZM141.259 32.7857C141.477 32.7857 141.695 33.0407 141.986 33.3685C143.634 34.0288 145.238 34.7953 146.787 35.6633V35.3355C145.018 34.2592 143.156 33.3448 141.223 32.6035L141.259 32.7857Z" fill="#C09EC6"/>
<path d="M141.984 33.2227C143.662 36.1205 144.411 39.4646 144.13 42.8027C144.177 45.2366 144.056 47.6708 143.766 50.0879C143.694 50.8633 143.694 51.6438 143.766 52.4191C143.904 55.9318 144.863 59.363 146.567 62.4363C150.175 63.4208 153.575 65.0497 156.605 67.2445V66.261C156.605 66.261 145.439 56.8267 146.821 44.5876C147.191 41.7257 147.289 38.835 147.113 35.9546C145.47 34.924 143.756 34.011 141.984 33.2227Z" fill="#61266E"/>
<path d="M169.226 92.7775C169.226 92.7775 169.226 54.6396 124.164 61.3055C127.282 60.9341 130.428 61.7233 133.003 63.5233C135.578 65.3232 137.403 68.0082 138.13 71.0676C141.985 82.6147 153.514 97.44 169.226 92.7775Z" fill="#944290"/>
<path d="M136.387 67.2773C137.108 68.4196 137.694 69.642 138.133 70.9199C138.714 72.685 139.431 74.4022 140.278 76.056C139.431 74.4022 138.714 72.685 138.133 70.9199C137.694 69.642 137.108 68.4196 136.387 67.2773Z" fill="#752970"/>
<path d="M134.128 60.5434C130.927 60.5562 127.732 60.7875 124.562 61.2355H125.617C127.811 61.1924 129.976 61.7327 131.893 62.8014C133.81 63.87 135.409 65.4288 136.528 67.3186C137.249 68.4609 137.835 69.6833 138.274 70.9612C138.855 72.7263 139.573 74.4435 140.42 76.0973C144.748 84.8031 152.931 93.4725 163.551 93.4725C165.167 93.4517 166.777 93.2563 168.352 92.8896V92.5254C166.854 91.4151 165.705 89.8982 165.042 88.1543H163.405C150.676 88.1543 141.584 75.7331 138.128 65.6431C137.527 63.7251 136.578 61.9346 135.328 60.3613L134.128 60.5434Z" fill="#752970"/>
<path d="M168.172 93.1087C168.172 93.1087 176.537 70.051 192.94 71.4352C209.343 72.8194 215.998 70.3789 215.998 70.3789C212.596 71.8628 209.773 74.4216 207.96 77.6641C206.215 82.2902 197.122 95.9135 168.172 93.1087Z" fill="#944290"/>
<path d="M216 70.3789C213.524 71.0976 210.973 71.5254 208.398 71.6538C210.948 71.5363 213.474 71.1206 215.927 70.4153L216 70.3789Z" fill="#C9A0C7"/>
<path d="M215.927 70.4141C213.474 71.1194 210.947 71.535 208.398 71.6525C208.239 71.9241 208.093 72.2038 207.962 72.4903C206.362 76.6064 198.688 88.1899 175.593 88.1899H175.011C173.083 91.2861 171.374 92.7067 170.065 92.9253H169.592H168.901H168.246C170.901 93.1802 173.374 93.2895 175.702 93.2895C198.797 93.2895 206.434 81.6696 208.035 77.5535C209.824 74.3806 212.594 71.8753 215.927 70.4141Z" fill="#752970"/>
<path d="M161.44 78.862C158.815 75.4769 157.166 71.4361 156.672 67.1785C156.178 62.9209 156.859 58.6092 158.639 54.7116C164.931 41.4526 170.532 36.4986 167.368 29.5413C164.204 22.5839 190.427 53.3274 179.952 78.1699C169.478 103.012 166.314 91.7932 161.44 78.862Z" fill="#9F489B"/>
<path d="M162.095 47.7578L161.367 49.1056L161.986 47.94L162.095 47.7578Z" fill="#5B195F"/>
<path d="M161.371 49.1055L161.008 49.7976L161.081 49.9068L161.444 49.2147L161.371 49.1055Z" fill="#410E45"/>
<path d="M161.004 49.7969C160.204 51.3268 159.367 52.9659 158.494 54.7508C156.816 58.2268 156.076 62.0823 156.348 65.9336V66.1885C156.023 62.2403 156.764 58.277 158.494 54.7144C159.331 53.0024 160.131 51.3996 160.931 49.9061L161.004 49.7969Z" fill="#682772"/>
<path d="M156.461 67.0625C156.977 71.4069 158.647 75.533 161.298 79.0102C162.607 82.6528 163.808 85.8583 164.935 88.4081C163.698 85.8583 162.498 82.5071 161.298 79.0466C158.67 75.5979 157.001 71.5131 156.461 67.2082V67.0625Z" fill="#782A74"/>
<path d="M165.188 88.2227C165.851 89.9666 166.999 91.4835 168.497 92.5938C167.017 91.4655 165.873 89.9542 165.188 88.2227Z" fill="#5F1A5A"/>
<path d="M168.388 92.5586L168.352 92.6314L168.861 92.85L168.97 92.8136L168.388 92.5586Z" fill="#782A74"/>
<path d="M168.972 92.8164L168.863 92.8528L169.554 92.9621L170.063 92.8893L169.7 92.9257L168.972 92.8164Z" fill="#5F1A5A"/>
<path d="M162.061 48.0469L161.443 49.2125L161.079 49.9046C160.279 51.398 159.479 53.0008 158.643 54.7128C156.912 58.2754 156.171 62.2387 156.497 66.187V67.0248C157.036 71.3296 158.705 75.4144 161.334 78.8632C162.643 82.3236 163.843 85.6749 164.971 88.2247C165.622 89.9258 166.714 91.4222 168.135 92.5594L168.717 92.8143H169.444H169.808C172.245 92.3044 175.3 88.1882 179.555 78.2439C182.172 71.6342 182.767 64.3942 181.265 57.4448C180.966 59.4923 180.466 61.5054 179.773 63.455C176.136 73.29 173.809 76.9326 171.881 76.9326C169.335 76.9326 167.626 70.7767 165.516 64.1107C162.576 59.3048 161.357 53.6391 162.061 48.0469Z" fill="#812E7C"/>
<path d="M134.207 267.84C133.625 270.462 131.079 226.241 165.631 198.63C200.182 171.019 208.583 155.976 208.947 149.674C207.219 174.112 197.24 197.235 180.651 215.24C152.392 247.222 137.371 253.852 134.207 267.84Z" fill="#03A24B"/>
<path d="M136.02 261.027C135.438 262.521 135.293 264.67 134.602 264.67C134.865 262.761 135.353 260.89 136.056 259.097C143.464 236.857 157.067 217.203 175.263 202.454C175.772 201.871 151.404 221.068 136.02 261.027Z" fill="#019344"/>
<path d="M208.946 149.896C207.182 174.319 197.223 197.427 180.686 215.463C152.427 247.299 137.406 253.929 134.242 267.916C134.242 267.916 134.242 267.662 134.242 267.115C134.242 267.734 134.242 268.062 134.242 268.062C137.406 254.075 152.427 247.409 180.686 215.609C208.946 183.809 208.946 149.896 208.946 149.896Z" fill="#81D0A5"/>
<path d="M136.309 253.888V253.56C143.583 218.373 164.241 201.07 171.952 196.262C182.257 188.965 191.605 180.399 199.775 170.764C201.047 169.016 201.811 168.178 202.139 168.178C202.466 168.178 200.757 174.079 196.356 185.298C191.009 199.431 147.548 250.428 142.892 250.428C142.456 250.428 142.347 250.027 142.638 249.153C145.765 238.48 172.388 206.534 174.534 203.11L174.825 202.527L174.279 203.001C157.157 219.012 144.049 238.843 136.018 260.882C135.473 262.339 135.291 264.524 134.673 264.524C134.936 262.616 135.424 260.745 136.128 258.951C143.354 237.107 156.576 217.742 174.279 203.074L174.825 202.6H174.643C173.152 202.6 163.296 210.25 152.057 223.982C144.824 232.659 139.517 242.779 136.491 253.669L136.309 253.888ZM208.831 149.965C208.431 156.339 199.956 171.347 165.551 198.848C156.648 206.257 149.295 215.355 143.914 225.62C138.534 235.885 135.233 247.113 134.2 258.66C134.2 261.428 134.2 264.269 133.945 267.147C133.945 267.693 133.945 267.948 133.945 267.948C137.109 253.961 152.13 247.331 180.39 215.495C197.011 197.504 207.061 174.407 208.903 149.965H208.831Z" fill="#018430"/>
<path d="M174.281 203.075C156.562 217.714 143.315 237.053 136.056 258.88C135.353 260.673 134.865 262.544 134.602 264.453C135.22 264.453 135.402 262.377 135.947 260.81C144.019 238.816 157.152 219.036 174.281 203.075ZM174.827 202.602L174.281 203.075L174.827 202.602Z" fill="#00782C"/>
<path d="M133.878 268.895C118.432 252.338 108.012 231.718 103.837 209.448C97.2174 172.731 88.125 167.121 88.125 167.121C88.125 167.121 139.443 205.951 133.878 268.895Z" fill="#6ABD45"/>
<path d="M104.817 192.148C104.126 192.148 121.62 231.051 121.62 231.051C128.093 243.655 131.258 265.729 131.294 265.947C131.312 266.114 131.363 266.275 131.445 266.421C131.527 266.568 131.637 266.696 131.77 266.798C131.902 266.9 132.054 266.974 132.216 267.016C132.378 267.057 132.547 267.066 132.712 267.04C132.879 267.022 133.04 266.971 133.186 266.889C133.332 266.807 133.46 266.697 133.562 266.564C133.664 266.431 133.738 266.279 133.779 266.116C133.821 265.954 133.829 265.785 133.804 265.62C133.804 264.709 130.53 242.853 123.911 229.886L118.674 219.905C113 209.487 105.508 192.148 104.817 192.148Z" fill="#539A37"/>
<path d="M132.602 267.587V267.988L133.73 269.153C133.73 268.789 133.73 268.461 133.73 268.097V268.898C133.73 268.898 133.402 268.643 132.602 267.587ZM88.5586 167.707C90.4135 169.346 98.0511 177.688 103.834 209.706C106.597 224.438 112.112 238.514 120.091 251.195L120.455 251.56C112.271 238.72 106.628 224.425 103.834 209.451C98.8876 182.059 92.5956 172.005 89.686 168.654C89.2132 168.217 88.8132 167.926 88.5586 167.707Z" fill="#B4DEA2"/>
<path d="M128.821 260.701C128.821 260.701 128.821 260.081 128.385 259.134C128.662 259.61 128.812 260.15 128.821 260.701ZM132.167 250.538C131.913 250.538 130.749 245.839 128.53 238.772C130.208 242.357 131.429 246.138 132.167 250.028C132.24 250.429 132.204 250.429 132.167 250.429V250.538ZM128.53 259.134C126.639 255.018 119.22 245.584 117.11 242.269C114.71 238.408 105.29 215.642 104.308 205.843C103.198 197.503 101.509 189.251 99.2525 181.146C114.346 194.369 124.02 222.818 128.821 238.918C124.748 228.937 118.492 216.334 117.365 214.075C115.728 210.797 106.454 190.981 104.708 190.981C103.508 192.438 109.291 208.429 115.328 221.033C120.464 233.45 124.825 246.175 128.385 259.134H128.53ZM89.5781 168.652C92.4877 172.004 98.7797 182.057 103.726 209.449C106.52 224.423 112.163 238.718 120.347 251.558C123.838 255.2 127.306 259.134 130.749 263.36C129.066 252.285 125.961 241.474 121.511 231.196C121.511 231.196 104.126 192.366 104.817 192.147C105.544 192.147 113.037 209.34 118.565 219.758L123.911 229.884C130.53 242.852 133.658 264.708 133.804 265.618C133.829 265.784 133.821 265.953 133.779 266.115C133.738 266.277 133.664 266.43 133.562 266.562C133.46 266.695 133.332 266.806 133.186 266.888C133.04 266.97 132.879 267.021 132.713 267.039H132.458V267.403C133.258 268.277 133.731 268.714 133.731 268.714V267.913C133.713 267.585 133.713 267.257 133.731 266.929C133.644 264.206 133.741 261.48 134.022 258.77C133.949 208.284 97.6886 175.282 89.5781 168.652Z" fill="#4BA42C"/>
<path d="M104.817 192.148C104.126 192.148 121.62 231.051 121.62 231.051C126.07 241.329 129.175 252.14 130.858 263.215L131.076 263.507C131.076 263.507 131.73 265.037 132.458 267.149H132.712C132.879 267.132 133.04 267.08 133.186 266.998C133.332 266.917 133.46 266.806 133.562 266.673C133.664 266.54 133.738 266.388 133.779 266.226C133.821 266.063 133.829 265.894 133.804 265.729C133.804 264.818 130.53 242.963 123.911 229.995L118.674 219.905C113.036 209.487 105.544 192.148 104.817 192.148Z" fill="#3B8623"/>
<path d="M131.075 263.654C131.075 263.654 137.694 279.025 132.457 276.949C127.219 274.873 124.455 266.786 113.617 264.674C102.779 262.561 77.6474 255.239 66.3364 236.371C55.0254 217.502 43.6417 204.571 31.0941 204.571C18.5465 204.571 78.0111 198.269 131.075 263.654Z" fill="#6ABD45"/>
<path d="M72.8426 221.289C73.2427 221.544 112.849 247.698 131.471 275.928C131.673 276.16 131.952 276.311 132.256 276.353C132.561 276.395 132.87 276.325 133.127 276.156C133.385 275.987 133.572 275.731 133.655 275.435C133.738 275.138 133.712 274.822 133.58 274.544C114.813 245.877 72.2243 220.925 72.8426 221.289Z" fill="#539A37"/>
<path d="M84.886 254.07H84.5586C93.5819 259.31 103.416 263.004 113.654 264.998C124.565 267.111 127.257 275.161 132.494 277.237C132.768 277.366 133.064 277.44 133.367 277.456C134.24 277.456 134.531 276.618 134.531 275.416C134.531 276.509 134.167 277.201 133.367 277.201C133.069 277.182 132.775 277.121 132.494 277.019C127.257 274.906 124.493 266.856 113.654 264.743C103.543 262.799 93.8222 259.192 84.886 254.07Z" fill="#B4DEA2"/>
<path d="M60.956 227.845C62.8109 230.577 64.5929 233.528 66.4842 236.624C69.4755 241.541 73.347 245.863 77.9043 249.373H78.2316C73.5317 245.805 69.5461 241.381 66.4842 236.332C64.7748 233.455 63.0654 230.686 61.3197 228.1L60.956 227.845ZM30.4418 204.605C29.0597 204.605 29.2052 204.788 31.2419 204.788C34.3235 204.828 37.3563 205.563 40.1161 206.937L39.8979 206.609C38.2869 205.839 36.5897 205.264 34.8425 204.897C32.8058 204.715 31.3874 204.605 30.4418 204.605Z" fill="#028D2F"/>
<path d="M84.8195 253.891L84.4922 253.927L84.5649 254L84.8923 253.964L84.8195 253.891Z" fill="#5AB568"/>
<path d="M77.9048 249.374C79.9924 251.085 82.1916 252.654 84.4878 254.072H84.8151C82.5399 252.689 80.3423 251.181 78.2322 249.556L77.9048 249.374ZM39.8984 206.719L40.1166 207.047C47.3906 210.507 54.2282 217.974 60.9566 227.955L61.3202 228.246C54.41 217.647 47.3179 210.07 39.8984 206.719Z" fill="#00731E"/>
<path d="M132.535 276.439C132.324 276.437 132.118 276.382 131.934 276.28C131.75 276.179 131.594 276.033 131.48 275.856C112.968 247.735 73.2883 221.582 72.8519 221.217C72.8519 221.217 115.041 246.133 133.589 274.472C133.683 274.61 133.749 274.765 133.781 274.928C133.814 275.092 133.813 275.261 133.779 275.424C133.745 275.587 133.679 275.742 133.584 275.879C133.489 276.016 133.367 276.132 133.226 276.22L132.535 276.439ZM120.023 265.001C117.696 263.144 110.858 263.289 99.329 259.173C86.5269 254.547 70.7788 241.944 64.2686 229.122C60.9663 221.355 55.4019 214.766 48.3023 210.217C46.8111 209.051 46.5929 208.468 47.4658 208.468C50.3026 208.468 64.705 214.515 85.0721 224.532C108.094 235.86 127.152 263.726 126.679 263.726C126.016 263.09 125.441 262.367 124.97 261.577C117.005 250.431 78.671 223.148 74.6704 220.962C73.7924 220.413 72.7934 220.088 71.7608 220.015C70.1242 220.015 69.8696 221.509 72.2336 223.366C75.616 226.026 87.9453 234.039 99.1108 243.729C106.539 250.354 113.525 257.46 120.023 265.001ZM35.0273 204.898C36.7746 205.265 38.4717 205.84 40.0827 206.61C47.3567 210.071 54.6306 217.793 61.5045 228.138C63.2503 230.724 65.1415 233.493 66.669 236.37C69.731 241.419 73.7165 245.843 78.4164 249.411C80.5266 251.036 82.7242 252.544 84.9994 253.928C93.9221 259.059 103.63 262.677 113.731 264.637C124.642 266.75 127.334 274.8 132.571 276.913C132.852 277.015 133.146 277.076 133.444 277.095C134.244 277.095 134.571 276.403 134.608 275.31C134.302 272.726 133.666 270.192 132.717 267.77C128.235 262.849 124.206 257.533 120.678 251.888C84.6357 214.005 48.1932 206.319 35.0273 204.898Z" fill="#4BA42C"/>
<path d="M72.8125 221.289C73.2126 221.544 112.819 247.698 131.441 275.928C131.555 276.105 131.711 276.251 131.895 276.352C132.079 276.454 132.285 276.508 132.495 276.511L133.186 276.292C133.327 276.204 133.449 276.087 133.544 275.95C133.639 275.814 133.706 275.659 133.74 275.496C133.774 275.332 133.775 275.164 133.742 275C133.709 274.837 133.644 274.681 133.55 274.544C115.038 246.132 72.8852 221.289 72.8125 221.289Z" fill="#3B8623"/>
</mask>
<g mask="url(#mask0_550_5340)">
<rect x="-23" y="-28" width="300" height="432" fill="url(#paint0_linear_550_5340)"/>
</g>
<path d="M195.053 285.543L183.451 371.399C183.269 383.019 157.774 392.016 126.459 391.542C95.145 391.069 69.9407 381.27 70.1226 369.687L56.8477 278.039L195.053 285.543Z" fill="#AA6B28"/>
<path d="M195.051 285.542H194.687L183.085 371.398C183.085 376.753 177.084 381.779 167.264 385.385C154.87 389.486 141.872 391.456 128.821 391.214H126.494C112.958 391.267 99.5135 389 86.7416 384.511C76.5581 380.614 70.4479 375.332 70.4843 369.941L57.1003 278.876L195.051 285.906V285.542V285.178L56.8457 277.893H56.5547V278.184L69.9751 369.832H70.3389H69.9751C69.9751 375.915 76.4853 381.233 86.7052 385.203C99.5673 389.688 113.093 391.966 126.712 391.942H129.076C142.213 392.184 155.296 390.201 167.773 386.078C177.666 382.435 183.922 377.372 184.067 371.507L195.633 285.651V285.396H195.378V285.761L195.051 285.542Z" fill="#2E1010"/>
<path d="M195.053 285.543L183.451 371.399C183.269 383.019 157.774 392.016 126.459 391.542C95.145 391.069 69.9407 381.27 70.1226 369.687L56.8477 278.039L195.053 285.543Z" fill="#F9A84C"/>
<path d="M195.051 285.542H194.687L183.085 371.398C183.085 376.753 177.084 381.779 167.264 385.385C154.87 389.486 141.872 391.456 128.821 391.214H126.494C112.958 391.267 99.5135 389 86.7416 384.511C76.5581 380.614 70.4479 375.332 70.4843 369.941L57.1003 278.876L195.051 285.906V285.542V285.178L56.8457 277.893H56.5547V278.184L69.9751 369.832H70.3389H69.9751C69.9751 375.915 76.4853 381.233 86.7052 385.203C99.5673 389.688 113.093 391.966 126.712 391.942H129.076C142.213 392.184 155.296 390.201 167.773 386.078C177.666 382.435 183.922 377.372 184.067 371.507L195.633 285.651V285.396H195.378V285.761L195.051 285.542Z" fill="#7C4317"/>
<path d="M72.1172 302.189L80.555 362.511C80.555 362.511 84.192 381.489 107.432 386.515C112.772 387.659 118.295 387.633 123.623 386.438C128.951 385.243 133.958 382.908 138.301 379.594C142.643 376.279 146.219 372.063 148.782 367.234C151.345 362.405 152.834 357.079 153.149 351.619C155.04 328.343 155.04 308.71 155.04 308.71C144.452 310.23 133.768 310.985 123.071 310.968C106.996 310.968 87.6835 309.147 72.1536 302.299L72.1172 302.189Z" fill="#FAB76A"/>
<path d="M193.921 291.263C189.038 295.278 183.485 298.397 177.518 300.479C171.176 302.828 164.641 304.62 157.988 305.833C159.879 305.833 162.316 306.198 165.262 306.198C169.88 306.182 174.49 305.793 179.046 305.032C179.32 304.793 179.665 304.652 180.028 304.631C180.864 304.631 181.992 305.615 182.064 310.678C182.064 318.91 174.427 368.959 174.427 368.959C174.427 368.959 172.936 381.854 155.042 386.662C146.342 388.705 137.427 389.683 128.492 389.576C107.179 389.576 81.393 384.586 70.082 367.102L70.4821 369.797C70.4821 375.298 76.5559 380.725 86.7394 384.368C99.5113 388.856 112.956 391.123 126.492 391.07H128.819C141.87 391.312 154.868 389.342 167.262 385.242C177.082 381.599 183.046 376.609 183.083 371.254L193.994 291.117L193.921 291.263Z" fill="#DE9342"/>
<path d="M194.32 290.859L193.92 291.26L183.009 371.397C183.009 376.752 177.008 381.778 167.188 385.385C154.794 389.485 141.796 391.455 128.745 391.213H126.417C112.882 391.266 99.4372 388.999 86.6653 384.51C76.4818 380.613 70.3716 375.331 70.408 369.94L70.0079 367.245L69.5352 366.516L70.0443 370.159C69.8625 381.742 95.1031 391.541 126.381 392.014H128.745C158.968 392.014 183.3 383.199 183.3 371.871L194.211 291.333L194.32 290.859Z" fill="#6F3B14"/>
<path d="M53.4609 261.903L66.845 262.413C80.0836 254.873 101.978 249.955 126.819 249.955C154.532 249.955 178.609 256.075 191.048 265.108L201.449 261.794L199.922 280.516C198.067 295.925 166.062 308.2 126.819 308.2C87.5758 308.2 54.843 295.633 53.6791 279.97L53.4609 279.752V262.631V261.866V261.903Z" fill="#F9A72B"/>
<path d="M53.4616 261.901V262.229L66.8457 262.739H67.0275C80.157 255.272 102.052 250.354 126.819 250.354C154.46 250.354 178.537 256.474 190.83 265.435H191.157L201.559 262.156V261.792H201.232L199.704 280.478H200.032V280.114L199.704 280.406C198.795 287.691 190.467 294.794 177.373 299.784C144.448 310.58 108.934 310.516 76.0472 299.602C62.9178 294.539 54.6982 287.509 54.2254 279.896V279.677V262.703H53.8617H53.5343L53.9344 262.958L54.2254 262.593V261.792H53.8617H53.207V262.557H53.5708H53.8981L53.498 262.302L53.207 262.666V279.786V280.005L53.4252 280.26L53.6799 280.005H53.207C53.8617 288.091 62.3722 295.195 75.5744 300.294C108.627 311.256 144.318 311.319 177.41 300.476C190.576 295.45 199.232 288.492 200.177 280.551H199.814V280.879L200.177 280.551L201.705 261.865V261.573H201.377L190.939 264.888V265.216L191.412 264.997C178.865 255.891 154.715 249.771 126.965 249.771C102.088 249.771 80.157 254.689 66.8093 262.266L66.9911 262.593V262.229L53.6435 261.719H53.3525V261.974L53.4616 261.901Z" fill="#7C4317"/>
<path d="M53.4609 261.901C53.4609 278.074 86.5938 291.042 127.473 291.042C168.353 291.042 201.449 277.928 201.449 261.901C201.449 245.874 168.353 232.578 127.473 232.578C86.5938 232.578 53.4609 245.691 53.4609 261.901Z" fill="#F9A84C"/>
<path d="M53.4616 261.903H53.207C53.207 270.244 61.6448 277.602 75.0289 282.957C109.056 294.42 145.892 294.42 179.919 282.957C193.34 277.602 201.741 270.244 201.741 261.903C201.741 253.561 193.267 246.167 179.919 240.812C145.892 229.349 109.056 229.349 75.0289 240.812C61.5721 246.167 53.207 253.525 53.207 261.903H53.8981C53.8981 254.071 62.0085 246.786 75.3562 241.468C109.217 230.058 145.876 230.058 179.737 241.468C193.085 246.786 201.196 254.071 201.196 261.903C201.196 269.734 193.085 276.983 179.737 282.301C145.869 293.666 109.225 293.666 75.3562 282.301C62.0085 276.983 53.8617 269.698 53.8981 261.903H53.4616Z" fill="#7C4317"/>
<path d="M55.8242 261.357C55.8242 275.927 87.8296 287.838 127.327 287.838C166.825 287.838 198.685 275.927 198.685 261.357C198.685 246.786 166.679 234.875 127.218 234.875C87.7569 234.875 55.8242 246.786 55.8242 261.357Z" fill="#C7883C"/>
<path d="M55.8247 261.356H55.4609C55.4609 268.969 63.6805 275.598 76.6282 280.406C109.619 290.8 145 290.8 177.991 280.406C190.938 275.598 199.122 268.969 199.158 261.356C199.194 253.743 190.938 247.113 177.991 242.305C145 231.911 109.619 231.911 76.6282 242.305C63.6805 247.113 55.4973 253.743 55.4609 261.356H56.1884C56.1884 254.325 63.9715 247.732 76.8827 242.961C109.715 232.664 144.904 232.664 177.736 242.961C190.647 247.732 198.467 254.325 198.43 261.356C198.394 268.386 190.647 274.979 177.736 279.569C144.904 289.865 109.715 289.865 76.8827 279.569C63.9715 274.797 56.152 268.204 56.1884 261.356H55.8247Z" fill="#7C4317"/>
<path d="M198.683 272.941C195.046 289.114 165.223 302.082 165.223 302.082C173.407 299.456 181.382 296.217 189.081 292.393C193.237 289.671 196.342 285.61 197.883 280.882L198.683 272.832V272.941Z" fill="#DE9225"/>
<path d="M56.8445 273.959C56.8014 277.06 57.0572 280.159 57.6083 283.211C58.4243 284.818 59.3732 286.353 60.4451 287.801C79.2119 302.371 108.635 305.03 129.366 305.03C137.395 305.029 145.419 304.615 153.406 303.792C156.061 303.792 155.043 292.318 155.043 292.318C145.437 293.329 135.787 293.852 126.129 293.884C69.9376 293.884 56.8445 273.959 56.8445 273.959Z" fill="#FAB64F"/>
<path d="M110.383 253.16L109.328 253.342H109.692C109.938 253.328 110.171 253.224 110.347 253.051L110.383 253.16Z" fill="#875723"/>
<path d="M136.351 254.069V253.486C136.314 254.069 136.278 254.433 136.351 254.069Z" fill="#539A37"/>
<path d="M128.387 259.133C128.678 260.08 128.823 260.699 128.823 260.699C128.815 260.148 128.664 259.609 128.387 259.133Z" fill="#539A37"/>
<path d="M84.8156 253.889L84.4883 253.925L84.561 253.998L84.8884 253.962L84.8156 253.889Z" fill="#5AB568"/>
</g>
<defs>
<linearGradient id="paint0_linear_550_5340" x1="127" y1="404" x2="127" y2="-28" gradientUnits="userSpaceOnUse">
<stop stop-color="#C4C4C4"/>
<stop offset="1" stop-color="#C4C4C4" stop-opacity="0"/>
</linearGradient>
<clipPath id="clip0_550_5340">
<rect width="216" height="404" fill="white"/>
</clipPath>
</defs>
</svg>
